<?xml version="1.0" encoding="utf-8"?>
<!-- Generator: Adobe Illustrator 15.1.0, SVG Export Plug-In . SVG Version: 6.00 Build 0)  -->
<!DOCTYPE svg PUBLIC "-//W3C//DTD SVG 1.0//EN" "http://www.w3.org/TR/2001/REC-SVG-20010904/DTD/svg10.dtd">
<svg version="1.0" id="Calque_1" xmlns="http://www.w3.org/2000/svg" xmlns:xlink="http://www.w3.org/1999/xlink" x="0px" y="0px"
	 width="290px" height="290px" viewBox="0 0 290 290" enable-background="new 0 0 290 290" xml:space="preserve">
<g>
	<g>
		<path fill="#77CEE5" d="M271.415,151.104c-5.442-1.963-11.749-3.166-15.575-7.581c-0.102-5.144-0.551-10.198-1.33-15.146
			c6.688-1.203,9.771-6.723,13.561-12.016c2.904-4.061,8.871-8.438,17.691-10.365c-6.718-4.584-14.58-6.594-20.967-6.594
			c-0.703,0-1.391,0.025-2.057,0.072c-3.282,0.239-6.723,0.82-10.049,0.82c-2.508,0-4.953-0.33-7.225-1.386
			c-2.171-4.624-4.652-9.072-7.418-13.317c5.623-3.818,6.195-10.115,7.504-16.494c1.002-4.893,4.674-11.315,11.947-16.666
			c-2.24-0.408-4.482-0.594-6.68-0.594c-6.502,0-12.582,1.635-17.006,4.002c-5.033,2.692-10.068,6.513-15.807,6.513
			c-0.078,0-0.158-0.009-0.236-0.011c-3.83-3.318-7.896-6.371-12.16-9.144c3.582-5.777,1.543-11.761,0.145-18.119
			c-1.07-4.876-0.332-12.238,4.137-20.085c-8.775,2.141-16.133,7.45-20.25,12.746c-3.541,4.561-6.629,10.168-11.99,12.451
			c-4.816-1.46-9.773-2.602-14.848-3.396c0.922-6.732-3.378-11.369-7.24-16.608c-2.961-4.017-5.28-11.044-4.39-20.031
			c-7.146,5.526-11.709,13.37-13.315,19.883c-1.384,5.613-1.92,11.999-5.899,16.268c-5.097,0.63-10.084,1.612-14.938,2.913
			c-1.898-6.521-7.708-9.008-13.364-12.222c-4.343-2.465-9.318-7.94-12.159-16.513c-4.281,7.955-5.26,16.975-4.079,23.58
			c1.02,5.688,3.125,11.735,1.23,17.25c-4.357,2.636-8.514,5.567-12.449,8.766c-4.389-5.201-10.713-5.111-17.196-5.748
			c-4.968-0.486-11.74-3.463-17.824-10.139c-0.675,9.008,2.1,17.646,5.866,23.199c3.248,4.784,7.638,9.459,8.142,15.275
			c-2.894,4.145-5.514,8.494-7.825,13.027c-1.953-0.943-3.865-1.315-5.767-1.315c-4.058,0-8.059,1.687-12.264,3.085
			c-1.898,0.633-4.225,1.018-6.864,1.018c-3.945,0-8.588-0.857-13.544-3.029c3.048,8.503,9.096,15.267,14.795,18.807
			c4.91,3.048,10.815,5.533,13.645,10.632c-0.941,4.929-1.562,9.974-1.826,15.11c-0.148-0.005-0.306-0.021-0.454-0.021
			c-6.538,0-10.614,4.664-15.316,8.958c-3.686,3.367-10.432,6.406-19.462,6.461c6.243,6.529,14.521,10.248,21.165,11.164
			c5.72,0.787,12.118,0.658,16.775,4.152c1.159,4.996,2.663,9.857,4.477,14.566c-6.284,2.57-8.151,8.607-10.754,14.568
			c-1.999,4.575-6.924,10.098-15.152,13.817c4.833,1.981,9.907,2.826,14.572,2.826c3.403,0,6.586-0.448,9.304-1.235
			c4.531-1.314,9.23-3.382,13.896-3.382c1.053,0,2.103,0.114,3.149,0.356c3.07,4.05,6.409,7.884,9.998,11.467
			c-4.712,4.906-3.96,11.188-3.916,17.699c0.035,4.99-2.217,12.039-8.223,18.785c9.029-0.271,17.333-3.933,22.46-8.258
			c4.413-3.727,8.596-8.578,14.316-9.695c4.427,2.449,9.042,4.599,13.814,6.429c-2.294,6.39,0.942,11.815,3.631,17.741
			c2.063,4.545,2.871,11.899,0.13,20.506c8.139-3.922,14.233-10.641,17.159-16.68c2.521-5.207,4.375-11.35,9.164-14.692
			c3.086,0.258,6.206,0.399,9.358,0.399c1.962,0,3.91-0.055,5.848-0.154c0.494,6.783,5.662,10.429,10.532,14.751
			c3.734,3.315,7.464,9.704,8.46,18.681c5.84-6.893,8.674-15.513,8.891-22.218c0.186-5.771-0.613-12.116,2.375-17.117
			c4.838-1.674,9.519-3.67,14.02-5.973c3.215,5.979,9.411,7.206,15.616,9.172c4.758,1.508,10.765,5.827,15.325,13.625
			c2.531-8.669,1.613-17.699-0.916-23.912c-2.184-5.358-5.51-10.851-4.785-16.647c3.693-3.463,7.154-7.181,10.346-11.121
			c2.857,2.226,5.942,2.867,9.182,2.867c2.846,0,5.812-0.49,8.84-0.832c0.638-0.07,1.312-0.108,2.02-0.108
			c4.805,0,11.127,1.731,17.523,6.321c-1.213-8.949-5.723-16.824-10.561-21.474c-4.166-3.996-9.412-7.649-11.128-13.213
			c1.966-4.651,3.615-9.47,4.935-14.422c1.08,0.265,2.125,0.401,3.129,0.401c5.144,0,9.443-3.112,14.139-5.865
			c3.01-1.768,7.441-3.065,12.859-3.065c2.336,0,4.854,0.242,7.521,0.793C285.049,158.74,277.727,153.382,271.415,151.104z"/>
		<path fill="#77CEE5" d="M273.671,149.223c0.036-1.171,0.062-2.344,0.062-3.522c0-9.742-1.111-19.225-3.183-28.348
			c-0.134,0.169-0.267,0.336-0.39,0.507c-0.209,0.292-0.411,0.581-0.614,0.872c1.892,8.695,2.901,17.716,2.901,26.969
			c0,1.014-0.021,2.021-0.049,3.028C272.826,148.885,273.25,149.049,273.671,149.223z"/>
		<path fill="#77CEE5" d="M61.248,241.42c-0.003-0.395-0.012-0.783-0.019-1.172c-7.478-6.684-14.162-14.234-19.892-22.499
			c-0.428,0.122-0.883,0.221-1.329,0.329c6.064,8.818,13.201,16.842,21.224,23.883C61.238,241.779,61.25,241.598,61.248,241.42z"/>
		<path fill="#77CEE5" d="M107.019,266.48c-9.677-3.102-18.845-7.33-27.36-12.539c-0.346,0.291-0.702,0.574-1.066,0.854
			c9.03,5.568,18.798,10.041,29.122,13.249c-0.079-0.193-0.154-0.393-0.239-0.579C107.325,267.134,107.171,266.811,107.019,266.48z"
			/>
		<path fill="#77CEE5" d="M209.507,255.199c-8.604,5.039-17.849,9.093-27.583,12.007c-0.018,0.452-0.041,0.907-0.078,1.364
			c10.373-3.062,20.193-7.405,29.293-12.846c-0.185-0.064-0.365-0.138-0.547-0.193C210.229,255.415,209.87,255.309,209.507,255.199z
			"/>
		<path fill="#77CEE5" d="M248.493,219.754c-5.884,8.148-12.706,15.572-20.315,22.112c0.172,0.421,0.33,0.847,0.485,1.278
			c8.12-6.929,15.356-14.851,21.54-23.576c-0.188,0.013-0.376,0.024-0.557,0.045C249.26,219.656,248.878,219.707,248.493,219.754z"
			/>
		<path fill="#77CEE5" d="M260.195,200.014c0.324,0.313,0.643,0.637,0.957,0.969c4.582-9.537,8.016-19.719,10.123-30.375
			c-0.201,0.106-0.395,0.211-0.559,0.309c-0.314,0.186-0.621,0.372-0.931,0.559C267.716,181.465,264.473,191.027,260.195,200.014z"
			/>
		<path fill="#77CEE5" d="M159.482,271.745c-4.553,0.496-9.17,0.771-13.854,0.771c-5.511,0-10.932-0.377-16.258-1.063
			c-0.199,0.407-0.407,0.813-0.627,1.217c5.528,0.731,11.16,1.132,16.885,1.132c5.122,0,10.165-0.32,15.13-0.906
			c-0.151-0.146-0.302-0.297-0.458-0.437C160.027,272.217,159.756,271.982,159.482,271.745z"/>
		<path fill="#77CEE5" d="M158.293,19.537c10.198,1.015,20.043,3.234,29.395,6.531c0.275-0.357,0.563-0.709,0.861-1.057
			c-9.921-3.538-20.4-5.885-31.27-6.869c0.115,0.174,0.232,0.352,0.354,0.518C157.854,18.955,158.072,19.244,158.293,19.537z"/>
		<path fill="#77CEE5" d="M248.068,69.613c-0.078,0.381-0.147,0.76-0.223,1.141c5.92,8.049,10.906,16.818,14.813,26.152
			c0.446-0.03,0.911-0.037,1.375-0.049c-4.123-9.952-9.466-19.271-15.835-27.779C248.154,69.254,248.104,69.436,248.068,69.613z"/>
		<path fill="#77CEE5" d="M105.875,25.29c9.405-3.114,19.289-5.151,29.516-5.974c0.108-0.439,0.227-0.877,0.358-1.314
			c-10.887,0.834-21.395,3.034-31.358,6.432c0.18,0.111,0.355,0.224,0.535,0.327C105.242,24.941,105.559,25.113,105.875,25.29z"/>
		<path fill="#77CEE5" d="M29.609,198.822c0.15-0.342,0.292-0.682,0.435-1.021c-4.099-9.059-7.167-18.674-9.047-28.709
			c-0.447-0.063-0.895-0.135-1.343-0.217c1.961,10.686,5.248,20.912,9.692,30.5C29.436,199.191,29.53,199.006,29.609,198.822z"/>
		<path fill="#77CEE5" d="M208.268,34.527c0.08,0.371,0.168,0.736,0.252,1.104c8.746,5.017,16.838,11.039,24.119,17.919
			c0.397-0.211,0.818-0.404,1.229-0.6c-7.72-7.353-16.351-13.752-25.709-19.01C208.191,34.137,208.227,34.334,208.268,34.527z"/>
		<path fill="#77CEE5" d="M60.433,51.878c7.405-6.731,15.603-12.599,24.442-17.445c-0.079-0.445-0.148-0.896-0.208-1.348
			c-9.424,5.12-18.137,11.386-25.951,18.616c0.179,0.023,0.36,0.055,0.539,0.07C59.649,51.811,60.039,51.844,60.433,51.878z"/>
		<path fill="#77CEE5" d="M21.112,115.628c-2.331,9.649-3.583,19.716-3.583,30.071c0,0.586,0.015,1.168,0.024,1.754
			c0.161-0.139,0.326-0.271,0.479-0.412c0.267-0.245,0.526-0.49,0.79-0.734c-0.002-0.201-0.007-0.404-0.007-0.606
			c0-10.092,1.204-19.904,3.442-29.321C21.873,116.138,21.492,115.887,21.112,115.628z"/>
		<path fill="#77CEE5" d="M44.884,68.785c-0.253-0.374-0.499-0.758-0.738-1.148c-6.492,8.42-11.953,17.666-16.209,27.553
			c0.192-0.057,0.396-0.103,0.583-0.164c0.349-0.116,0.692-0.236,1.039-0.355C33.645,85.412,38.805,76.732,44.884,68.785z"/>
	</g>
</g>
<g>
	<g>
		<path fill="#91215C" d="M130.071,101.83c0,0.342-0.279,1.117-0.527,1.52c0,0.031,0.031,0.063,0.031,0.094
			c0,0.123-0.124,0.123-0.186,0.217c-0.124,0.093-0.217,0.217-0.311,0.341c-0.093,0.093-0.248,0.279-0.403,0.279
			c-0.062,0-0.124,0-0.155-0.031c-0.155,0.124-0.465,0.124-0.589,0.124c-0.558,0.031-1.24-0.031-1.736-0.217
			c-0.589-0.248-0.93-0.651-1.178-1.271c0.031-0.031-0.217-0.589-0.155-1.209c-0.031-0.063,0-0.094,0-0.155s0.031-0.124,0.031-0.155
			c0.031-0.093,0.093-0.217,0.186-0.341h-0.031c-0.031-0.093,0-0.155,0.031-0.217c0.062-0.063,0.186-0.124,0.279-0.218l0.279-0.31
			c0.062-0.031,0.124-0.093,0.217-0.093c0.031,0,0.093,0,0.124,0.031l0.279-0.125c0.093-0.03,0.186-0.093,0.31-0.123
			c0.124-0.063,0.217-0.125,0.279-0.063c0.372-0.093,0.744-0.093,1.116,0.063c0.124,0.062,0.713,0.465,0.992,0.619
			c0.093-0.093,0.124-0.217,0.124-0.341l-0.062-0.341c0-0.093,0-0.217-0.031-0.341v-0.218c-0.124-0.341-0.682-0.806-0.93-1.022
			c-0.62-0.527-1.488-0.962-2.294-1.085c-0.031,0.03-0.062,0.062-0.124,0.062s-0.124-0.031-0.186-0.093
			c-0.124,0-0.279,0-0.403,0.031c-0.465,0.03-1.303,0.062-2.108,0.496h-0.063c-0.062,0.093-0.155,0.186-0.248,0.248
			c-0.062,0.03-0.093,0.062-0.155,0.062c-0.62,0.403-1.116,0.899-1.55,1.333c-0.341,0.342-0.372,0.465-0.744,0.807l-0.527,0.496
			c-0.093,0.093-0.279,0.402-0.372,0.496l-0.279,0.186c0,0.063-0.031,0.094-0.062,0.124c0,0.063,0.062,0.124,0.031,0.218
			c-0.031,0.093-0.124,0.186-0.187,0.278l-0.341,0.403c-0.186,0.341-0.31,0.682-0.403,0.992l-0.062,0.124
			c0.031,0.093,0.031,0.187-0.031,0.248c-0.031,0.031-0.031,0.031-0.062,0.031l-0.403,1.147c0.062,0.093,0,0.186-0.093,0.278
			l-0.155,0.435l-0.341,0.992c0.124,0.093,0,0.248-0.093,0.372l-0.093,0.278c0.062,0.063,0,0.155-0.062,0.248v0.063
			c-0.093,0.559,0,1.116-0.093,1.52c-0.031,0.589,0,2.046,0.063,2.666l0.279,1.52l0.093,0.311c0.062,0.03,0.093,0.123,0.062,0.217
			l0.279,1.085c0.248-0.217,0.372-0.187,0.434-0.031c0.031,0.124,0.031,0.279-0.248,0.62l0.062,0.094
			c0.093,0.03,0.155,0.123,0.124,0.217c0.217,0.372,0.527,0.713,0.651,1.209c0.186,0.589,1.271,1.364,2.015,1.736
			c0.744,0.248,1.612,0.434,1.86,0.496c0.713,0.063,2.294,0.031,3.659-0.559c0.341-0.154,1.457-0.65,2.264-1.55
			c0.217-0.187,0.465-0.62,0.713-1.054c0.031-0.187,0.248-0.466,0.31-0.559l0.124-0.248l0.031-0.031
			c0-0.062,0.031-0.093,0.031-0.124c-0.031,0-0.031-0.03-0.062-0.062c-0.031-0.155,0-0.187,0.124-0.311
			c0.124-0.093,0.403-0.402,0.527-0.093v0.062c0.093,0.063,0.063,0.311,0.063,0.373l-0.124,0.371c0.031,0.031,0.031,0.063,0,0.125
			c-0.031,0.03-0.031,0.03-0.063,0.03c-0.248,0.589-0.651,1.271-0.93,1.644c-0.527,0.775-1.333,1.426-2.171,1.892
			c-1.705,0.992-4.186,1.457-4.248,1.457h-0.341c-0.062,0.031-0.093,0.031-0.124,0.031c-0.062,0-0.093,0-0.093-0.031
			c-0.248,0-0.558,0.031-0.868,0.031c-0.682,0-1.364-0.031-1.488-0.093l-0.682-0.155c-0.062,0-0.124,0-0.155-0.031h-0.031
			l-2.14-0.683c-0.62-0.341-1.271-0.774-1.829-1.24l-0.093-0.093c-0.311-0.278-0.62-0.558-0.868-0.837
			c-0.435-0.527-0.868-1.147-1.24-1.705c-0.031-0.031-0.063-0.094-0.063-0.124c-0.31-0.527-0.558-1.023-0.682-1.396
			c-0.311-1.055-0.496-1.705-0.589-2.264l-0.093-1.364c-0.031-0.03-0.062-0.062-0.093-0.155c-0.031-0.123,0.031-0.248,0.093-0.402
			c0-0.187,0-0.372,0.031-0.559l-0.031-0.031c0-0.03,0-0.062,0.031-0.093c0.031-0.961,0.124-1.892,0.248-2.449l0.186-0.744
			c-0.031-0.124,0.031-0.248,0.124-0.372c0.217-0.775,0.527-1.705,0.868-2.449c-0.093-0.094-0.062-0.248,0-0.372
			c0.186-0.248,0.403-0.496,0.62-0.714c0.434-0.713,0.961-1.395,1.426-1.984v-0.03c0.248-0.527,1.302-1.303,1.644-1.458
			c0.341-0.217,0.651-0.402,0.93-0.619c0.187-0.155,0.899-0.651,1.52-0.931c0.217-0.093,0.403-0.155,0.558-0.187
			c0.031-0.03,0.062-0.062,0.093-0.062c0.093-0.124,0.217-0.124,0.31-0.031l0.279-0.093c0.093-0.063,0.186-0.093,0.341-0.124
			l0.031-0.031c0.062-0.062,0.155-0.155,0.248-0.186c0.155-0.031,0.217,0,0.248,0.093c0.279-0.063,0.62-0.093,0.961-0.155
			c0.124-0.062,0.248-0.124,0.372-0.155c0.124-0.03,0.279,0,0.372,0.094c0.931-0.094,1.799-0.155,2.078-0.094l0.527,0.094h0.155
			c0.031,0,0.093,0,0.124,0.031c0.961,0.154,1.984,0.526,2.791,1.085c0.62,0.465,1.178,1.054,1.458,1.644
			c0.248,0.402,0.372,0.774,0.434,1.209C130.164,100.776,130.071,101.148,130.071,101.83z M116.552,105.272l0.124-0.341
			c-0.248,0.217-0.496,0.465-0.713,0.713c-0.806,0.837-1.644,1.705-2.48,2.512c-0.527,0.526-1.116,0.961-1.612,1.519v0.279
			l0.775-0.713c0.527-0.559,1.054-1.085,1.55-1.644C114.971,106.822,115.715,105.985,116.552,105.272z M116.149,106.45
			c-0.434,0.372-0.837,0.775-1.209,1.179c-1.054,1.054-2.139,2.108-3.038,3.286c1.178-1.022,2.294-2.108,3.441-3.162l0.589-0.527
			C115.995,106.946,116.056,106.698,116.149,106.45z M117.39,102.884l-3.442,3.132c-0.558,0.526-1.147,1.054-1.705,1.612
			l-0.248,0.279l-0.062,0.65c0.062-0.031,0.124-0.093,0.186-0.154l1.55-1.582l3.007-3.069c0.217-0.248,0.435-0.496,0.683-0.713
			C117.359,102.977,117.39,102.947,117.39,102.884z M112.026,112.248c0.031,0.031,0.031,0.063,0.031,0.094
			c0.403-0.279,0.744-0.62,1.085-0.961l1.705-1.768l0.961-0.992v-0.155l-1.55,1.488
			C113.514,110.667,112.677,111.411,112.026,112.248z M112.15,107.07c0,0.031-0.031,0.063-0.031,0.094v0.03
			c0.248-0.248,0.527-0.496,0.775-0.774C112.646,106.636,112.398,106.884,112.15,107.07z M115.684,109.302
			c-1.023,1.055-1.984,2.14-3.101,3.101c-0.124,0.093-0.279,0.248-0.434,0.341l0.124,0.403l1.767-1.892
			C114.599,110.636,115.157,109.985,115.684,109.302z M112.553,114.139c0.124-0.186,0.279-0.341,0.372-0.465
			c0.868-1.147,1.83-2.201,2.759-3.286c-0.713,0.589-1.364,1.24-2.015,1.891l-0.992,1.023l-0.279,0.311
			c0.031,0.123,0.093,0.278,0.124,0.465C112.522,114.078,112.553,114.109,112.553,114.139z M112.553,105.644l-0.093,0.341
			c0.683-0.683,1.396-1.333,2.14-2.046c-0.403,0.341-0.775,0.65-1.147,0.93c-0.155,0.124-0.341,0.248-0.496,0.403L112.553,105.644z
			 M114.351,109.271l-0.186,0.155l-1.395,1.303L114.351,109.271z M115.808,110.822c-0.186,0.248-0.403,0.465-0.62,0.682
			c-0.775,0.931-1.643,1.861-2.325,2.884l1.488-1.333l0.868-0.837l0.465-0.466c0.063-0.03,0.093-0.093,0.155-0.154
			C115.839,111.349,115.808,111.101,115.808,110.822z M113.297,103.628c0,0.063-0.031,0.124-0.062,0.217
			c1.52-1.395,3.069-2.729,4.589-4.123c0.682-0.621,1.426-1.271,2.046-1.984l-0.155,0.03c-1.023,0.931-1.984,1.892-2.977,2.821
			C115.623,101.613,114.444,102.636,113.297,103.628z M113.421,115.751c0-0.031,0-0.062,0.031-0.062c-0.031,0-0.062,0.03-0.062,0.03
			L113.421,115.751z M113.762,116.248c0.093-0.124,0.217-0.217,0.279-0.31l0.775-0.837l-0.93,0.837l-0.217,0.186L113.762,116.248z
			 M113.762,114.418l1.674-1.55c0.187-0.125,0.341-0.311,0.496-0.466l-0.031-0.186l-0.279,0.31
			C115.002,113.147,114.351,113.767,113.762,114.418z M114.072,116.651l0.187,0.248c0.031-0.031,0.031-0.031,0.031-0.062
			c0.434-0.496,0.837-0.992,1.24-1.488l-1.209,1.115L114.072,116.651z M117.111,99.226l-0.124,0.093
			c-0.465,0.31-0.899,0.62-1.488,1.178c-0.279,0.311-0.62,0.714-0.961,1.147c0.372-0.311,0.713-0.62,1.054-0.961L117.111,99.226z
			 M114.754,117.395c0.279-0.279,0.527-0.558,0.775-0.868c-0.279,0.279-0.558,0.559-0.868,0.807
			C114.692,117.364,114.723,117.395,114.754,117.395z M116.521,114.759c-0.434,0.527-0.899,1.055-1.302,1.582
			c0.465-0.435,0.899-0.899,1.364-1.365L116.521,114.759z M117.048,103.876c-0.558,0.62-1.147,1.209-1.736,1.799
			c0.589-0.527,1.116-1.117,1.675-1.644L117.048,103.876z M115.375,117.953l0.124,0.094l0.217-0.248l0.744-0.961L115.375,117.953z
			 M115.653,114.728l0.589-0.558l0.093-0.093l-0.031-0.094C116.087,114.263,115.871,114.48,115.653,114.728z M115.684,109.922
			l0.093-0.093v-0.063L115.684,109.922z M115.901,118.356l0.186,0.124c0.093-0.093,0.155-0.154,0.186-0.217
			c0.248-0.341,0.496-0.682,0.713-1.023l-0.931,0.931L115.901,118.356z M116.615,118.852l0.186-0.248
			c-0.093,0.063-0.155,0.155-0.217,0.218C116.583,118.822,116.615,118.822,116.615,118.852z M117.544,117.085
			c0,0.03-0.031,0.062-0.062,0.093l-0.527,0.774l0.682-0.65l-0.031-0.031C117.607,117.208,117.576,117.147,117.544,117.085z
			 M117.762,119.255c0.093-0.403,0.186-0.807,0.31-1.209l-0.558,0.527l-0.434,0.434c0,0,0,0.031-0.031,0.031L117.762,119.255z
			 M117.235,116.527l-0.031-0.031l-0.124,0.155L117.235,116.527z M121.389,97.334l-0.248,0.248
			c-0.465,0.496-0.961,0.961-1.457,1.396l-1.922,1.984c1.271-1.21,2.574-2.388,3.783-3.659
			C121.482,97.303,121.452,97.303,121.389,97.334z M118.413,118.326c-0.093,0.278-0.186,0.526-0.248,0.806l0.559-0.527
			L118.413,118.326z M118.816,119.596l0.186-0.744l-0.62,0.589L118.816,119.596z M119.219,119.689l0.465-0.465l-0.31-0.186
			c-0.062,0.279-0.155,0.527-0.186,0.65L119.219,119.689L119.219,119.689z M119.715,119.783c0.031,0,0.124,0.031,0.217,0.031v-0.311
			l-0.279,0.248C119.684,119.751,119.715,119.751,119.715,119.783z M120.335,119.472v0.435h0.124l0.341-0.311L120.335,119.472z
			 M121.08,119.844c-0.063,0.031-0.093,0.063-0.124,0.124h0.093C121.048,119.907,121.048,119.875,121.08,119.844z M121.637,119.751
			c-0.062,0-0.093,0-0.155-0.031c0,0.094-0.031,0.155-0.062,0.217h0.062C121.513,119.875,121.576,119.814,121.637,119.751z
			 M122.289,97.179c-0.031,0.031-0.093,0.031-0.124,0.031l-0.341,0.31v0.031l0.217-0.093L122.289,97.179z M122.413,119.844h-0.155
			c0,0,0,0.031-0.031,0.031h0.155L122.413,119.844z M125.73,102.512c0.248-0.403,0.559-0.806,0.837-1.209l-0.744,0.806
			c-0.062,0.063-0.124,0.094-0.155,0.155c0,0.093,0.031,0.155,0.031,0.217C125.73,102.481,125.73,102.512,125.73,102.512z
			 M126.35,100.869c-0.186,0.217-0.341,0.435-0.496,0.651l0.651-0.713L126.35,100.869z M126.226,103.256l0.248-0.279l0.775-0.93
			c-0.341,0.31-0.651,0.651-1.023,0.961l-0.155,0.124L126.226,103.256z M127.498,100.652l-0.403,0.527l-0.961,1.395
			c0.496-0.434,0.961-0.898,1.426-1.363l0.465-0.466C127.87,100.714,127.684,100.652,127.498,100.652z M128.458,101.892
			l-1.612,1.551l-0.093,0.062l0.217,0.062L128.458,101.892z M128.397,103.38l0.093-0.155l0.682-1.209l-1.582,1.581h0.311
			C128.118,103.536,128.273,103.443,128.397,103.38z M128.707,101.117c-0.062-0.062-0.124-0.093-0.186-0.124l-0.187,0.279
			l-0.713,0.899L128.707,101.117z"/>
		<path fill="#91215C" d="M158.221,119.907c-0.094,0.03-0.248-0.031-0.402-0.093c-0.465,0.03-1.116,0.03-1.396,0.062l-0.618,0.031
			c-0.063,0.03-0.095,0.062-0.125,0.062c-0.123,0.031-0.187,0-0.218-0.031l-1.922,0.125c-0.403,0.03-0.838,0.093-1.209,0.154
			c-0.187,0.155-0.403,0.279-0.496,0.094c-0.248,0.062-0.403,0.123-0.403,0.123l-0.435,0.094c-0.619,0.093-1.675,0.65-1.769,0.402
			c-0.123-0.278,0.063-0.341,0.279-0.434c0.031-0.031,0.527-0.186,0.59-0.279c0.031,0,0.311-0.124,0.496-0.589
			c-0.094-0.093,0-0.248,0.123-0.372c0.125-0.372,0.217-0.899,0.156-1.644c0-0.062-0.031-0.124-0.031-0.217l-0.188-1.116
			c-0.062-0.651-0.092-1.364-0.217-2.016c-0.123-0.434-0.371-2.512-0.402-3.225c-0.154-0.154-0.279-0.341-0.342-0.682l0.311-0.372
			c0-0.372-0.031-0.714-0.063-1.271c-0.03-0.62-0.092-1.302-0.154-1.953v-0.063c-0.031-0.093-0.031-0.186-0.031-0.278
			c0-0.248-0.031-0.527-0.063-0.838c-0.092-0.093-0.062-0.154-0.03-0.248l-0.062-0.837c-0.095-0.031-0.125-0.124-0.063-0.248
			c0-0.031,0.03-0.062,0.063-0.124c0-0.124,0-0.248,0.03-0.341c0.062-0.248,0.093-1.24,0.093-1.458l-0.093-1.178
			c-0.03-0.186-0.03-0.341-0.03-0.527l-0.279,0.342c-0.031,0.03-0.063,0.03-0.063,0.062l-0.401,1.023l-0.808,2.356
			c0.031,0.154-0.063,0.465-0.217,0.775l-0.063,0.248c-0.278,0.496-0.311,0.713-0.434,1.115c0.031,0.063,0.031,0.125,0.031,0.218
			l-0.188,0.403c-0.123,0.341-0.371,1.022-0.402,1.271l-0.187,0.341c0.031,0.094-0.03,0.248-0.155,0.373l-0.187,0.619
			c0,0.031,0,0.031-0.031,0.031c0,0.094-0.03,0.155-0.062,0.248l-0.342,1.209c-0.062,0.063-0.092,0.155-0.154,0.279
			c0.031,0.094-0.031,0.187-0.094,0.279l-0.186,0.589c-0.248,0.899-0.465,2.016-0.682,2.821c0.062,0.063,0.093,0.155,0.093,0.248
			c-0.063,0.187-0.155,0.403-0.279,0.59c-0.031,0.031-0.031,0.093-0.031,0.124l-0.31,1.426l-0.187,0.466
			c0.031,0.03,0.063,0.062,0.063,0.093c0.031,0.093-0.031,0.124-0.093,0.186c-0.062,0.093-0.186,0.248-0.341,0.248
			c-0.093,0-0.155-0.03-0.155-0.093c-0.279,0.031-0.651,0.063-1.023,0.063c-0.559,0-1.116-0.063-1.147-0.279
			c-0.031-0.187-0.248-0.62-0.403-0.992c-0.093-0.063-0.155-0.124-0.155-0.248c0-0.031,0-0.063,0.031-0.094
			c-0.062-0.123-0.093-0.248-0.093-0.31c-0.217-0.744-0.62-1.457-0.651-1.612c-0.31-1.396-0.589-1.612-0.837-3.101
			c-0.031-0.248-0.093-0.589-0.186-0.961c-0.062,0-0.124-0.031-0.124-0.093c-0.031-0.094,0-0.155,0.031-0.218l-0.124-0.341
			c-0.124-0.311-0.248-0.744-0.248-1.055c-0.217,0.187-0.341,0.155-0.403,0c-0.031-0.123-0.031-0.278,0.248-0.65
			c-0.062-0.496-0.279-1.147-0.372-1.582c-0.031-0.03-0.031-0.062-0.031-0.093l-0.031-0.03c-0.062-0.094-0.062-0.155-0.031-0.248
			c-0.031-0.155-0.062-0.311-0.062-0.403l-0.217-0.962l-0.124-0.713c-0.062,0-0.093-0.062-0.093-0.154c0-0.031,0-0.063,0.031-0.125
			l-0.124-0.682c-0.124-0.248-0.186-0.682-0.279-1.178c-0.124-0.063-0.124-0.218-0.062-0.403l-0.124-0.931
			c-0.093-0.527-0.155-0.992-0.248-1.146c-0.063-0.248-0.124-0.373-0.187-0.527c-0.031,0.031-0.031,0.062-0.031,0.093l-0.093,0.155
			l-0.093,1.209c0.031,0.031,0.062,0.124,0.062,0.217c-0.031,0.124-0.062,0.248-0.124,0.372l-0.124,1.675v0.031
			c0.031,0.03,0,0.093,0,0.154l-0.031,0.372c-0.093,0.899-0.155,1.21-0.187,1.396c-0.062,0.62-0.124,1.24-0.155,1.953l-0.124,1.736
			c-0.062,0.59-0.093,1.179-0.403,3.349l-0.031,0.063c0.031,0,0.031,0.03,0.031,0.03c0.031,0.063,0.031,0.094,0,0.155
			c0,0.031-0.031,0.093-0.063,0.124c0,0.031,0,0.031-0.031,0.063l-0.062,0.465l0.031,0.031c0,0.093-0.031,0.186-0.031,0.279
			c-0.031,0.062-0.062,0.123-0.062,0.217l-0.186,1.146c-0.031,0.744-0.031,0.869-0.031,0.962c0,0.372,0.031,0.774,0.124,1.178
			c0.124,0.466,0.372,0.899,0.403,1.085c0.372,1.303,2.108,1.582,2.264,1.613c0.186,0.062,0.372,0.123,0.465,0.248
			c0.248,0.062,0.062,0.465-0.186,0.465c-0.155,0-0.341-0.124-0.465-0.187h-0.031c-0.589-0.093-1.736-0.217-2.139-0.248
			l-2.604-0.248c-0.093,0.031-0.187,0-0.217-0.03h-0.093c-0.589-0.031-2.139-0.031-2.79-0.031c-0.311,0-0.372-0.217-0.372-0.311
			c0-0.186,0.124-0.248,0.403-0.279h0.031c0.124,0,0.683,0.031,1.209-0.03c0.279-0.031,0.589-0.124,0.744-0.248
			c0.093-0.093,0.186-0.155,0.279-0.218c0.496-0.496,0.961-1.022,1.488-1.519l0.248-0.403c-0.093-0.093,0.063-0.372,0.124-0.465
			c0.093-0.124,0.187-0.248,0.248-0.372c0.031-0.063,0.063-0.155,0.063-0.218c0-0.062-0.031-0.062-0.063-0.123
			c0-0.218,0.124-0.466,0.217-0.683l0.093-0.651l0.248-1.86v-0.062l0.093-0.496c-0.124-0.124,0-0.403,0.062-0.559l0.124-0.527
			c0-0.186,0-0.371,0.031-0.558c-0.031-0.031-0.031-0.031-0.062-0.031l0.062-0.155l0.093-1.115c0.124-0.621,0.155-1.303,0.186-1.954
			l0.155-1.922c0-0.031-0.031-0.031-0.031-0.063c0-0.093,0.031-0.186,0.062-0.31l0.124-1.334v-0.186
			c-0.186-0.063,0-0.434,0.062-0.559c0,0,0-0.03,0.031-0.03c0-0.093,0-0.187,0.031-0.248c0-0.248,0.031-0.372,0.031-0.466
			l-0.062-0.093c0-0.124,0.062-0.278,0.093-0.403l0.093-0.278v-0.218l0.031-0.65l-0.062-0.683c-0.031,0-0.062-0.03-0.062-0.03
			c-0.062-0.094-0.062-0.187-0.031-0.248c-0.031-0.125-0.062-0.218-0.124-0.279l-0.248-0.217c-0.031,0-0.093,0-0.124-0.063
			c-0.279-0.186-0.558-0.248-0.744-0.311c-0.124-0.03-0.868-0.31-0.93-0.31c-0.124-0.062-0.403-0.155-0.496-0.279
			c-0.341-0.062-0.031-0.496,0.155-0.526c0.124-0.031,0.248,0.03,0.372,0.123c0.031,0,0.062,0,0.124,0.031
			c0.868,0.279,2.326,0.496,2.511,0.527c0.031,0,0.403,0,0.931,0.031c0.031-0.031,0.062-0.063,0.093-0.063
			c0.093-0.031,0.155,0,0.186,0.063h0.713c0.062-0.063,0.155-0.094,0.248-0.063l0.031,0.031h0.217
			c0.651-0.063,1.116-0.124,1.426-0.186c0.031,0,0.031-0.031,0.063-0.031c0.186-0.124,0.372-0.279,0.465-0.124h0.093
			c0.093,0,0.217,0,0.372,0.062c0.124,0.031,0.248,0.124,0.341,0.217c0.031,0.063,0.062,0.125,0.062,0.218
			c0.124,0.03,0.155,0.155,0.093,0.278c0,0.063,0,0.094,0.031,0.155l0.093,0.372c0.155,0.59,0.279,1.396,0.372,1.984
			c0.093,0.063,0.093,0.155,0.063,0.279c0,0.031,0.031,0.063,0.031,0.093l0.155,0.931c0.093,0.062,0.093,0.248,0.063,0.372
			l0.124,0.806c0.031,0.031,0.031,0.063,0.031,0.094v0.062c0.155,0.527,0.248,1.116,0.31,1.644c0,0.031,0.031,0.093,0.031,0.124
			l0.062,0.062c0.063,0.063,0.063,0.155,0.031,0.279c0.124,0.559,0.124,0.899,0.372,1.52l0.031,0.31l0.031,0.031
			c0.031,0.062,0.031,0.124,0,0.187l0.062,0.341l0.31,1.302c0.124,0.527,0.31,1.396,0.496,1.892l0.217,0.744
			c0.062,0.031,0.124,0.093,0.124,0.217c0,0.031,0,0.063-0.031,0.093l0.124,0.373v0.062h0.031c0-0.217,0.279-0.651,0.341-0.744
			c0.031-0.062,0.062-0.155,0.124-0.217l0.093-0.248l0.311-1.023c0-0.062,0.031-0.155,0.062-0.187l0.403-1.24
			c0.094-0.371,0.373-0.898,0.527-1.333c-0.031-0.03-0.063-0.062-0.063-0.124v-0.031c0.094-0.123,0.155-0.248,0.217-0.371
			c0.188-0.527,0.403-1.24,0.651-1.923V104.9l0.063-0.063c0.123-0.372,0.248-0.713,0.371-0.992v-0.062l0.094-0.093
			c0-0.063,0.031-0.125,0.063-0.187c-0.031-0.155-0.063-0.187,0-0.341c0.062-0.094,0.123-0.187,0.154-0.279
			c0.031-0.031,0.063-0.063,0.063-0.124l0.34-1.179l0.248-0.744c0,0-0.03-0.03-0.03-0.062c-0.123-0.124,0-0.341,0.063-0.496
			c0.125-0.31,0.311-0.651,0.496-0.961l0.217-0.589c-0.217-0.125,0.187-0.838,0.187-0.899c0-0.093-0.062-0.124,0-0.248
			c0.03-0.063,0.155-0.155,0.187-0.155c0.154-0.063,0.217-0.031,0.248,0.063h0.34c0.063-0.063,0.125-0.063,0.219-0.063l0.093,0.063
			h1.334c0.154-0.031,0.31-0.031,0.466-0.031c0.063-0.031,0.153-0.063,0.217,0h0.744c0-0.031,0.03-0.031,0.063-0.031h0.123
			c0.59,0,1.24-0.063,1.768-0.124h0.063c0.154-0.031,0.248-0.062,0.371-0.062l1.271-0.279c0.063-0.063,0.156-0.094,0.217-0.094
			c0.188-0.093,0.404-0.217,0.56,0.063c0,0.124-0.312,0.372-0.808,0.589l-0.061,0.063c-0.063,0.062-0.125,0.124-0.219,0.124
			c-0.029,0-0.062,0-0.092-0.031l-0.312,0.124c-0.153,0.124-0.371,0.248-0.496,0.435c-0.123,0.062-0.217,0.186-0.278,0.31
			c0.03,0.031,0.03,0.093,0,0.187c-0.031,0.062-0.123,0.154-0.187,0.217c-0.063,0.124-0.124,0.248-0.154,0.402v0.527l-0.03,0.248
			c-0.095,0.527-0.156,0.899-0.188,1.427c-0.063,0.186-0.063,0.526-0.063,0.899v0.123c0,0.527,0.031,1.055,0.031,1.365
			c-0.094,0.744,0,1.395,0.03,2.015c0.093,0.683,0.124,1.364,0.187,2.077c0,0.279,0.031,0.651,0.031,0.962
			c-0.031,0.124-0.031,0.372,0,0.651c0.03,0.03,0.061,0.062,0.061,0.093c0.063,0.124,0.031,0.248-0.061,0.372
			c0,0.154,0,0.31,0.03,0.434c0,0.031,0.03,0.063,0.03,0.124c0,0.063,0,0.124-0.03,0.187v0.031l0.093,1.022
			c0.094,0.063,0.094,0.218,0.031,0.311l0.217,2.077v0.031c0,0.031,0.031,0.062,0.031,0.124c0,0.03,0,0.093-0.031,0.155
			c0.031,0.619,0.186,1.55,0.248,2.17c0.063,0,0.094,0.063,0.125,0.093c0,0.093,0,0.155-0.063,0.218
			c0.063,0.186,0.093,0.278,0.093,0.371c0.062,0.527,0.31,1.023,0.589,1.334c0.279,0.31,0.496,0.434,0.682,0.465h0.125
			c0.031,0,0.094,0,0.123,0.031c0.125,0,0.559,0.062,0.621,0.062c0.123,0.031,0.217,0.031,0.311,0.093c0-0.03,0.031-0.03,0.062-0.03
			C158.717,119.411,158.469,119.907,158.221,119.907z M132.672,118.852c0.124-0.093,0.217-0.217,0.31-0.341l-0.372,0.341H132.672z
			 M133.509,118.915l0.31,0.03l0.124-0.217l0.372-0.775l-1.054,0.931L133.509,118.915z M133.85,117.208l0.248-0.248v-0.062
			L133.85,117.208z M134.563,118.326l-0.155,0.278l0.186-0.186C134.594,118.387,134.563,118.356,134.563,118.326z M134.935,118.883
			l-0.124-0.155l-0.31,0.279l0.465,0.063C134.966,119.007,134.935,118.945,134.935,118.883z M136.951,98.482
			c-0.062,0.093-0.124,0.186-0.155,0.278l0.279-0.278H136.951z M137.509,98.543l-0.465,0.496l0.031,0.031
			c0.062,0.062,0.062,0.093,0.124,0.217L137.509,98.543z M137.943,98.451l-0.496,1.178l1.364-1.209c-0.124,0-0.279,0-0.403,0.031
			H137.943z M137.974,100.156l1.023-1.426c-0.341,0.31-0.682,0.619-1.023,0.898l-0.465,0.435c0,0.03-0.031,0.03-0.062,0.062
			l0.124,0.559v0.031L137.974,100.156z M139.958,99.349c-0.775,0.714-1.551,1.458-2.232,2.264v0.031
			C138.501,100.9,139.214,100.093,139.958,99.349z M139.4,100.466c-0.527,0.526-1.054,1.146-1.612,1.611l0.063,0.373L139.4,100.466z
			 M138.098,103.536l0.186-0.218c0.496-0.619,1.023-1.209,1.52-1.798l-1.52,1.364l-0.279,0.279l0.093,0.341V103.536z
			 M140.733,101.768l-1.488,1.396l-0.806,0.744l-0.217,0.217l0.124,0.713C139.152,103.845,139.958,102.822,140.733,101.768z
			 M138.532,105.737c0.311-0.372,0.713-0.744,1.055-1.116c-0.341,0.341-0.713,0.713-1.085,0.961L138.532,105.737z M140.268,99.97
			l-1.705,2.139l1.581-1.426c0.248-0.217,0.496-0.403,0.713-0.62l-0.124-0.651L140.268,99.97z M138.656,106.481l0.124,0.589v0.031
			c0.124-0.155,0.279-0.311,0.403-0.496l2.046-2.604C140.331,104.776,139.493,105.644,138.656,106.481z M139.927,98.264
			c-0.062,0-0.093,0-0.155,0.031l-1.054,1.457c0.465-0.434,0.93-0.899,1.426-1.333l0.311-0.248V98.14L139.927,98.264z
			 M141.199,101.83l-0.589,0.714l-1.736,2.232c0.682-0.62,1.333-1.303,1.984-1.954c0.155-0.154,0.279-0.31,0.434-0.434
			L141.199,101.83z M139.586,107.008l-0.589,0.558c-0.031,0-0.031,0.031-0.062,0.063c0,0.031,0.031,0.093,0.031,0.124
			C139.152,107.504,139.369,107.256,139.586,107.008z M141.602,106.14l-1.736,1.705l-0.713,0.682v0.063l0.155,0.527
			C140.051,108.125,140.857,107.132,141.602,106.14z M139.834,109.613l-0.372,0.341v0.062L139.834,109.613z M141.105,105.923
			l-1.519,1.674l1.736-1.705l0.527-0.465l-0.062-0.248L141.105,105.923z M142.16,106.853l-0.155-0.62l-0.558,0.744l-1.86,2.356
			c0.806-0.682,1.519-1.426,2.263-2.14L142.16,106.853z M139.71,110.729c0.775-0.807,1.55-1.644,2.263-2.48
			c-0.775,0.744-1.519,1.55-2.326,2.294C139.679,110.605,139.71,110.667,139.71,110.729z M140.981,100.683l-1.302,1.581
			c0.434-0.435,0.899-0.868,1.364-1.271L140.981,100.683z M139.927,111.628l0.31-0.342l1.582-1.86l-1.706,1.551l-0.279,0.248
			L139.927,111.628z M140.02,112.279c0.031,0.187,0.063,0.342,0.124,0.496c0.031-0.062,0.063-0.093,0.063-0.124
			c0.403-0.558,0.837-1.116,1.271-1.644c-0.434,0.403-0.899,0.838-1.364,1.21C140.083,112.248,140.051,112.279,140.02,112.279z
			 M141.695,104.558c0-0.154-0.031-0.31-0.063-0.496c-0.124,0.187-0.248,0.342-0.403,0.496l-1.116,1.488l1.426-1.302
			L141.695,104.558z M140.423,113.613c0.341-0.403,0.744-0.807,1.116-1.21c-0.372,0.341-0.713,0.683-1.116,0.992
			c0,0.031-0.031,0.031-0.062,0.063L140.423,113.613z M140.703,114.605c0.496-0.559,0.992-1.086,1.457-1.644
			c0.403-0.466,0.806-0.899,1.147-1.427l-0.031-0.093c-0.248,0.217-0.527,0.435-0.775,0.683c-0.589,0.558-1.209,1.178-1.767,1.767
			l-0.186,0.187L140.703,114.605z M140.579,112.775c0.837-0.744,1.612-1.55,2.418-2.294l-0.124-0.62
			C142.098,110.822,141.292,111.783,140.579,112.775z M142.842,113.085c-0.651,0.589-1.24,1.209-1.86,1.829l-0.124,0.155
			l0.093,0.186l0.248-0.279L142.842,113.085z M141.416,103.225l-0.403,0.435c0.093-0.094,0.248-0.217,0.435-0.342L141.416,103.225z
			 M142.656,108.961c-0.465,0.651-0.992,1.24-1.52,1.86l1.52-1.457c0-0.031,0.031-0.063,0.062-0.094v-0.093L142.656,108.961z
			 M141.167,115.72c0.031,0.125,0.062,0.218,0.124,0.342c0.434-0.62,0.93-1.179,1.396-1.768c-0.465,0.465-0.931,0.899-1.396,1.303
			L141.167,115.72z M141.416,116.496c0,0.031,0.031,0.031,0.031,0.063c0.899-0.838,1.736-1.736,2.635-2.574l-0.155-0.526h-0.031
			c-0.279,0.372-0.589,0.713-0.899,1.054C142.47,115.163,141.912,115.814,141.416,116.496z M142.036,116.93
			c0.403-0.559,0.837-1.116,1.271-1.675l-1.582,1.551l-0.155,0.124l0.155,0.372c0,0,0,0.031,0.031,0.063L142.036,116.93z
			 M142.284,107.38l-0.217,0.248l0.248-0.187L142.284,107.38z M142.439,117.798c0.217,0,0.465-0.031,0.651-0.031l0.372-0.682
			c0.031-0.155,0.093-0.342,0.124-0.59l-0.868,0.807l-0.527,0.496H142.439z M142.47,108.249c-0.093,0.093-0.155,0.186-0.217,0.278
			l0.217-0.186V108.249z M142.346,117.147l1.395-1.271l0.217-0.837C143.4,115.751,142.842,116.434,142.346,117.147z
			 M142.749,113.736c0.341-0.278,0.651-0.589,0.961-0.898l-0.031-0.155l-0.093,0.093L142.749,113.736z M143.462,112.031V112
			c-0.062,0.063-0.093,0.125-0.155,0.155C143.338,112.155,143.4,112.093,143.462,112.031z M144.485,112.682l0.031-0.093h-0.031
			V112.682z M150.035,99.164l0.992-0.899c-0.217,0-0.435,0-0.868,0.063l-0.187,0.713C149.973,99.071,150.004,99.101,150.035,99.164z
			 M151.617,99.474l-1.086,1.022l-0.154,0.124c0,0.187,0,0.342,0.03,0.465C150.779,100.528,151.213,100,151.617,99.474z
			 M150.407,104.558l0.124-0.154l1.457-1.582c0.775-0.837,1.551-1.674,2.264-2.573v-0.062c-1.023,0.806-1.953,1.768-2.854,2.666
			l-0.992,1.023C150.377,104.062,150.377,104.31,150.407,104.558z M153.105,98.234c-0.094,0.093-0.156,0.186-0.219,0.278
			l-1.58,1.984l-0.869,1.179l0.03,0.186l0.744-0.65c0.591-0.527,1.179-1.086,1.735-1.675l1.335-1.333
			c-0.343,0-0.651,0.031-0.931,0.031H153.105z M150.5,102.636l0.402-0.434c0.932-0.899,1.83-1.83,2.699-2.76
			c-0.933,0.898-1.83,1.86-2.854,2.666l-0.248,0.187L150.5,102.636L150.5,102.636z M150.5,105.892l0.59-0.559l1.922-1.953
			c-0.838,0.807-1.643,1.644-2.512,2.418V105.892z M150.625,107.349c0.744-0.868,1.52-1.705,2.264-2.543
			c-0.684,0.621-1.334,1.271-2.016,1.923l-0.279,0.31C150.594,107.132,150.625,107.225,150.625,107.349z M151.492,107.349
			l-0.807,0.744v0.217C150.934,107.969,151.244,107.66,151.492,107.349z M150.748,108.993c1.055-0.962,1.984-2.016,3.039-2.977
			l0.279-0.248v-0.187c-0.031-0.154-0.031-0.341-0.031-0.527l-0.063,0.063c-0.714,0.775-1.427,1.551-2.107,2.356
			c-0.373,0.465-0.807,0.931-1.148,1.427C150.748,108.93,150.748,108.961,150.748,108.993z M150.811,110.822v0.063
			c0,0.123,0,0.402,0.031,0.713l0.559-0.713l1.736-2.202c-0.775,0.714-1.52,1.427-2.295,2.108
			C150.811,110.791,150.811,110.791,150.811,110.822z M150.902,112.217l0.063,0.526c0.188-0.278,0.404-0.526,0.59-0.774
			c0.713-0.868,1.426-1.706,2.17-2.543c-0.649,0.589-1.271,1.21-1.891,1.829l-0.838,0.838
			C150.996,112.125,150.934,112.186,150.902,112.217z M152.361,98.264h-0.188l-0.187,0.187l-0.991,1.116L152.361,98.264z
			 M153.91,101.737c-1.021,0.837-1.953,1.799-2.883,2.729c0.992-0.93,2.078-1.829,3.039-2.821
			C153.973,101.675,153.941,101.707,153.91,101.737z M151.09,113.643c0,0.063,0.031,0.124,0.031,0.155l1.271-1.24
			c0.619-0.62,1.239-1.271,1.797-1.922C153.166,111.628,152.205,112.713,151.09,113.643z M152.795,111.101
			c-0.559,0.62-1.086,1.271-1.582,1.922c1.023-0.961,2.016-2.016,3.07-2.977v-0.682L152.795,111.101z M151.213,114.294
			c0,0.093,0.031,0.155,0.031,0.248c0.311-0.372,0.65-0.713,0.961-1.055c0.713-0.744,1.457-1.488,2.171-2.263
			c0,0,0-0.031-0.03-0.031C153.229,112.155,152.268,113.271,151.213,114.294z M151.398,115.845l0.774-0.838
			c-0.248,0.248-0.495,0.527-0.774,0.744V115.845z M152.236,119.441c0.961-0.837,1.768-1.859,2.697-2.729l-0.093-0.65l-1.239,1.209
			c-0.56,0.559-1.148,1.085-1.707,1.612l-0.402,0.31l-0.063,0.435C151.617,119.566,151.896,119.503,152.236,119.441z
			 M154.563,113.054l-1.022,1.055c-0.683,0.713-1.396,1.426-2.047,2.17c0.868-0.62,1.582-1.426,2.325-2.17l0.496-0.527l0.279-0.311
			C154.563,113.209,154.563,113.117,154.563,113.054z M152.174,116.527l0.775-1.023c-0.371,0.342-0.744,0.713-1.146,1.023
			l-0.279,0.217l0.095,0.527L152.174,116.527z M151.646,118.078c0,0.093-0.029,0.186-0.029,0.278l0.371-0.403
			c0.807-0.806,1.613-1.643,2.388-2.48c-0.714,0.651-1.364,1.365-2.077,2.016C152.082,117.674,151.865,117.922,151.646,118.078z
			 M153.818,112.775v-0.062c-0.713,0.651-1.396,1.333-2.078,2.046C152.422,114.109,153.137,113.458,153.818,112.775z
			 M154.035,104.435v-0.373l-0.465,0.527c-0.527,0.62-1.086,1.209-1.613,1.799C152.641,105.768,153.322,105.085,154.035,104.435z
			 M154.686,114.635v-0.341c-0.031-0.124-0.031-0.248-0.031-0.372c-0.122,0.124-0.247,0.248-0.34,0.403l-1.209,1.612
			c-0.278,0.341-0.526,0.682-0.774,1.022l1.858-1.829C154.346,114.946,154.5,114.791,154.686,114.635z M154.252,107.845
			l-0.372,0.465c-0.435,0.59-0.899,1.147-1.333,1.705c0.527-0.496,1.055-1.022,1.643-1.457l0.095-0.062v-0.466L154.252,107.845z
			 M154.128,100.993l-0.341,0.372c0.093-0.062,0.217-0.186,0.341-0.248V100.993z M154.376,119.224l0.496-0.898l-1.022,0.93
			L154.376,119.224z M154.406,111.721l-0.092,0.093c0.031,0,0.062-0.031,0.092-0.063V111.721z M154.717,115.627L154.376,116
			C154.438,115.938,154.594,115.814,154.717,115.627z M155.338,118.48l-0.063-0.093l-0.217,0.372L155.338,118.48z M155.492,119.131
			c0-0.093,0.031-0.155,0.031-0.248c0-0.031,0-0.031-0.031-0.031l-0.342,0.311L155.492,119.131z"/>
		<path fill="#91215C" d="M172.105,95.97h0.031c0.03,0.031,0.063,0.062,0.094,0.062c0.744,0.187,1.487,0.496,2.231,0.931
			c0.31,0.217,0.897,0.589,1.488,1.302c0.092,0.031,0.153,0.124,0.217,0.279c0.217,0.31,0.465,0.683,0.526,0.837
			c0.187,0.465,0.466,1.364,0.466,2.201c0.153,0.094,0.062,0.342-0.063,0.559c-0.063,0.248-0.123,0.465-0.248,0.682l-0.186,0.342
			v0.031l-0.125,0.154c-0.248,0.342-0.527,0.651-0.867,0.868c-0.031,0-0.063,0.031-0.063,0.031
			c-0.125,0.093-0.279,0.217-0.402,0.124c-0.559,0.186-1.18,0.248-1.768,0.124c-0.744-0.187-1.488-0.713-1.736-1.488
			c-0.094-0.062-0.094-0.248-0.063-0.372v-0.124c0-0.341,0.247-0.931,0.434-1.271c-0.031-0.03-0.031-0.093-0.031-0.155
			c0.031-0.123,0.188-0.217,0.248-0.278c0.125-0.124,0.311-0.403,0.496-0.403c0.094,0,0.125,0.031,0.156,0.031
			c0.279-0.124,0.558-0.187,0.836-0.187c0.279,0,0.466,0.063,0.838,0.063c0.154,0,0.311,0.03,0.465,0.124
			c0.154-0.063,0.279-0.031,0.311,0.124c0.123,0.062,0.217,0.124,0.342,0.155c0.029,0,0.029-0.031,0.062-0.063l0.187-0.217
			c-0.029-0.063,0-0.187,0.03-0.311c-0.061-0.279-0.186-0.65-0.37-0.961c-0.744-1.116-1.861-1.86-2.854-2.232
			c-0.466-0.186-0.931-0.403-1.828-0.372c-0.278,0-0.526,0.031-0.774,0.062c-0.063,0.063-0.156,0.063-0.218,0.063l-0.62,0.186
			l-0.744,0.248l-0.063,0.031c-0.155,0.124-0.342,0.342-0.525,0.372c-0.063,0.031-0.125,0.031-0.188,0h-0.03l-0.218,0.124
			c-0.466,0.248-0.962,0.713-1.363,1.271l-0.094,0.124c0.187,0.217-0.218,0.589-0.341,0.744l-0.125,0.155
			c-0.03,0.154-0.063,0.31-0.063,0.496c0,0.217-0.029,0.372-0.092,0.527c0.031,0,0.031,0.03,0.031,0.03
			c0.061,0.093,0,0.218-0.063,0.311c0,0.155,0.031,0.278,0.154,0.465c0.278,0.899,1.086,1.798,1.923,2.512
			c0.155,0,0.219,0.093,0.219,0.186c0.465,0.372,0.897,0.683,1.239,0.931c0.435,0.31,1.61,0.837,2.572,1.333
			c0.063,0,0.155,0,0.187,0.093c0.496,0.279,0.963,0.527,1.18,0.713l1.24,0.59c0.186,0.093,0.34,0.154,0.465,0.248
			c0.123,0,0.217,0.031,0.217,0.154l0.248,0.187c0.031,0,0.063,0.031,0.094,0.031c0.061,0.03,0.092,0.062,0.092,0.124l0.59,0.496
			c0.063,0,0.094,0.031,0.094,0.093c0.248-0.217,0.371-0.187,0.435-0.031c0,0.093,0.03,0.187-0.063,0.372l0.898,0.775
			c0.125,0,0.218,0.093,0.218,0.217v0.031c0.062,0.031,0.093,0.093,0.155,0.155c0.031,0,0.031,0.03,0.063,0.062l0.062,0.063
			c0.218,0.248,0.373,0.465,0.496,0.682c0.03,0.063,0.094,0.094,0.063,0.187c0.248,0.496,0.373,1.022,0.465,1.705
			c0,0.527-0.187,1.302-0.371,1.892c0,0-0.031,0-0.031,0.031c0.093,0.062,0.093,0.217,0.031,0.341
			c-0.156,0.31-0.436,0.558-0.684,0.806l-0.277,0.403h-0.031c0.031,0.031,0.031,0.093,0.031,0.155
			c-0.031,0.093-0.094,0.093-0.188,0.124c-0.123,0.093-0.217,0.217-0.31,0.31c-0.278,0.279-0.526,0.559-0.807,0.807
			c-0.094,0.093-0.217,0.248-0.373,0.248c-0.061,0-0.123,0-0.154-0.031l-0.649,0.465l-0.621,0.311
			c-0.093,0.093-0.217,0.217-0.341,0.248c-0.03,0.031-0.063,0.031-0.094,0.031c-0.063,0-0.094,0-0.125-0.031
			c-0.496,0.217-0.897,0.341-1.084,0.434l-0.373,0.094c-0.062,0.062-0.153,0.093-0.217,0.123c-0.093,0.063-0.186,0.094-0.279,0.094
			c-0.092,0-0.217-0.031-0.37-0.063l-1.271,0.217h-0.031c-0.063,0.031-0.094,0.031-0.125,0.031h-0.062
			c-0.465,0.094-0.931,0.124-1.303,0.124c-0.897,0-1.552-0.155-1.705-0.186c-0.961-0.093-1.922-0.62-2.884-1.21l-0.963-0.65
			c-0.309-0.248-0.991-0.435-1.239-0.435h-0.248c0,0.031-0.03,0.031-0.062,0.031c-0.031,0.031-0.063,0.031-0.094,0
			c-0.063,0.031-0.124,0.062-0.186,0.062l-0.869,0.807l-0.496,0.434c-0.031,0.031-0.063,0.063-0.063,0.094
			c-0.217,0.372-0.31,0.465-0.65,0.434c-0.279-0.062-0.031-0.713,0.248-1.333c0.125-0.279,0.496-1.364,0.898-2.48v-0.031
			c-0.154-0.155,0.03-0.31,0.125-0.434l0.063-0.093l0.186-0.527l0.094-0.435c-0.125-0.093-0.03-0.278,0-0.403
			c0.062-0.062,0.093-0.154,0.123-0.248c0.063-0.248,0.095-0.496,0.156-0.65c0.029-0.094,0.123-0.62,0.277-1.209l0.094-0.466
			c-0.031-0.03-0.031-0.062-0.031-0.093c0-0.155,0.063-0.341,0.094-0.496c0.031-0.124,0-0.341,0.154-0.403
			c0.094-0.062,0.155-0.062,0.187,0c0.063-0.03,0.094-0.03,0.188,0c0.34,0.031,0.217,0.651,0.217,1.364
			c0,0.992,0.31,2.419,0.526,3.721c0.187,1.023,0.806,1.83,1.302,2.449c0.094,0.125,0.684,0.559,0.838,0.651
			c0.186,0.155,0.311,0.248,0.465,0.341c0.094,0,0.154,0.031,0.248,0.094l0.154,0.093l0.094,0.062h0.031v0.031
			c0.03,0,0.063-0.031,0.063-0.062c0.154,0,0.186,0.03,0.311,0.124c0,0,0.029,0,0.029,0.031c0.094,0,0.156,0.03,0.248,0.062
			c0.125,0,0.218,0.031,0.342,0.062c0.094-0.03,0.154-0.03,0.217,0.063c0.063,0,0.125,0,0.187,0.031c0.155-0.124,0.342,0,0.56,0.062
			c0.094,0,0.217,0.031,0.372,0.031c0.154,0,1.146-0.031,2.107-0.187c0.063-0.062,0.155-0.093,0.247-0.123
			c0.031,0,0.125,0.03,0.187,0.062c0.621-0.124,1.8-0.558,2.544-1.396c0.372-0.341,0.807-1.178,0.807-1.705
			c0.031-0.775-0.063-0.868-0.621-2.201l-0.154-0.187c-0.063-0.03-0.094-0.093-0.094-0.155l-0.465-0.589
			c-0.092-0.03-0.154-0.093-0.154-0.186l-0.155-0.218l-0.03-0.03c-0.496-0.559-1.055-0.62-1.799-1.179l-0.311-0.124
			c-0.682-0.651-1.178-0.868-1.674-1.147c-0.063,0-0.094,0-0.155-0.062c0-0.031-0.03-0.031-0.03-0.031
			c-0.962-0.465-2.016-0.899-3.07-1.488h-0.03c-0.123,0-0.187-0.062-0.218-0.155l-0.401-0.248h-0.063
			c-0.125,0-0.154-0.063-0.154-0.123c-0.403-0.248-0.774-0.527-1.116-0.838c-0.063,0.031-0.154,0-0.218-0.062
			c-0.03-0.031-0.03-0.093-0.03-0.155l-0.248-0.217c-1.022-0.992-1.304-1.644-1.799-2.822c-0.093-0.341-0.154-0.713-0.154-1.085
			c0-0.526,0.063-1.022,0.187-1.519c-0.031-0.063-0.063-0.125-0.031-0.187c0.031-0.062,0.063-0.124,0.125-0.155
			c0-0.093,0.031-0.186,0.063-0.248c0.029-0.186,0.123-0.402,0.248-0.65v-0.031l0.092-0.124c0.248-0.435,0.59-0.962,0.931-1.396
			c-0.03-0.031-0.03-0.063-0.03-0.093c-0.029-0.187,0.188-0.218,0.278-0.279c0.312-0.187,0.59-0.558,0.838-0.806
			c0.124-0.187,0.248-0.187,0.342-0.094l0.588-0.434c0.279-0.217,0.591-0.372,0.962-0.527c0.125-0.124,0.278-0.248,0.403-0.279
			c0.092-0.031,0.153-0.062,0.217-0.031l0.063,0.063c0.186-0.093,0.371-0.155,0.619-0.217l0.217-0.094
			c0.063-0.03,0.125-0.093,0.188-0.062h0.061c0.466-0.155,0.9-0.248,1.396-0.31c0.557-0.125,1.115-0.155,1.674-0.155
			c0.465,0,0.93,0.03,1.396,0.124c0-0.031,0.03-0.031,0.03-0.031C171.951,95.876,172.014,95.908,172.105,95.97z M161.967,116.031
			l0.094-0.093l-0.063-0.403c-0.311,0.465-0.65,0.899-0.992,1.333c0,0.063-0.031,0.093-0.063,0.155L161.967,116.031z
			 M161.688,117.582l0.621-0.559c-0.031-0.031-0.031-0.063-0.031-0.063l-0.125-0.402l-0.37,0.465l-0.527,0.682
			C161.408,117.643,161.564,117.582,161.688,117.582z M161.348,115.751v0.031l0.062-0.093L161.348,115.751z M161.688,114.853
			c0.063-0.094,0.125-0.125,0.217-0.218v-0.155L161.688,114.853z M161.75,113.736l0.123-0.093c0-0.062,0-0.155-0.03-0.217
			c0,0.031-0.03,0.062-0.062,0.093C161.781,113.613,161.781,113.674,161.75,113.736z M163.145,102.203
			c-0.434,0.402-0.867,0.867-1.362,1.209v0.372C162.215,103.225,162.711,102.729,163.145,102.203z M162.091,101.458v0.093
			c-0.093,0.31-0.187,0.651-0.218,0.992c0.031-0.063,0.094-0.124,0.156-0.187c0.34-0.31,0.682-0.65,0.992-0.992
			c0.713-0.713,1.426-1.457,2.106-2.201l0.435-0.682c0.155-0.248,0.559-0.59,0.963-0.899l0.277-0.341c-0.029,0-0.062,0-0.093,0.03
			l-3.44,3.132L162.091,101.458z M161.967,104.465l0.124,0.311c0.435-0.683,1.022-1.271,1.55-1.892l-1.457,1.364
			C162.121,104.31,162.029,104.373,161.967,104.465z M162.309,117.705l0.435,0.187l-0.063-0.187l-0.154-0.248L162.309,117.705z
			 M162.68,105.861c0,0,0-0.031,0.031-0.031l0.775-0.806c0.527-0.527,1.055-1.055,1.52-1.644c-0.652,0.589-1.271,1.178-1.893,1.799
			c-0.187,0.154-0.34,0.341-0.526,0.526L162.68,105.861z M164.881,102.016l-0.465,0.527c-0.589,0.682-1.209,1.396-1.768,2.14
			c0.744-0.744,1.457-1.52,2.231-2.232l0.125-0.094c-0.063-0.093-0.094-0.217-0.125-0.31L164.881,102.016L164.881,102.016z
			 M164.695,101.055l-1.83,2.046c0.559-0.527,1.086-1.054,1.645-1.55c0.063-0.063,0.123-0.124,0.186-0.155V101.055L164.695,101.055z
			 M162.896,106.202l0.094,0.093c0-0.03,0-0.03,0.031-0.03l0.588-0.714l-0.683,0.621L162.896,106.202z M163.331,106.667
			c0.062,0.03,0.093,0.093,0.155,0.154l0.186,0.187l0.65-0.807c0.527-0.651,1.055-1.302,1.52-2.015
			c-0.773,0.806-1.52,1.705-2.418,2.387L163.331,106.667z M164.075,107.349l0.743-0.744l1.459-1.581
			c-0.652,0.526-1.211,1.116-1.799,1.705c-0.156,0.187-0.312,0.372-0.496,0.527L164.075,107.349z M164.51,107.66l0.371,0.278
			l0.248-0.372l1.055-1.488l-1.395,1.364L164.51,107.66z M164.85,100.032l-0.217,0.217l0.217-0.186V100.032z M165.813,103.66
			l-0.188,0.186l-0.496,0.559l0.713-0.713L165.813,103.66z M165.502,108.31l0.402-0.527l-0.496,0.466L165.502,108.31z
			 M167.796,105.489c-0.155-0.124-0.31-0.217-0.466-0.372c0,0.031-0.03,0.063-0.03,0.063c-0.589,0.806-1.179,1.611-1.735,2.418
			C166.309,106.884,167.021,106.171,167.796,105.489z M166.309,104.217c-0.156,0.248-0.342,0.496-0.526,0.714
			c0.217-0.187,0.434-0.403,0.682-0.559C166.432,104.31,166.369,104.249,166.309,104.217z M166.029,108.589l0.496,0.248
			c0,0,0-0.031,0.029-0.031c0.125-0.248,0.278-0.465,0.403-0.682l1.179-1.582C167.424,107.194,166.742,107.908,166.029,108.589z
			 M168.199,105.768l-1.334,1.457c0.496-0.465,0.961-0.931,1.488-1.364L168.199,105.768z M168.881,106.202
			c-0.154,0.187-0.311,0.372-0.434,0.559c-0.496,0.651-0.992,1.302-1.426,1.984l1.828-1.675l0.59-0.527L168.881,106.202z
			 M167.672,109.396c0.372-0.651,0.807-1.271,1.24-1.861c-0.465,0.403-0.93,0.807-1.364,1.24l-0.435,0.373
			C167.3,109.241,167.486,109.333,167.672,109.396z M170.432,107.07l-0.559-0.31c-0.186,0.31-0.402,0.589-0.619,0.899l-1.055,1.581
			l1.52-1.364l0.836-0.744C170.523,107.101,170.463,107.07,170.432,107.07z M168.881,109.83c-0.031,0.031-0.093,0.063-0.123,0.124
			h0.03L168.881,109.83z M169.779,110.511c0.125-0.278,0.342-0.558,0.496-0.774l1.055-1.458c-0.65,0.59-1.303,1.24-1.953,1.892
			l-0.063,0.063C169.471,110.326,169.625,110.388,169.779,110.511z M171.33,107.504c-0.496,0.526-0.93,1.054-1.395,1.581
			c0.496-0.465,0.992-0.961,1.52-1.396l0.092-0.093L171.33,107.504z M172.105,107.908l-0.154,0.154l-0.744,1.023
			c-0.373,0.496-0.775,1.023-1.055,1.581c0.527-0.465,1.022-1.022,1.52-1.55c0.279-0.311,0.559-0.62,0.867-0.899
			C172.447,108.125,172.291,108.031,172.105,107.908z M171.082,110.263c-0.217,0.218-0.434,0.466-0.682,0.683l0.154,0.093
			c0,0,0-0.031,0.03-0.031C170.742,110.759,170.896,110.511,171.082,110.263z M172.943,108.589l-0.869,1.023
			c-0.402,0.496-0.836,1.023-1.178,1.581c0.93-0.713,1.735-1.581,2.512-2.419l0.123-0.093l-0.465-0.217L172.943,108.589z
			 M172.509,112.217c0.03-0.031,0.03-0.031,0.03-0.063c0.684-0.774,1.334-1.581,1.924-2.418l-1.645,1.488
			c-0.248,0.217-0.496,0.465-0.775,0.682C172.199,112,172.354,112.093,172.509,112.217z M172.479,102.574
			c0.34-0.434,0.744-0.837,1.115-1.271c-0.371,0.372-0.744,0.713-1.085,1.085l-0.093,0.093v0.155L172.479,102.574z M174.09,101.675
			l-1.115,1.116l-0.311,0.403l0.063,0.062C173.16,102.729,173.625,102.203,174.09,101.675z M172.757,101.613
			c0-0.031,0.03-0.031,0.062-0.062C172.787,101.582,172.757,101.582,172.757,101.613z M173.811,111.473l-0.649,0.651
			c-0.095,0.093-0.218,0.217-0.312,0.371L173.811,111.473z M174.369,109.148l-0.248,0.278c-0.372,0.341-0.713,0.714-1.055,1.085
			c0.465-0.434,0.931-0.867,1.427-1.271L174.369,109.148z M173.719,113.55l1.146-1.52c-0.434,0.465-0.868,0.899-1.334,1.303
			L173.719,113.55z M173.904,108.869v-0.031l-0.217,0.248L173.904,108.869z M174.275,103.752l0.156-0.248l0.93-1.24
			c-0.527,0.527-1.086,1.085-1.582,1.488C173.936,103.784,174.09,103.784,174.275,103.752z M174.771,118.418l0.869-0.868
			c0.618-0.651,1.239-1.303,1.828-1.984c-1.21,1.178-2.388,2.387-3.658,3.504l0.774-0.496L174.771,118.418z M174.059,114.015
			c0.56-0.65,1.209-1.24,1.799-1.86l-1.859,1.768L174.059,114.015z M174.121,102.233c0.372-0.341,0.744-0.713,1.115-1.022
			c-0.062-0.031-0.092-0.063-0.154-0.063l-0.217,0.217L174.121,102.233z M174.493,114.883l0.435-0.465l1.457-1.736
			c-0.559,0.527-1.086,1.054-1.644,1.52c-0.124,0.093-0.248,0.248-0.403,0.341l0.094,0.186
			C174.463,114.791,174.463,114.853,174.493,114.883z M175.02,109.644l-0.434,0.558c0.155-0.124,0.342-0.31,0.527-0.496
			l-0.063-0.031L175.02,109.644z M177.811,114.698l0.094-0.466c-0.961,0.931-1.952,1.892-3.008,2.76
			c-0.03,0.217-0.094,0.496-0.186,0.744l2.324-2.264L177.811,114.698z M176.105,101.923c-0.402,0.558-0.838,1.116-1.271,1.674
			l1.055-0.992l0.279-0.279C176.168,102.203,176.168,102.047,176.105,101.923z M175.02,115.938l1.582-1.736
			c-0.59,0.558-1.146,1.147-1.705,1.767v0.094L175.02,115.938z M176.291,110.759c-0.063,0.125-0.154,0.218-0.248,0.311l-1.023,1.396
			c0.496-0.496,1.023-0.992,1.551-1.427L176.291,110.759z M175.393,116.062c0.713-0.62,1.396-1.271,2.078-1.923l0.465-0.465
			c0.03-0.031,0.03-0.031,0.062-0.031c-0.03-0.124-0.062-0.217-0.062-0.31c-0.063,0.062-0.125,0.093-0.156,0.154
			C176.975,114.326,176.168,115.194,175.393,116.062z M176.756,111.783l-0.277,0.279C176.57,112,176.664,111.876,176.756,111.783z
			 M177.408,111.969l-0.156,0.217l-0.682,0.868c0.311-0.311,0.59-0.589,0.93-0.868v-0.031L177.408,111.969z M177.066,111.473h-0.031
			l-0.154,0.186l0.123-0.124C177.035,111.535,177.035,111.503,177.066,111.473z M177.718,112.651
			c-0.124,0.124-0.247,0.218-0.341,0.341l0.341-0.31V112.651z"/>
	</g>
</g>
</svg>
