<?xml version="1.0" encoding="utf-8"?>
<!-- Generator: Adobe Illustrator 15.1.0, SVG Export Plug-In . SVG Version: 6.00 Build 0)  -->
<!DOCTYPE svg PUBLIC "-//W3C//DTD SVG 1.0//EN" "http://www.w3.org/TR/2001/REC-SVG-20010904/DTD/svg10.dtd">
<svg version="1.0" id="Calque_1" xmlns="http://www.w3.org/2000/svg" xmlns:xlink="http://www.w3.org/1999/xlink" x="0px" y="0px"
	 width="290px" height="290px" viewBox="0 0 290 290" enable-background="new 0 0 290 290" xml:space="preserve">
<g>
	<g>
		<path fill="#77CEE5" d="M271.415,151.104c-5.442-1.963-11.749-3.166-15.575-7.581c-0.102-5.144-0.551-10.198-1.33-15.146
			c6.688-1.203,9.771-6.723,13.561-12.016c2.904-4.061,8.871-8.438,17.691-10.365c-6.718-4.584-14.58-6.594-20.967-6.594
			c-0.703,0-1.391,0.025-2.057,0.072c-3.282,0.239-6.723,0.82-10.049,0.82c-2.508,0-4.953-0.33-7.225-1.386
			c-2.171-4.624-4.652-9.072-7.418-13.317c5.623-3.818,6.195-10.115,7.504-16.494c1.002-4.893,4.674-11.315,11.947-16.666
			c-2.24-0.408-4.482-0.594-6.68-0.594c-6.502,0-12.582,1.635-17.006,4.002c-5.033,2.692-10.068,6.513-15.807,6.513
			c-0.078,0-0.158-0.009-0.236-0.011c-3.83-3.318-7.896-6.371-12.16-9.144c3.582-5.777,1.543-11.761,0.145-18.119
			c-1.07-4.876-0.332-12.238,4.137-20.085c-8.775,2.141-16.133,7.45-20.25,12.746c-3.541,4.561-6.629,10.168-11.99,12.451
			c-4.816-1.46-9.773-2.602-14.848-3.396c0.922-6.732-3.378-11.369-7.24-16.608c-2.961-4.017-5.28-11.044-4.39-20.031
			c-7.146,5.526-11.709,13.37-13.315,19.883c-1.384,5.613-1.92,11.999-5.899,16.268c-5.097,0.63-10.084,1.612-14.938,2.913
			c-1.898-6.521-7.708-9.008-13.364-12.222c-4.343-2.465-9.318-7.94-12.159-16.513c-4.281,7.955-5.26,16.975-4.079,23.58
			c1.02,5.688,3.125,11.735,1.23,17.25c-4.357,2.636-8.514,5.567-12.449,8.766c-4.389-5.201-10.713-5.111-17.196-5.748
			c-4.968-0.486-11.74-3.463-17.824-10.139c-0.675,9.008,2.1,17.646,5.866,23.199c3.248,4.784,7.638,9.459,8.142,15.275
			c-2.894,4.145-5.514,8.494-7.825,13.027c-1.953-0.943-3.865-1.315-5.767-1.315c-4.058,0-8.059,1.687-12.264,3.085
			c-1.898,0.633-4.225,1.018-6.864,1.018c-3.945,0-8.588-0.857-13.544-3.029c3.048,8.503,9.096,15.267,14.795,18.807
			c4.91,3.048,10.815,5.533,13.645,10.632c-0.941,4.929-1.562,9.974-1.826,15.11c-0.148-0.005-0.306-0.021-0.454-0.021
			c-6.538,0-10.614,4.664-15.316,8.958c-3.686,3.367-10.432,6.406-19.462,6.461c6.243,6.529,14.521,10.248,21.165,11.164
			c5.72,0.787,12.118,0.658,16.775,4.152c1.159,4.996,2.663,9.857,4.477,14.566c-6.284,2.57-8.151,8.607-10.754,14.568
			c-1.999,4.575-6.924,10.098-15.152,13.817c4.833,1.981,9.907,2.826,14.572,2.826c3.403,0,6.586-0.448,9.304-1.235
			c4.531-1.314,9.23-3.382,13.896-3.382c1.053,0,2.103,0.114,3.149,0.356c3.07,4.05,6.409,7.884,9.998,11.467
			c-4.712,4.906-3.96,11.188-3.916,17.699c0.035,4.99-2.217,12.039-8.223,18.785c9.029-0.271,17.333-3.933,22.46-8.258
			c4.413-3.727,8.596-8.578,14.316-9.695c4.427,2.449,9.042,4.599,13.814,6.429c-2.294,6.39,0.942,11.815,3.631,17.741
			c2.063,4.545,2.871,11.899,0.13,20.506c8.139-3.922,14.233-10.641,17.159-16.68c2.521-5.207,4.375-11.35,9.164-14.692
			c3.086,0.258,6.206,0.399,9.358,0.399c1.962,0,3.91-0.055,5.848-0.154c0.494,6.783,5.662,10.429,10.532,14.751
			c3.734,3.315,7.464,9.704,8.46,18.681c5.84-6.893,8.674-15.513,8.891-22.218c0.186-5.771-0.613-12.116,2.375-17.117
			c4.838-1.674,9.519-3.67,14.02-5.973c3.215,5.979,9.411,7.206,15.616,9.172c4.758,1.508,10.765,5.827,15.325,13.625
			c2.531-8.669,1.613-17.699-0.916-23.912c-2.184-5.358-5.51-10.851-4.785-16.647c3.693-3.463,7.154-7.181,10.346-11.121
			c2.857,2.226,5.942,2.867,9.182,2.867c2.846,0,5.812-0.49,8.84-0.832c0.638-0.07,1.312-0.108,2.02-0.108
			c4.805,0,11.127,1.731,17.523,6.321c-1.213-8.949-5.723-16.824-10.561-21.474c-4.166-3.996-9.412-7.649-11.128-13.213
			c1.966-4.651,3.615-9.47,4.935-14.422c1.08,0.265,2.125,0.401,3.129,0.401c5.144,0,9.443-3.112,14.139-5.865
			c3.01-1.768,7.441-3.065,12.859-3.065c2.336,0,4.854,0.242,7.521,0.793C285.049,158.74,277.727,153.382,271.415,151.104z"/>
		<path fill="#77CEE5" d="M273.671,149.223c0.036-1.171,0.062-2.344,0.062-3.522c0-9.742-1.111-19.225-3.183-28.348
			c-0.134,0.169-0.267,0.336-0.39,0.507c-0.209,0.292-0.411,0.581-0.614,0.872c1.892,8.695,2.901,17.716,2.901,26.969
			c0,1.014-0.021,2.021-0.049,3.028C272.826,148.885,273.25,149.049,273.671,149.223z"/>
		<path fill="#77CEE5" d="M61.248,241.42c-0.003-0.395-0.012-0.783-0.019-1.172c-7.478-6.684-14.162-14.234-19.892-22.499
			c-0.428,0.122-0.883,0.221-1.329,0.329c6.064,8.818,13.201,16.842,21.224,23.883C61.238,241.779,61.25,241.598,61.248,241.42z"/>
		<path fill="#77CEE5" d="M107.019,266.48c-9.677-3.102-18.845-7.33-27.36-12.539c-0.346,0.291-0.702,0.574-1.066,0.854
			c9.03,5.568,18.798,10.041,29.122,13.249c-0.079-0.193-0.154-0.393-0.239-0.579C107.325,267.134,107.171,266.811,107.019,266.48z"
			/>
		<path fill="#77CEE5" d="M209.507,255.199c-8.604,5.039-17.849,9.093-27.583,12.007c-0.018,0.452-0.041,0.907-0.078,1.364
			c10.373-3.062,20.193-7.405,29.293-12.846c-0.185-0.064-0.365-0.138-0.547-0.193C210.229,255.415,209.87,255.309,209.507,255.199z
			"/>
		<path fill="#77CEE5" d="M248.493,219.754c-5.884,8.148-12.706,15.572-20.315,22.112c0.172,0.421,0.33,0.847,0.485,1.278
			c8.12-6.929,15.356-14.851,21.54-23.576c-0.188,0.013-0.376,0.024-0.557,0.045C249.26,219.656,248.878,219.707,248.493,219.754z"
			/>
		<path fill="#77CEE5" d="M260.195,200.014c0.324,0.313,0.643,0.637,0.957,0.969c4.582-9.537,8.016-19.719,10.123-30.375
			c-0.201,0.106-0.395,0.211-0.559,0.309c-0.314,0.186-0.621,0.372-0.931,0.559C267.716,181.465,264.473,191.027,260.195,200.014z"
			/>
		<path fill="#77CEE5" d="M159.482,271.745c-4.553,0.496-9.17,0.771-13.854,0.771c-5.511,0-10.932-0.377-16.258-1.063
			c-0.199,0.407-0.407,0.813-0.627,1.217c5.528,0.731,11.16,1.132,16.885,1.132c5.122,0,10.165-0.32,15.13-0.906
			c-0.151-0.146-0.302-0.297-0.458-0.437C160.027,272.217,159.756,271.982,159.482,271.745z"/>
		<path fill="#77CEE5" d="M158.293,19.537c10.198,1.015,20.043,3.234,29.395,6.531c0.275-0.357,0.563-0.709,0.861-1.057
			c-9.921-3.538-20.4-5.885-31.27-6.869c0.115,0.174,0.232,0.352,0.354,0.518C157.854,18.955,158.072,19.244,158.293,19.537z"/>
		<path fill="#77CEE5" d="M248.068,69.613c-0.078,0.381-0.147,0.76-0.223,1.141c5.92,8.049,10.906,16.818,14.813,26.152
			c0.446-0.03,0.911-0.037,1.375-0.049c-4.123-9.952-9.466-19.271-15.835-27.779C248.154,69.254,248.104,69.436,248.068,69.613z"/>
		<path fill="#77CEE5" d="M105.875,25.29c9.405-3.114,19.289-5.151,29.516-5.974c0.108-0.439,0.227-0.877,0.358-1.314
			c-10.887,0.834-21.395,3.034-31.358,6.432c0.18,0.111,0.355,0.224,0.535,0.327C105.242,24.941,105.559,25.113,105.875,25.29z"/>
		<path fill="#77CEE5" d="M29.609,198.822c0.15-0.342,0.292-0.682,0.435-1.021c-4.099-9.059-7.167-18.674-9.047-28.709
			c-0.447-0.063-0.895-0.135-1.343-0.217c1.961,10.686,5.248,20.912,9.692,30.5C29.436,199.191,29.53,199.006,29.609,198.822z"/>
		<path fill="#77CEE5" d="M208.268,34.527c0.08,0.371,0.168,0.736,0.252,1.104c8.746,5.017,16.838,11.039,24.119,17.919
			c0.397-0.211,0.818-0.404,1.229-0.6c-7.72-7.353-16.351-13.752-25.709-19.01C208.191,34.137,208.227,34.334,208.268,34.527z"/>
		<path fill="#77CEE5" d="M60.433,51.878c7.405-6.731,15.603-12.599,24.442-17.445c-0.079-0.445-0.148-0.896-0.208-1.348
			c-9.424,5.12-18.137,11.386-25.951,18.616c0.179,0.023,0.36,0.055,0.539,0.07C59.649,51.811,60.039,51.844,60.433,51.878z"/>
		<path fill="#77CEE5" d="M21.112,115.628c-2.331,9.649-3.583,19.716-3.583,30.071c0,0.586,0.015,1.168,0.024,1.754
			c0.161-0.139,0.326-0.271,0.479-0.412c0.267-0.245,0.526-0.49,0.79-0.734c-0.002-0.201-0.007-0.404-0.007-0.606
			c0-10.092,1.204-19.904,3.442-29.321C21.873,116.138,21.492,115.887,21.112,115.628z"/>
		<path fill="#77CEE5" d="M44.884,68.785c-0.253-0.374-0.499-0.758-0.738-1.148c-6.492,8.42-11.953,17.666-16.209,27.553
			c0.192-0.057,0.396-0.103,0.583-0.164c0.349-0.116,0.692-0.236,1.039-0.355C33.645,85.412,38.805,76.732,44.884,68.785z"/>
	</g>
</g>
<g>
	<g>
		<path fill="#91215C" d="M140.309,98.606c-0.063,0.062-0.124,0.154-0.248,0.154c-0.063,0-0.124-0.062-0.217-0.062l-0.217,0.062
			h-0.031c-0.062,0.031-0.093,0.031-0.155,0.031c-0.311,0.063-0.837,0.155-1.333,0.311c-0.093,0.093-0.248,0.248-0.372,0.248
			c-0.062,0-0.124-0.031-0.155-0.063c-0.155,0.063-0.279,0.155-0.403,0.248c-0.496,0.434-0.868,0.744-1.271,1.364l-0.155,0.372
			c0.124,0.186-0.217,0.62-0.279,0.744c-0.031,0.093-0.093,0.155-0.155,0.248c-0.093,0.341-0.217,0.682-0.31,0.899l-0.372,1.054
			c-0.124,0.403-0.31,0.744-0.31,1.271c-0.031,0.124-0.031,0.248-0.155,0.434l-0.589,1.644c0,0.093-0.062,0.187-0.093,0.279
			l-0.124,0.435c0,0.03-0.031,0.062-0.031,0.093l-0.403,1.396l-0.682,2.883c0.031,0.031,0.062,0.094,0.031,0.155
			c0,0.093-0.062,0.187-0.093,0.248l-0.093,0.124c-0.155,0.713-0.341,1.426-0.527,2.047c0.124,0.093-0.031,0.371-0.124,0.526
			l-0.186,0.683c0.062,0.031,0.093,0.124,0.093,0.217c-0.031,0.093-0.155,0.217-0.217,0.341l-0.031,0.031
			c-0.031,0.124-0.124,0.496-0.186,0.899c0.155,0.093,0.031,0.341-0.124,0.589l-0.124,0.496c0,0.062,0,0.093-0.031,0.155
			l-0.031,0.031c-0.093,0.186-0.124,0.341-0.155,0.371c-0.124,0.125-0.62,0.435-1.333,0.403l-0.899-0.062
			c-0.899-0.063-1.271-0.155-1.395-0.155c-0.155,0-0.558-0.279-0.62-0.31c-0.217-0.218-0.279-0.744-0.434-1.117
			c-0.124-0.03-0.186-0.123-0.062-0.341v-0.03l-0.124-1.396l-0.062-0.403c-0.217,0.155-0.31,0.124-0.372-0.031
			c-0.031-0.124-0.031-0.248,0.217-0.589c-0.062-0.248-0.124-0.496-0.155-0.744c-0.062-0.527-0.124-0.806-0.155-1.333l-0.124-1.147
			v-0.062c-0.031-0.248-0.093-0.527-0.217-0.869v-0.402c-0.031,0-0.031-0.031-0.031-0.031c-0.031-0.063,0-0.093,0-0.155
			l-0.248-1.022c-0.093-0.527-0.093-1.086-0.248-1.613l-0.311-0.961l-0.093-0.124c-0.031-0.03-0.031-0.093,0-0.155l-0.031-0.062
			c0-0.062,0-0.124-0.031-0.217c-0.062-0.031-0.124-0.093-0.124-0.187c0-0.031,0.031-0.093,0.062-0.154
			c-0.124-0.559-0.341-1.303-0.465-1.984c0-0.031-0.031-0.031-0.031-0.063c-0.031-0.063-0.031-0.155,0-0.217
			c-0.031-0.094-0.062-0.187-0.062-0.248l-0.093,0.124l-0.403,0.434l-0.217,0.248v0.063c-0.031,0-0.031,0.03-0.031,0.03
			l-0.093,0.559l-0.465,1.52c0,0.062-0.031,0.154-0.062,0.217l-0.093,0.217c0,0.094-0.031,0.187-0.062,0.248
			c0,0.031,0.031,0.063,0,0.124c0,0.124-0.093,0.279-0.155,0.403c-0.248,0.807-0.434,1.581-0.62,2.356
			c0.031,0.062,0.062,0.155,0.031,0.217c-0.031,0.093-0.093,0.187-0.124,0.311l-0.093,0.403c-0.124,0.682-0.372,2.046-0.589,3.038
			c0.031,0.062,0.031,0.187-0.062,0.279c0,0.03-0.031,0.062-0.031,0.093l-0.093,0.248c-0.496,1.829-0.496,2.047-0.744,3.597
			c-0.031,0.217-0.093,0.465-0.217,0.651v0.031c0,0.123-0.093,0.248-0.186,0.31c-0.093,0.031-0.155,0.031-0.217,0h-0.031
			c-0.124,0.031-0.434,0.187-1.085,0.341l-0.248,0.063c-0.063,0.062-0.124,0.093-0.217,0.062h-0.062
			c-0.217,0.031-0.403,0.063-0.589,0.063c-0.063,0.03-0.093,0.062-0.155,0.062s-0.093,0-0.124-0.031
			c-0.403,0.031-0.682-0.03-0.775-0.093c-0.186-0.217-0.403-0.526-0.589-1.022c-0.124-0.496-0.248-1.271-0.434-1.954
			c-0.031-0.03-0.031-0.03-0.062-0.03c-0.093-0.094-0.062-0.187,0-0.279c-0.155-0.744-0.248-1.396-0.31-1.892
			c-0.372-1.675-0.434-2.853-0.961-4.496l-0.093-0.31c0-0.155-0.031-0.279-0.062-0.435l-0.031-0.03
			c-0.093-0.094-0.093-0.187-0.031-0.279c-0.155-0.775-0.403-1.551-0.62-2.201l-0.496-1.675c-0.093-0.062-0.124-0.155-0.093-0.279
			l-0.187-0.589c-0.093-0.031-0.124-0.155-0.093-0.279l-0.279-0.93c-0.155-0.311-0.248-0.559-0.31-0.807
			c-0.124-0.062-0.155-0.154-0.093-0.31l-0.124-0.403l-0.341-0.744l-0.093-0.155c-0.403-0.899-1.426-1.302-1.953-1.426
			c-0.124,0.062-0.217,0.03-0.341-0.063c-0.31-0.062-0.589-0.062-0.713-0.278c-0.31-0.031,0-0.373,0.124-0.496
			c0.124-0.094,0.248-0.063,0.341,0.03h0.744c0.248,0.031,0.868-0.03,1.519-0.124c0.124-0.124,0.248-0.124,0.311-0.031
			c0.682-0.093,1.271-0.186,1.302-0.217h0.063c0.062-0.062,0.124-0.093,0.186-0.124c0.093-0.093,0.248-0.186,0.372-0.093
			l0.063,0.063c0.62-0.125,1.426-0.311,1.488-0.311s0.124-0.031,0.217-0.063l0.124-0.062c0.093-0.062,0.186-0.062,0.248-0.062
			c0.155-0.031,0.31-0.094,0.372-0.125l1.085-0.465c0.311-0.186,0.868-0.589,0.961-0.217c0.062,0.217-0.31,0.589-0.403,0.682
			l-0.527,0.435c-0.124,0.093-0.248,0.217-0.341,0.744v0.279c0,0,0,0.03,0.031,0.03c-0.031,0-0.031,0.031-0.031,0.031
			c-0.031,0.311-0.031,0.59,0.062,0.931l0.217,0.744c0.031,0.03,0.031,0.03,0.031,0.062l0.341,1.086c0.031,0,0.062,0.03,0.093,0.062
			c0.031,0.062,0.031,0.124,0,0.155c0.031,0.031,0.031,0.062,0.031,0.093c0,0.031,0.031,0.093,0.062,0.187v0.093
			c0.031,0.124,0.093,0.248,0.124,0.403c0.155,0.03,0.155,0.123,0.093,0.248c0.063,0.154,0.093,0.31,0.155,0.434
			c0.031,0.031,0.062,0.063,0.093,0.155c0.031,0.03,0.031,0.093,0,0.155c0.063,0.154,0.093,0.278,0.093,0.31l0.279,1.209
			c0.155-0.062,0.217,0,0.279,0.093c0.031,0.125,0.031,0.248-0.124,0.496l0.186,0.651c0.031,0.279,0.093,0.496,0.217,0.744
			c0.093,0.62,0.124,0.62,0.217,0.868c0.062,0.031,0.093,0.155,0.062,0.248c0.031,0.279,0.093,0.683,0.186,1.055
			c0,0.031,0.031,0.093,0.031,0.124c0.062,0.341,0.124,0.62,0.186,0.744c0.248,0.744,0.155,1.209,0.372,1.798l0.187,0.713
			c0,0.031,0.031,0.063,0.031,0.063v0.124l0.186,0.837c0.093,0.031,0.155,0.155,0.124,0.311l0.093,0.31l0.187-0.589
			c0-0.031,0-0.063,0.031-0.093l0.093-0.403l0.093-0.341c-0.186-0.093,0.062-0.589,0.186-0.775l0.248-1.427
			c0.031-0.278,0.186-0.558,0.279-0.867c0-0.031,0.031-0.187,0.063-0.279c0.155-0.496,0.279-1.023,0.403-1.488l-0.062-0.094
			c-0.031-0.123,0.031-0.217,0.093-0.31l0.124-0.155v-0.093c0.063-0.496,0.187-0.961,0.279-1.396l0.465-1.736l0.279-0.93
			c-0.031-0.094,0-0.155,0.062-0.248l0.031-0.187l0.713-3.162c0-0.093,0.062-0.155,0.124-0.279v-0.124
			c0.031-0.063,0.155-0.155,0.217-0.186c0.124-0.094,0.217-0.063,0.279,0c0.31-0.125,0.744-0.279,0.837-0.279
			c0.124,0,0.496-0.094,0.899-0.187c0.062-0.03,0.124-0.03,0.155-0.03l0.837-0.094c0.31,0,0.93,0.155,0.992,0.311
			c0.248,0.341,0.496,1.302,0.651,1.581l0.187,0.868c0.031,0.031,0.031,0.093,0.062,0.155c0.124,0.03,0.124,0.155,0.063,0.278
			c0.124,0.435,0.31,1.055,0.31,1.147c0.155,0.868,0.155,0.899,0.341,1.52l0.558,1.923c0.093,0.526,0.155,1.115,0.248,1.519
			c0.093,0.404,0.279,1.116,0.341,1.458l0.496,3.162c0.031,0.031,0.031,0.093,0.063,0.186c0,0.031-0.031,0.063-0.031,0.125v0.03
			c0,0.031,0.093,0.62,0.155,1.023c0.062,0.093,0.062,0.187,0.031,0.279c0.031,0.062,0.031,0.124,0.031,0.093l0.187,1.023
			c0-0.155,0.155-0.403,0.248-0.559l0.279-1.178c-0.062-0.063-0.062-0.217-0.031-0.311c0.062-0.124,0.124-0.248,0.217-0.372
			c0.279-1.147,0.558-2.14,0.589-2.232c0.031-0.341,0.435-1.705,0.496-2.077l0.311-0.868c0.031-0.093,0.062-0.187,0.124-0.279
			c0.155-0.434,0.31-0.806,0.434-1.271c0.031-0.248,0.217-0.621,0.279-0.899c0.093-0.279,0.217-0.775,0.341-1.116l0.155-0.59
			l0.527-1.581v0.031c0.093-0.31,0.403-1.488,0.124-2.294c-0.063-0.031-0.093-0.094-0.093-0.218l0.031-0.03l-0.155-0.373
			c-0.155,0-0.155-0.123-0.124-0.248l-0.186-0.278c-0.093-0.187-0.589-0.744-0.744-0.899c-0.155-0.155-0.465-0.341-0.527-0.372
			c-0.341-0.187-0.465-0.31-0.527-0.403h-0.031c-0.217-0.124-0.063-0.341,0.093-0.434c0.124-0.063,0.248,0.062,0.372,0.154
			c0.341,0.094,0.837,0.373,1.085,0.435c0.187,0.062,1.055,0.217,1.984,0.403h0.031c0.062,0,0.093,0.031,0.124,0.031
			c0.186,0.062,0.403,0.093,0.62,0.123c0.062-0.03,0.124-0.063,0.217-0.03c0.063,0,0.093,0.062,0.093,0.093l0.496,0.093
			c0.062-0.03,0.124-0.03,0.155-0.062c0.124,0,0.248,0.062,0.279,0.154c0.186,0.031,0.372,0.063,0.465,0.063
			c0.311,0.031,0.899,0.063,1.364,0.031c0.311,0,0.496,0,0.62,0.031c0.063,0,0.155,0.03,0.187,0.154
			C140.587,98.419,140.401,98.512,140.309,98.606z M109.488,99.319c0.031,0.031,0.031,0.031,0.063,0.031v-0.031H109.488z
			 M110.356,99.225c-0.124,0-0.279,0.031-0.403,0.031c-0.031,0.124-0.031,0.248-0.031,0.372c0,0,0,0.031,0.031,0.031L110.356,99.225
			z M110.915,99.969l-0.435,0.373l0.093,0.123C110.667,100.28,110.791,100.125,110.915,99.969z M110.977,101.334
			c0.155-0.187,0.279-0.342,0.341-0.373c0.651-0.744,1.302-1.519,1.922-2.325c-0.713,0.744-1.364,1.551-2.17,2.202l-0.248,0.186
			L110.977,101.334z M111.163,100.249c0.496-0.465,0.961-0.992,1.426-1.488l-0.31,0.063l-0.124,0.031L111.163,100.249z
			 M113.86,98.451c-0.031,0.093-0.093,0.155-0.155,0.217l-0.744,0.899c-0.558,0.713-1.178,1.364-1.736,2.077
			c1.085-0.931,2.108-1.953,3.132-2.945v-0.187c0-0.062,0.031-0.154,0.031-0.217L113.86,98.451z M111.287,102.295l1.488-1.427
			c0.527-0.496,1.054-1.022,1.581-1.581v-0.063c-1.023,0.992-2.016,2.016-3.132,2.884L111.287,102.295z M111.628,102.76l1.674-1.768
			l-1.86,1.705c0,0.063,0.031,0.125,0.062,0.187L111.628,102.76z M113.52,101.583l-1.488,1.519l-0.311,0.341l0.031,0.094
			L113.52,101.583z M111.938,104.217l0.031,0.031l0.248-0.279L111.938,104.217z M112.093,104.682v0.031
			c0.589-0.496,1.147-1.054,1.675-1.612l1.209-1.24l-0.093-0.31C113.953,102.605,112.961,103.597,112.093,104.682z M112.434,105.799
			c0.093-0.094,0.186-0.155,0.248-0.248c0.403-0.403,0.806-0.775,1.178-1.179l-1.457,1.333L112.434,105.799z M112.682,106.543
			l1.333-1.52c-0.403,0.402-0.837,0.775-1.24,1.146l-0.155,0.187L112.682,106.543z M112.992,107.628l0.093,0.278l1.768-2.077
			c-0.589,0.527-1.147,1.085-1.736,1.644C113.116,107.504,113.054,107.566,112.992,107.628z M113.271,108.528
			c0.062-0.125,0.155-0.218,0.248-0.311l-0.279,0.248C113.24,108.465,113.271,108.497,113.271,108.528z M113.55,109.861v-0.031
			c0.465-0.558,0.93-1.116,1.364-1.675c-0.403,0.373-0.775,0.775-1.209,1.147l-0.217,0.218c0,0.093,0.031,0.186,0.031,0.278
			C113.52,109.83,113.52,109.861,113.55,109.861z M113.705,110.387c0.063,0.187,0.124,0.373,0.155,0.559l0.651-0.868
			c0.496-0.683,1.054-1.364,1.581-2.046C115.256,108.776,114.512,109.613,113.705,110.387z M113.829,101.768
			c0.279-0.279,0.559-0.62,0.868-0.868c-0.031-0.031-0.031-0.062-0.031-0.062L113.829,101.768z M114.821,102.823l-0.992,0.992
			C114.17,103.504,114.512,103.164,114.821,102.823z M114.046,111.659l0.124,0.683l0.434-0.527c0.527-0.62,1.054-1.24,1.55-1.892
			c0.279-0.341,0.527-0.682,0.775-1.023v-0.03C115.907,109.706,115.008,110.729,114.046,111.659z M114.294,113.116l0.527-0.558
			c0.589-0.589,1.209-1.179,1.768-1.798c-0.713,0.65-1.396,1.333-2.108,2.015c-0.062,0.031-0.124,0.124-0.217,0.187L114.294,113.116
			z M114.418,113.83c0.372-0.403,0.775-0.775,1.147-1.147c0.496-0.496,1.023-1.023,1.488-1.581l-1.488,1.396
			c-0.279,0.31-0.589,0.589-0.868,0.867l-0.279,0.342V113.83z M115.969,105.085c-0.031,0.063-0.093,0.124-0.155,0.187l-1.302,1.55
			l1.55-1.396L115.969,105.085z M115.597,103.784l-1.054,1.209l1.116-1.023C115.659,103.908,115.628,103.845,115.597,103.784z
			 M115.069,114.015l-0.527,0.466l0.031,0.123C114.729,114.418,114.884,114.202,115.069,114.015z M116.682,107.907L116.589,108
			l-0.651,0.806c-0.465,0.589-0.93,1.179-1.364,1.799c0.713-0.744,1.458-1.52,2.264-2.14l-0.031-0.124
			C116.744,108.186,116.713,108.093,116.682,107.907z M114.729,115.844l0.279-0.371c0.589-0.714,1.209-1.458,1.798-2.232
			c-0.403,0.496-0.868,0.898-1.302,1.363c-0.248,0.279-0.527,0.59-0.837,0.838L114.729,115.844z M114.945,102.698
			c0,0.031-0.062,0.063-0.093,0.094L114.945,102.698z M117.457,113.054c-0.806,0.992-1.612,1.984-2.388,2.977
			c0.62-0.558,1.24-1.147,1.83-1.736c0.341-0.31,0.651-0.651,0.961-0.961c0.031,0,0.031-0.031,0.062-0.031l-0.155-0.62
			L117.457,113.054z M116.775,116.434c0.496-0.59,0.992-1.209,1.458-1.83v-0.03c-0.807,0.651-1.52,1.364-2.264,2.108l-0.868,0.868
			c0.031,0.093,0.062,0.186,0.062,0.278c0.031,0.125,0.062,0.248,0.062,0.373C115.752,117.612,116.279,117.023,116.775,116.434z
			 M116.217,107.132c-0.279,0.341-0.558,0.682-0.806,1.022c0.341-0.31,0.682-0.682,1.085-0.93l-0.093-0.311L116.217,107.132z
			 M118.015,113.767l-0.527,0.559c-0.683,0.682-1.364,1.364-2.016,2.077c0.775-0.744,1.488-1.551,2.264-2.295l0.31-0.278
			L118.015,113.767z M116.093,119.255h0.124c0.124-0.155,0.248-0.31,0.248-0.341c0.496-0.683,1.023-1.334,1.52-1.984
			c-0.683,0.65-1.396,1.271-2.078,1.891c-0.062,0.063-0.186,0.218-0.341,0.342l0.093,0.154
			C115.721,119.317,115.845,119.287,116.093,119.255z M117.085,109.768c-0.031-0.125-0.062-0.218-0.062-0.342l-1.333,1.675
			C116.124,110.667,116.589,110.17,117.085,109.768z M116.186,105.892c-0.031,0-0.031,0.03-0.031,0.03
			S116.186,105.922,116.186,105.892z M118.387,115.039c-0.558,0.744-1.178,1.457-1.767,2.14c0.62-0.559,1.271-1.147,1.891-1.768
			L118.387,115.039z M117.457,111.287l-0.744,0.744l0.744-0.682V111.287z M118.48,117.519c0.031-0.279,0.062-0.496,0.124-0.744
			l-0.372,0.465c-0.435,0.527-0.837,1.055-1.24,1.612L118.48,117.519z M117.054,112.434c0.155-0.155,0.279-0.248,0.465-0.372
			c0-0.031,0.031-0.031,0.062-0.062c-0.031-0.031-0.031-0.063-0.031-0.094L117.054,112.434z M122.976,103.38
			c-0.093-0.217-0.155-0.279-0.155-0.31l-0.031-0.094c-0.031,0-0.062,0.031-0.093,0.063c-0.031,0.279-0.093,0.558-0.155,0.837
			C122.666,103.69,122.821,103.536,122.976,103.38z M123.999,101.209c0.465-0.496,0.899-0.992,1.364-1.457l0.187-0.186
			c-0.093,0-0.187,0.031-0.279,0.031l-0.434,0.093c-0.062,0.093-0.155,0.155-0.186,0.217l-0.868,1.023
			c-0.248,0.31-0.496,0.589-0.713,0.899l0.093,0.186L123.999,101.209z M123.286,100.373l-0.031,0.218l0.651-0.683
			c-0.093,0.031-0.248,0.062-0.372,0.124C123.41,100.094,123.348,100.156,123.286,100.373z M123.689,103.101
			c0.031,0.031,0.031,0.063,0.031,0.093l0.93-1.115c-0.155,0.123-0.279,0.248-0.403,0.402c-0.093,0.063-0.155,0.155-0.217,0.217
			L123.689,103.101z M124.062,104.528c0,0.093,0.031,0.186,0.031,0.279l0.434-0.496l0.93-1.055
			C124.991,103.66,124.558,104.156,124.062,104.528z M124.092,103.349c0.806-0.806,1.582-1.674,2.418-2.449l0.279-0.248
			l-0.155-0.341v-0.031l-0.093,0.093l-0.868,1.055C125.146,102.079,124.588,102.698,124.092,103.349z M124.278,105.613l0.62-0.683
			c-0.217,0.187-0.434,0.403-0.651,0.559v0.063C124.278,105.582,124.278,105.582,124.278,105.613z M124.526,106.698v0.063
			l0.186,0.527c0.775-1.023,1.612-2.016,2.387-3.008c-0.62,0.558-1.24,1.116-1.829,1.705L124.526,106.698z M127.348,102.698
			c-0.279,0.279-0.527,0.59-0.806,0.899c-0.589,0.683-1.179,1.364-1.799,2.047c0.868-0.744,1.644-1.581,2.45-2.419l0.248-0.248
			L127.348,102.698z M126.945,105.861c-0.527,0.465-1.023,0.961-1.519,1.427l-0.435,0.402l-0.093,0.124
			c0.031,0.031,0.031,0.093,0.031,0.124c0.062,0.124,0.093,0.248,0.093,0.372l0.093-0.093L126.945,105.861z M125.302,110.046
			l0.403-0.434c-0.093,0.062-0.248,0.217-0.434,0.31C125.302,109.954,125.302,110.016,125.302,110.046z M128.247,106.233
			c-0.155,0.155-0.279,0.311-0.434,0.434c-0.558,0.559-1.085,1.147-1.612,1.706c-0.31,0.372-0.62,0.713-0.899,1.085
			c1.116-0.868,1.984-2.016,3.007-2.977L128.247,106.233z M127.069,101.892c-0.093,0.155-0.217,0.279-0.341,0.435l-1.271,1.519
			l1.488-1.581l0.186-0.186C127.131,102.016,127.1,101.954,127.069,101.892z M125.519,111.318l1.023-1.333
			c0.496-0.62,0.961-1.24,1.426-1.86c-0.682,0.682-1.302,1.364-1.953,2.046c-0.155,0.155-0.341,0.372-0.558,0.559l0.031,0.496
			C125.519,111.256,125.519,111.287,125.519,111.318z M127.937,105.209c-0.031,0.063-0.093,0.094-0.093,0.124
			c-0.248,0.279-0.465,0.589-0.682,0.868l-1.488,1.892l1.581-1.457l0.775-0.744c0.031,0,0.062-0.031,0.093-0.063l-0.062-0.155
			L127.937,105.209z M125.705,112.341c0.124-0.155,0.217-0.311,0.341-0.435c0.558-0.713,1.147-1.395,1.736-2.077
			c-0.589,0.558-1.147,1.147-1.736,1.736l-0.372,0.403C125.674,112.093,125.705,112.217,125.705,112.341z M125.859,113.612
			c0.435-0.558,0.899-1.085,1.364-1.611l-1.271,1.146l-0.124,0.094v0.123L125.859,113.612z M127.131,111.163
			c-0.403,0.465-0.806,0.961-1.178,1.488c1.023-0.93,1.984-1.891,3.007-2.79l-0.031-0.218l-0.093-0.434l-0.062,0.063
			C128.216,109.891,127.658,110.512,127.131,111.163z M125.983,114.604l0.775-0.867l1.488-1.706l-1.798,1.86l-0.496,0.559
			L125.983,114.604z M126.077,101.831c0,0,0.031,0,0.031-0.031L126.077,101.831z M126.077,106.17
			c0.465-0.434,0.899-0.867,1.395-1.271c0.093-0.063,0.187-0.187,0.311-0.248c-0.093-0.187-0.124-0.311-0.155-0.466L126.077,106.17z
			 M126.231,115.814l0.187-0.155l0.93-0.93c0.651-0.621,1.303-1.24,1.892-1.923c-0.682,0.589-1.333,1.209-1.984,1.829l-1.054,1.023
			C126.201,115.721,126.231,115.751,126.231,115.814z M126.355,116.434v0.062c0,0.093,0.031,0.279,0.063,0.496v0.093l0.93-1.085
			c0.589-0.682,1.209-1.396,1.768-2.108l-1.922,1.768L126.355,116.434z M126.511,118.17c0.124-0.155,0.248-0.311,0.403-0.465
			l-0.435,0.31v0.062L126.511,118.17z M129.58,113.922l-0.279,0.341c-0.837,1.055-1.767,2.077-2.635,3.132
			c1.054-0.93,2.046-1.922,3.007-2.914L129.58,113.922z M126.914,118.976l0.403-0.434l0.899-0.962
			c-0.434,0.403-0.837,0.807-1.302,1.179l-0.187,0.124L126.914,118.976z M128.681,108.528l-0.062-0.279
			c-0.031-0.063-0.031-0.155-0.062-0.279c-0.558,0.775-1.147,1.52-1.736,2.295c0.558-0.59,1.116-1.147,1.736-1.644L128.681,108.528z
			 M129.797,115.225c-0.248,0.31-0.558,0.589-0.806,0.867l-1.953,2.078c0.62-0.559,1.209-1.147,1.798-1.705l0.837-0.869
			c0.062-0.062,0.124-0.123,0.155-0.186L129.797,115.225z M128.278,107.163l-0.744,0.899c0.279-0.278,0.558-0.62,0.899-0.837
			l-0.031-0.217C128.371,107.07,128.34,107.132,128.278,107.163z M129.115,110.791l-0.062-0.31c-0.527,0.62-0.961,1.146-1.519,1.768
			c0.496-0.496,0.868-0.962,1.457-1.365L129.115,110.791z M128.216,118.852l0.961-1.085c-0.465,0.435-0.93,0.899-1.426,1.302
			l0.186,0.031C128.061,118.976,128.154,118.883,128.216,118.852z M129.983,116.186l-0.124,0.154
			c-0.589,0.683-1.24,1.365-1.86,2.016c0.713-0.62,1.396-1.302,2.108-1.953L129.983,116.186z M129.239,111.535L128.774,112
			l-0.683,0.806L128.96,112l0.311-0.279L129.239,111.535z M129.146,119.194l0.279-0.373l0.713-1.085l-1.551,1.427
			c0.187,0,0.372,0.031,0.527,0.031H129.146z M130.293,117.084c0,0.031-0.031,0.063-0.062,0.063c0.031,0,0.062-0.031,0.062-0.031
			V117.084z M130.666,115.596v0.094c0.031-0.031,0.031-0.063,0.031-0.094H130.666z M135.813,98.358l-0.217,0.402l0.372-0.372
			L135.813,98.358z"/>
		<path fill="#91215C" d="M157.574,119.472h-0.031l-0.094,0.093c-0.094,0.094-0.186,0.125-0.278,0.063l-0.372,0.093
			c-0.094,0.031-0.154,0.063-0.248,0c-0.371,0-0.838,0-1.24-0.03c0,0-0.031,0-0.031,0.03c-0.092,0.031-0.154,0.093-0.247,0.063
			c-0.124,0-0.187-0.063-0.187-0.124h-0.373c-0.029,0.031-0.029,0.031-0.062,0.031s-0.062,0-0.093-0.031
			c-0.188,0.031-0.373,0.031-0.59,0.031c-0.031,0-0.063,0.03-0.063,0.062c-0.154,0.062-0.341,0.062-0.402-0.062h-0.154
			c-1.303,0.03-3.442,0.123-3.473,0.123l-0.373,0.031c-0.094,0.031-0.187,0.031-0.248,0l-1.582,0.094
			c-0.062,0.03-0.093,0.062-0.186,0.03c0,0-0.031,0-0.063-0.03l-1.922,0.123l-0.031,0.031c-0.093,0.031-0.186,0.063-0.248,0
			l-0.589,0.031l-0.031,0.031c-0.093,0.062-0.248,0.154-0.341,0.031h-0.031l-3.349,0.278h-0.341l-1.551,0.187
			c-0.434,0.093-0.961,0.217-1.178,0.124c-0.187-0.031-0.187-0.218-0.093-0.341c0.093-0.155,0.217-0.155,0.403-0.125
			c0.124-0.03,0.279-0.062,0.403-0.123c0.093-0.063,0.186-0.063,0.248-0.063c0.186-0.031,0.496-0.124,0.806-0.311
			c0.31-0.31,0.651-0.806,0.837-1.457l0.062-0.186c0-0.031,0-0.063,0.031-0.094c0.093-0.682,0.124-1.426,0.186-1.829
			c0-0.341,0-0.651,0.031-0.93l0.124-1.551c-0.031,0-0.062-0.03-0.062-0.062c-0.063-0.124,0-0.187,0.062-0.279
			c0,0,0.031,0,0.031-0.031v-0.217c-0.031-0.031-0.062-0.093-0.062-0.155l0.093-0.186c0-0.187,0.031-0.341,0.031-0.466
			c0-0.186,0-0.371,0.031-0.589c-0.186-0.062-0.124-0.31,0-0.558v-0.59c0-0.465,0.031-1.146,0.093-2.107
			c0.031-0.155,0.031-0.373-0.031-0.59c0-0.186-0.031-0.31,0-0.898c0-0.094,0-0.621,0.031-1.24c-0.031,0-0.031-0.031-0.062-0.063
			c-0.062,0.031-0.124-0.031-0.155-0.124c-0.031-0.093-0.031-0.217,0.093-0.435c0-0.093,0.062-0.186,0.124-0.278
			c-0.031-0.466-0.031-0.837-0.031-0.899c0-0.372-0.063-0.744-0.124-1.116c-0.124-0.031-0.124-0.217-0.063-0.31l0.031-0.031v-0.527
			c-0.093-0.063-0.124-0.155-0.062-0.279c0.031,0,0.031-0.031,0.031-0.031l-0.031-1.271c-0.031-0.496-0.062-0.496-0.062-0.527
			c-0.093-0.341-0.186-0.683-0.341-0.992c-0.063,0-0.124-0.062-0.187-0.155l-0.124-0.31c-0.217-0.279-0.465-0.466-0.744-0.559
			c-0.527-0.124-1.054-0.155-1.271-0.248c-0.372-0.093-0.372-0.496,0.093-0.465l1.55,0.155h0.807l2.48,0.093l1.395,0.062
			c0.186,0,0.403-0.03,0.589-0.03c0.434-0.063,0.837,0,1.55,0h0.094c0.806,0,1.859-0.093,2.945-0.155
			c0.031-0.031,0.062-0.063,0.092-0.063c0.125-0.063,0.188-0.03,0.311,0.031c0.342-0.031,1.488-0.248,1.768-0.248
			c0.063,0,0.188,0,0.343-0.031c0.153-0.093,0.278-0.154,0.37-0.062l0.839-0.155l0.93-0.093c0.095-0.093,0.187-0.124,0.248-0.031
			c0.372-0.03,0.744-0.093,1.056-0.155l0.153-0.093c0.063,0,0.155,0,0.187,0.031l0.156-0.062h0.092c0.094,0,0.248-0.031,0.373-0.031
			c0.154,0,0.278,0.031,0.278,0.124v0.124c0,0.062-0.063,0.496-0.124,1.023v0.062c0.03,0.062,0,0.155-0.063,0.217l-0.094,0.837
			c0.031,0.125,0,0.248-0.063,0.373v0.186c-0.03,0.155-0.03,2.791-0.063,3.162c0,0.031,0,0.063-0.031,0.125h0.031v0.248
			c0,0.03-0.031,0.123-0.031,0.154c0.031,0.031,0.063,0.063,0.063,0.094c0.03,0.154-0.093,0.31-0.247,0.31
			c-0.156,0-0.188-0.093-0.188-0.187c-0.094-0.093-0.186-0.278-0.217-0.619c-0.031-0.248-0.063-1.055-0.155-1.396
			c0-0.031-0.155-0.807-0.31-1.179c-0.156-0.279-0.713-0.837-1.086-0.992l-0.559-0.217c-0.094,0.031-0.217,0.031-0.279-0.124
			l-0.525-0.217h-0.094c-0.125,0-0.187-0.031-0.187-0.093c-0.063-0.031-0.095-0.031-0.095-0.031l-1.114-0.217
			c-0.031,0-0.095,0-0.155-0.031c-0.65-0.094-0.898-0.124-1.551-0.124l-2.141,0.124c-0.062,0.031-0.649,0.093-1.114,0.154
			l-0.373,0.435l0.124,1.829c0.031,0.217,0,0.435,0,0.651c0.063,0.062,0.063,0.187,0.031,0.279l0.031,0.589
			c0.092,0.031,0.123,0.217,0.03,0.341l0.03,0.651l0.031,0.403c0,0,0.031,0,0.063,0.03c0.094,0.094,0.031,0.218-0.031,0.342
			l0.094,1.116l-0.094,2.542c0,0.248-0.031,0.496,0,1.147c0.063,0,0.125,0.031,0.155,0.124h0.341
			c0.031-0.031,0.063-0.031,0.124-0.031c0.062,0,0.155,0.031,0.248,0.063h0.931c0.154-0.031,0.342,0,0.496,0.031h0.094
			c0.465,0,1.021-0.248,1.519-0.435c0,0,0.031-0.031,0.063-0.031l0.031-0.03c0.092-0.094,0.217-0.248,0.34-0.248
			c0.063-0.031,0.125,0,0.156,0l0.743-0.435l0.837-0.806l0.372-0.496c-0.03-0.155,0.124-0.403,0.155-0.496l0.372-0.807
			c0.062-0.124,0.187-0.372,0.341-0.279c0.063-0.031,0.124-0.031,0.124-0.031c0.124,0,0.124,0.094,0.093,0.279l-0.217,0.744
			c0,0.031,0,0.094-0.031,0.155c0,0.031-0.029,0.062-0.029,0.093l-0.248,0.868c-0.031,0.218-0.373,1.644-0.373,1.829v0.342
			c-0.03,0.434-0.154,1.116-0.154,1.333c0,0.155-0.031,0.651-0.063,1.146c0.063,0.063,0.094,0.154,0.094,0.217
			c-0.031,0.093-0.125,0.217-0.094,0.311c0,0.123,0.094,0.186,0.03,0.341c-0.03,0.093-0.063,0.155-0.063,0.217
			c-0.029,0.124-0.029,0.217-0.029,0.248l-0.094,0.527v0.093c-0.063,0.217-0.125,0.341-0.278,0.341c-0.187,0-0.155-0.31-0.155-0.651
			c-0.031-0.03-0.031-0.03-0.031-0.063c-0.029-0.062,0-0.093,0-0.155c-0.029-0.31-0.154-1.023-0.248-1.24
			c-0.062-0.031-0.092-0.093-0.092-0.154c-0.125-0.187-0.248-0.496-0.435-0.683c-0.063,0.031-0.125,0-0.187-0.093v-0.031
			c-0.156-0.155-0.279-0.341-0.436-0.465c-0.094,0-0.154-0.031-0.154-0.124c-0.031,0-0.031-0.031-0.031-0.031
			c-0.311-0.093-0.588-0.341-0.961-0.496c-0.371-0.124-0.774-0.187-1.146-0.248h-1.303c-0.311,0-0.495,0-0.59-0.031
			c0,0.063,0.031,0.093,0.063,0.124l-0.278,0.311l0.03,0.992c-0.063,0.775-0.03,0.898-0.063,1.24c0.095,0,0.156,0.031,0.188,0.124
			c0.03,0.124,0.03,0.278-0.218,0.589c0,0.217-0.03,0.465-0.03,0.713c0,0,0,0.031,0.03,0.031c0,0.093,0,0.155-0.03,0.186
			c-0.063,0.435-0.093,0.869-0.093,1.147c-0.062,0.683-0.093,1.396-0.124,2.14v0.063c0.186,0.093,0.031,0.371-0.063,0.526
			c-0.031,0.063-0.031,0.124-0.031,0.155v0.031c0,0.093,0,0.124-0.03,0.186v0.031c-0.031,0.248-0.093,0.465-0.093,0.589
			l-0.063,0.311c0.124,0.093,0.063,0.31,0,0.465c0,0.062,0.031,0.093,0.031,0.124c0.341-0.063,0.837-0.093,1.085-0.093h0.992
			c0.062-0.031,0.093-0.031,0.187-0.031c0.311,0,0.682,0,1.086-0.031c0.743-0.062,1.58-0.186,1.643-0.186
			c0.063-0.031,0.527-0.063,0.931-0.124l0.526-0.124l0.154-0.093c0.063-0.031,0.125-0.031,0.188,0
			c0.154-0.031,0.311-0.094,0.496-0.155c0.063-0.093,0.154-0.218,0.279-0.218c0.062,0,0.093,0.031,0.123,0.031
			c0.154-0.062,0.278-0.124,0.402-0.217c0.342-0.248,1.023-0.775,1.333-1.24l0.095-0.155c-0.095-0.278,0.558-1.24,0.649-1.364
			l0.403-0.682l0.093-0.465c0-0.187,0.03-0.373,0.03-0.527c-0.092-0.155,0-0.372,0.031-0.527c0-0.031,0.031-0.063,0.031-0.063
			v-0.093c-0.031-0.03-0.031,0-0.063-0.062c-0.031-0.063-0.063-0.124-0.031-0.187c0.063-0.186,0.373-0.403,0.496-0.186
			c0.031,0.03,0.031,0.093,0.031,0.124c0.154,0.186,0.123,0.682,0.094,1.116c0.063,0.03,0.093,0.062,0.093,0.155
			c0,0.062-0.03,0.154-0.063,0.217v0.062c0.063,0.279,0.125,0.837,0.156,1.458c0,0.03,0.03,0.03,0.03,0.062v0.155
			c0,0.186,0,0.341,0.03,0.527l0.402,2.107l0.125,0.373C157.637,119.007,157.637,119.442,157.574,119.472z M140.428,119.69h0.155
			l0.31-0.031c0.465-0.496,0.93-1.023,1.364-1.551c0.62-0.65,1.209-1.333,1.798-2.016c-1.147,1.086-2.263,2.202-3.442,3.287
			L140.428,119.69z M140.924,118.573c0.868-0.806,1.705-1.643,2.542-2.449c0.559-0.527,1.085-1.085,1.675-1.581
			c0-0.155,0.031-0.341,0.031-0.496l-0.837,0.775c-1.116,1.085-2.108,2.294-3.286,3.349c0,0.031-0.031,0.031-0.031,0.062
			L140.924,118.573z M141.605,98.203l-0.62,0.589c0.063,0.155,0.124,0.311,0.155,0.465
			C141.296,98.916,141.481,98.543,141.605,98.203z M141.233,115.907v0.155l0.683-0.744
			C141.729,115.473,141.481,115.721,141.233,115.907z M141.357,100.713c0.589-0.774,1.179-1.55,1.736-2.355l-0.93,0.867
			l-0.837,0.869c0,0.063,0,0.154,0.031,0.278V100.713z M143.559,111.969c-0.651,0.65-1.271,1.333-1.984,1.86l-0.186,0.155
			c0,0.093-0.031,0.217-0.031,0.31c0.187-0.155,0.341-0.341,0.527-0.527L143.559,111.969z M141.854,101.272l-0.465,0.403v0.093
			L141.854,101.272z M142.226,101.551l-0.744,0.682c0,0.031-0.031,0.063-0.062,0.094c0,0.217,0.031,0.465,0.062,0.713v0.062
			l0.279-0.31l1.209-1.427l2.047-2.388v-0.03C144.086,99.784,143.156,100.683,142.226,101.551z M145.078,115.473
			c-1.178,1.395-2.418,2.759-3.627,4.154c1.302-1.085,2.418-2.356,3.597-3.565C145.047,115.844,145.078,115.659,145.078,115.473z
			 M141.513,99.319l1.178-1.116l-0.651-0.031c-0.031,0.062-0.063,0.124-0.063,0.187L141.513,99.319z M141.513,110.791v0.063
			c1.147-1.055,2.201-2.202,3.349-3.256c0.124-0.093,0.279-0.31,0.465-0.435l0.031-0.526l-0.403,0.434
			C143.807,108.31,142.536,109.489,141.513,110.791z M141.513,110.202l0.372-0.403c0.775-0.899,1.644-1.736,2.449-2.636
			l-2.108,1.984l-0.682,0.651C141.544,109.954,141.513,110.078,141.513,110.202z M141.544,111.721
			c-0.031,0.093-0.031,0.154-0.031,0.217l0.961-1.055c0.868-0.961,1.768-1.953,2.604-3.007c-1.209,1.116-2.294,2.388-3.534,3.473
			V111.721z M141.513,113.116c0.961-0.806,1.892-1.643,2.791-2.511L141.513,113.116z M142.846,106.388
			c0.62-0.589,1.209-1.179,1.799-1.799l-1.83,1.675c-0.434,0.402-0.868,0.806-1.271,1.271v0.062
			C142.009,107.225,142.443,106.822,142.846,106.388z M141.575,108.899c0.341-0.371,0.682-0.713,1.054-1.022
			c0.837-0.807,1.705-1.612,2.48-2.48c-1.147,1.085-2.232,2.232-3.411,3.286l-0.124,0.094L141.575,108.899L141.575,108.899z
			 M141.605,105.055v0.093c1.085-0.837,2.047-1.892,2.977-2.853C143.59,103.194,142.505,104.063,141.605,105.055z M144.179,98.264
			l-0.589-0.031c-0.155,0.311-0.372,0.59-0.434,0.651c-0.465,0.714-0.992,1.396-1.488,2.077c0.93-0.898,1.798-1.829,2.759-2.697
			H144.179z M145.233,102.575v-0.187l-1.023,1.023c-0.837,0.837-1.674,1.644-2.48,2.511c1.085-0.93,2.078-1.922,3.07-2.914
			L145.233,102.575z M145.141,100.465c-1.147,1.086-2.264,2.171-3.318,3.318c1.023-0.992,2.046-1.953,3.039-2.977
			c0.093-0.063,0.186-0.187,0.279-0.279V100.465L145.141,100.465z M141.854,116.836h0.031c0,0,0.031-0.03,0.062-0.093
			L141.854,116.836z M142.474,119.535c0.435-0.651,0.992-1.24,1.488-1.829c-0.62,0.619-1.209,1.24-1.86,1.829
			c-0.031,0-0.031,0.03-0.031,0.03L142.474,119.535z M145.357,110.605c-0.124,0.093-0.217,0.217-0.31,0.341l-2.791,2.945
			c0.899-0.806,1.736-1.643,2.542-2.48l0.527-0.558c0-0.063,0.031-0.124,0.031-0.187L145.357,110.605L145.357,110.605z
			 M144.21,113.985l-1.24,1.24l1.303-1.271C144.21,113.985,144.21,114.015,144.21,113.985z M143.218,105.396l1.488-1.364
			c-0.124,0.093-0.124,0.062,0.031-0.063C144.21,104.404,143.714,104.9,143.218,105.396z M145.326,108.186l-0.093,0.124
			c-0.62,0.744-1.271,1.458-1.922,2.202l1.519-1.365l0.496-0.465V108.186z M144.675,113.054c0.186-0.187,0.403-0.372,0.62-0.527
			v-0.278l-0.341,0.371l-1.55,1.644C143.838,113.86,144.241,113.426,144.675,113.054z M144.954,117.395
			c0-0.124,0.031-0.217,0.031-0.311l-1.333,1.551c0.403-0.403,0.806-0.807,1.24-1.178
			C144.923,117.426,144.923,117.395,144.954,117.395z M144.303,119.348l0.465-0.713l-0.837,0.744L144.303,119.348z M145.078,99.504
			c-0.341,0.403-0.682,0.775-0.992,1.179c0.311-0.311,0.62-0.651,0.992-0.899V99.504z M144.985,98.451
			c-0.062,0.03-0.093,0.093-0.155,0.155l0.155-0.125V98.451z M145.389,105.674l-0.496,0.496c0.155-0.123,0.31-0.278,0.496-0.402
			V105.674z M145.389,104.589l-0.279,0.311l0.279-0.248V104.589z M149.945,109.147c0-0.03,0-0.062,0.031-0.093l-0.123,0.063
			L149.945,109.147z M150.752,109.458l0.094-0.093c0.372-0.435,0.744-0.868,1.086-1.333l-0.188,0.217l-0.186,0.124l-1.056,0.961
			l0.095,0.031L150.752,109.458z M151.65,110.387c0.063,0.094,0.125,0.187,0.219,0.248l-0.031-0.341c0-0.03,0-0.062-0.031-0.093
			C151.775,110.264,151.714,110.326,151.65,110.387z M151.932,97.644l0.062,0.031v-0.031H151.932z M153.357,97.955l0.123-0.218
			l-0.217,0.187L153.357,97.955z M154.008,97.458l-0.279,0.589l0.651-0.62C154.225,97.427,154.132,97.427,154.008,97.458z
			 M154.752,98.606l0.094-0.094c0.278-0.402,0.526-0.806,0.774-1.24l-0.992,0.931l-0.187,0.186
			C154.535,98.451,154.659,98.512,154.752,98.606z M155.342,118.915l0.154-0.187l-0.186,0.187H155.342z M155.559,98.079
			c0,0.031-0.031,0.062-0.063,0.093c0.031,0,0.063-0.031,0.063-0.062V98.079z M156.551,118.946l0.124-0.403l-0.03-0.124
			c-0.156,0.186-0.311,0.372-0.496,0.527H156.551z M156.363,117.364c0.031,0,0.064-0.031,0.094-0.063
			C156.428,117.302,156.396,117.333,156.363,117.364z"/>
		<path fill="#91215C" d="M180.887,114.729c0,0.341-0.125,0.774-0.342,1.271v0.063l-0.094,0.155
			c-0.248,0.558-0.59,1.115-1.023,1.611c0.031,0,0.031,0.031,0.031,0.063c0.031,0.063,0,0.093-0.063,0.155
			c-0.063,0.093-0.217,0.186-0.311,0.278c-0.124,0.125-0.311,0.403-0.496,0.435c-0.063,0.031-0.124,0.031-0.186-0.031
			c0,0-0.031,0-0.031-0.03c-0.65,0.402-1.396,0.65-1.768,0.806c-0.373,0.093-1.768,0.558-2.48,0.589h-0.063l-0.123,0.094
			c-0.094,0.03-0.188,0.062-0.279,0.062c-0.063,0-0.155-0.031-0.217-0.062c-0.932,0.062-2.356,0.093-3.969,0.123h-0.992
			c0,0-0.031,0-0.031,0.031c-0.063,0-0.124,0-0.155-0.031h-0.526c-0.031,0-0.031,0.031-0.063,0.031c-0.094,0-0.154,0-0.188-0.031
			h-0.434c-0.031,0.031-0.063,0.031-0.124,0.031s-0.093,0-0.124-0.031c-0.682-0.03-1.396-0.03-2.016-0.093
			c-0.063,0.063-0.124,0.063-0.186,0.093c-0.125,0-0.248-0.03-0.312-0.123l-0.837-0.094l-0.868-0.186
			c-0.063,0.031-0.093,0.031-0.124,0.031c-0.155,0.062-0.248-0.031-0.279-0.125l-0.402-0.093h-0.03c-0.063,0-0.155-0.03-0.218-0.062
			l-0.898-0.217c-0.559-0.187-1.055-0.466-1.18-0.621c-0.061-0.154-0.029-0.278,0.188-0.278c0.154,0,0.342,0.062,0.527,0.155
			c0.029,0.03,0.371,0.093,0.898,0.154c0.154,0,0.744,0,1.146-0.062h0.124c0.124-0.031,0.217-0.031,0.248-0.063
			c0.278-0.186,0.526-0.806,0.526-1.426c0-0.248-0.03-0.527-0.03-0.683c-0.031-0.217-0.063-0.589-0.063-1.023
			c-0.062-0.062-0.062-0.186-0.029-0.31c0,0,0-0.031,0.029-0.062c-0.029-0.279-0.029-0.59-0.029-0.869
			c0-0.278,0.029-0.558,0.029-0.806c-0.093-0.093-0.062-0.248,0-0.341v-0.155l0.031-1.116c-0.124-0.093-0.063-0.279,0.031-0.434
			v-0.744c-0.155,0.123-0.279,0.062-0.311-0.063c-0.031-0.124-0.031-0.279,0.247-0.651l0.125-0.124v-0.031
			c-0.094-0.062-0.063-0.186,0-0.31l0.062-1.923v-0.248c-0.062-0.062-0.062-0.154,0-0.278c0,0,0-0.031,0.031-0.031v-0.744
			c0,0-0.031-0.031-0.031-0.062c-0.062-0.094-0.03-0.218,0.031-0.342l0.03-1.146c0.125-0.621,0.095-1.21,0.125-1.861
			c-0.063,0-0.094-0.03-0.125-0.123c-0.03-0.094-0.03-0.248,0.187-0.559v-0.093c-0.062-0.063-0.03-0.187,0.031-0.311
			c0.03-0.372,0.094-0.744,0.125-0.868c0.062-0.217,0.062-0.496,0.062-0.744c-0.03-0.031-0.062-0.062-0.062-0.124
			c-0.031-0.093,0-0.217,0.062-0.31c0-0.342-0.062-0.744-0.248-0.992l-0.124-0.094h-0.094c-0.062-0.03-0.123-0.062-0.123-0.123
			c-0.248-0.094-0.559-0.187-0.713-0.218c-0.684-0.062-1.086,0.031-1.645,0.124c-0.496,0.063-0.683-0.062-0.683-0.186
			c0-0.342,0.683-0.435,1.768-0.683l2.729-0.496l0.744-0.093c0.217-0.155,0.402-0.248,0.465-0.093
			c0.869-0.124,1.861-0.279,2.419-0.311c0.589-0.062,2.325-0.186,2.884-0.155c0.217,0,0.434,0,0.682,0.031v-0.031l0.031,0.031h0.713
			c1.023,0.031,1.893,0.063,2.915,0.248c0.589,0.094,1.147,0.279,1.675,0.496c0.063-0.031,0.092-0.031,0.154-0.031
			c0.124,0.031,0.186,0.094,0.155,0.155c0.589,0.248,1.054,0.559,1.396,0.837c0.248,0.187,0.496,0.466,0.682,0.744
			c0,0.031,0,0.031,0.031,0.031c0,0.031,0.031,0.063,0.031,0.094c0.402,0.619,0.65,1.395,0.65,1.953
			c0.063,0.124,0.063,0.217,0,0.341v1.023c0.063,0.093,0,0.186-0.094,0.31c-0.062,0.248-0.187,0.496-0.31,0.744v0.063
			c-0.03,0.062-0.063,0.124-0.125,0.186c-0.248,0.403-0.526,0.838-0.837,1.24v0.031c0,0.093-0.029,0.186-0.063,0.248
			c-0.154,0.186-0.371,0.372-0.559,0.559c-0.154,0.154-0.341,0.341-0.559,0.496l-0.186,0.093c-0.063,0-0.125-0.031-0.154-0.031
			l-0.125,0.062c-0.187,0.125-0.774,0.435-1.24,0.683l-0.154,0.124c-0.094,0.063-0.465,0.403-0.59,0.217l-0.311,0.094
			c-0.092,0.062-0.187,0.123-0.278,0.123h-0.03c-0.063,0-0.125-0.03-0.154-0.062c-0.125,0.031-0.248,0.031-0.373,0.031l-0.187,0.186
			c0.278,0.063,0.526,0.124,0.744,0.218h0.063c0.217,0.062,0.465,0.123,0.713,0.154c0.248,0.031,1.859,0.62,2.572,1.023
			c0.496,0.311,1.364,0.93,1.612,1.24c0.62,0.992,1.303,1.736,1.303,2.791v0.371c0.03,0.063,0.03,0.187,0.03,0.311
			c0,0.031,0.031,0.063,0.031,0.093c0.031,0.124,0,0.218-0.063,0.341v0.376H180.887z M163.615,119.317l0.371,0.063
			c0.125-0.186,0.279-0.341,0.342-0.403l1.859-2.356c-0.93,0.899-1.828,1.799-2.82,2.667h0.063
			C163.491,119.287,163.584,119.317,163.615,119.317z M163.678,118.511l0.867-0.837l2.389-2.264l0.559-0.527v-0.341l-1.458,1.396
			c-0.683,0.65-1.396,1.364-2.171,1.953C163.832,118.108,163.771,118.325,163.678,118.511z M167.182,111.287
			c-1.117,1.179-2.326,2.264-3.381,3.504c0.838-0.713,1.645-1.488,2.45-2.232l1.179-1.116v-0.403
			C167.367,111.131,167.273,111.194,167.182,111.287z M163.801,114.233c0.188-0.155,0.342-0.342,0.496-0.527l2.264-2.295
			l-2.729,2.449C163.832,113.985,163.801,114.108,163.801,114.233z M163.832,115.287v0.155c0.436-0.496,0.961-0.961,1.396-1.427
			L163.832,115.287z M163.863,112.341l1.488-1.333c0.559-0.527,1.115-1.023,1.644-1.551c0.155-0.155,0.31-0.279,0.435-0.434v-0.248
			c-0.125,0.123-0.248,0.217-0.342,0.341c-0.619,0.558-1.209,1.147-1.799,1.736l-1.426,1.457V112.341L163.863,112.341z
			 M165.537,114.729c0.65-0.621,1.334-1.271,1.923-1.954v-0.124c-1.116,0.931-2.108,2.016-3.132,3.008
			c-0.154,0.155-0.311,0.341-0.465,0.465v0.187C164.452,115.783,164.979,115.255,165.537,114.729z M164.328,111.07l-0.434,0.372
			v0.093L164.328,111.07z M163.956,110.078l-0.03,0.155l0.371-0.372c0.744-0.714,1.458-1.427,2.171-2.202
			c-0.806,0.838-1.581,1.675-2.479,2.388L163.956,110.078z M163.986,108.558c0.218-0.248,0.436-0.496,0.621-0.744
			c0.744-0.868,1.488-1.736,2.201-2.604c-0.931,0.899-1.83,1.799-2.791,2.667L163.986,108.558z M164.049,106.17v0.063l0.188-0.186
			C164.174,106.078,164.143,106.14,164.049,106.17z M165.32,104.589c0.807-0.774,1.611-1.581,2.355-2.388l0.031-0.434
			c0-0.063,0-0.124-0.031-0.217c-0.867,0.898-1.736,1.798-2.572,2.729c-0.342,0.402-0.713,0.775-1.023,1.178v0.248
			C164.516,105.365,164.918,104.961,165.32,104.589z M164.143,104.404c0.435-0.311,0.838-0.714,1.24-1.085
			c0.807-0.775,1.581-1.582,2.355-2.357l0.094-0.558l-0.713,0.744l-1.86,1.86c-0.372,0.403-0.743,0.775-1.085,1.178
			C164.174,104.28,164.143,104.341,164.143,104.404z M164.482,103.256c-0.092,0.093-0.187,0.155-0.278,0.217v0.094L164.482,103.256z
			 M164.328,98.854l0.559-0.869l-0.619,0.683L164.328,98.854z M165.012,101.365l-0.744,0.837v0.248l1.396-1.457
			c0.774-0.837,1.61-1.705,2.387-2.573c-0.713,0.651-1.364,1.364-2.046,2.016L165.012,101.365z M167.801,97.489
			c-0.867,0.744-1.705,1.551-2.512,2.388c-0.277,0.248-0.525,0.527-0.807,0.807c0,0.062-0.03,0.124-0.03,0.186l1.21-1.147
			c0.744-0.713,1.52-1.457,2.201-2.232h-0.063V97.489z M165.443,97.831l-0.154,0.217l-0.837,1.303c0,0.03,0,0.062,0.03,0.093
			c0.59-0.527,1.147-1.147,1.705-1.736c-0.154,0.03-0.277,0.062-0.402,0.062L165.443,97.831z M164.545,108.465v0.031
			c0.962-0.868,1.923-1.768,2.854-2.697c0.031-0.031,0.094-0.063,0.123-0.125v-0.434l0.031-0.311l-0.093,0.094L164.545,108.465z
			 M164.639,112.651l2.791-2.542v-0.155l-0.807,0.775C165.973,111.349,165.259,111.969,164.639,112.651z M164.73,119.069
			c0.961-0.898,1.83-1.859,2.791-2.759c0-0.031,0.031-0.063,0.031-0.063l-0.031-0.682c-0.123,0.186-0.278,0.372-0.435,0.558
			L164.73,119.069z M165.631,102.079l-0.124,0.154l0.496-0.496c0.651-0.682,1.333-1.333,1.953-2.046
			C167.15,100.435,166.406,101.272,165.631,102.079z M165.537,105.148l1.613-1.581l0.496-0.466v-0.278l-1.023,1.146L165.537,105.148
			z M166.003,119.503c0.403-0.527,0.837-1.054,1.24-1.612l-1.552,1.612H166.003z M166.902,97.614l-0.279,0.31l-0.775,0.868
			l1.303-1.209C167.057,97.583,166.964,97.614,166.902,97.614z M166.623,108.497l0.837-0.744v-0.094
			C167.182,107.907,166.902,108.217,166.623,108.497z M168.08,98.947l-1.303,1.396c0.402-0.403,0.807-0.869,1.271-1.21
			L168.08,98.947z M167.15,119.535l0.496-0.807l-0.869,0.807H167.15z M167.646,118.232c-0.031-0.093-0.031-0.155-0.031-0.217
			c-0.188,0.279-0.403,0.527-0.62,0.806L167.646,118.232z M167.584,103.969l-0.279,0.279l0.279-0.248V103.969z M168.328,97.52
			l-0.342,0.435l0.342-0.372V97.52z M174.746,117.674c-0.094-0.094,0.063-0.311,0.154-0.435l0.188-0.589
			c-0.094-0.063-0.125-0.124-0.094-0.248c0.031-0.063,0.124-0.155,0.188-0.217c0.123-0.527,0.217-1.055,0.217-1.52v-0.186
			l0.031-0.931v-0.155c0-0.341-0.031-0.682-0.063-0.992c-0.03,0-0.03-0.031-0.03-0.062c-0.125-0.807-0.373-1.458-0.65-1.984
			c-0.063-0.187-0.156-0.341-0.248-0.496c-0.094-0.031-0.125-0.093-0.125-0.187c-0.311-0.465-0.683-0.744-1.055-0.93
			c-0.124-0.031-0.31-0.217-0.775-0.465c-0.277-0.063-0.773-0.063-0.836-0.063c-0.311-0.031-0.713-0.031-0.961,0
			c-0.094,0.093-0.156,0.124-0.311,0.124l-0.311-0.062l-0.279,0.03c-0.154,0.031-0.59,0.031-0.59,0.031l-0.743,0.155
			c-0.093,0.093-0.155,0.186-0.248,0.248v0.992c0.03,0.031,0.062,0.093,0.062,0.154c0,0.063-0.029,0.094-0.062,0.155v1.768
			c0.03,0,0.062,0.031,0.093,0.062c0.094,0.155,0.031,0.342-0.063,0.496v0.311c0.031,0.031,0.031,0.063,0,0.124
			c0.031,0.992,0,1.457,0.031,2.171l0.094,1.674c0.031,0.311,0.031,0.62,0.031,1.023c0.123,0.062,0.092,0.248,0,0.465l0.062,0.775
			v0.093c0.03,0.093,0.03,0.187,0.03,0.279l0.031,0.124c0.03,0.031,0.03,0.124,0.03,0.186c0.063,0,0.095,0.031,0.155,0.031
			c0.063-0.063,0.123-0.093,0.248-0.063l0.248,0.063v0.031c0.31,0.031,0.931,0.093,1.427,0.031c0.713,0,1.55-0.155,1.705-0.218
			l0.589-0.186C173.909,118.915,174.374,118.511,174.746,117.674z M170.344,97.241c-0.154,0-0.311,0.031-0.465,0.063
			c-0.031,0.031-0.094,0.031-0.154,0.063c-0.031,0-0.094,0-0.156-0.031c-0.03,0-0.063,0.031-0.092,0.031l-0.373,0.434l-0.094,0.248
			l-0.248,1.488l-0.123,0.868c0.03,0.031,0.03,0.093-0.031,0.187c-0.063,0.496-0.123,0.93-0.123,1.022l-0.094,2.14l-0.094,1.488
			l0.094,1.705l-0.063,0.651c0.434,0.155,0.992,0.155,1.52,0.124c0.465-0.031,1.984-0.311,2.356-0.559
			c0.526-0.31,1.86-1.054,2.231-1.891l0.125-0.248c-0.095-0.124,0.062-0.342,0.186-0.496c0.188-0.465,0.342-0.992,0.402-1.582
			c-0.092-0.093-0.03-0.186,0.031-0.31v-0.806l-0.063-0.094c-0.03-0.093,0-0.217,0.031-0.31c-0.063-0.559-0.279-1.147-0.496-1.644
			c0-0.031-0.031-0.063-0.031-0.093l-0.217-0.559c-0.217-0.496-0.559-0.837-1.055-1.147c-0.063,0-0.125-0.03-0.154-0.093
			c-0.063-0.03-0.125-0.093-0.219-0.124c-0.496-0.31-0.867-0.372-1.549-0.465C171.367,97.303,170.623,97.241,170.344,97.241z
			 M173.537,107.659h-0.155l-0.03,0.031c0.03,0,0.094,0.031,0.123,0.031C173.475,107.69,173.506,107.69,173.537,107.659z
			 M174.002,97.396l0.188,0.155v-0.124C174.126,97.396,174.064,97.396,174.002,97.396z M174.374,108.806c0-0.03,0-0.093,0.03-0.124
			c-0.03,0-0.062,0.031-0.092,0.063L174.374,108.806z M175.057,97.52l-0.465-0.062c0,0.155-0.031,0.341-0.031,0.496h0.031
			L175.057,97.52z M175.43,118.542c0.557-0.527,1.146-1.055,1.704-1.612c0.992-0.961,2.017-1.953,2.978-2.977v-0.559l-4.961,5.147
			c-0.155,0.278-0.373,0.496-0.59,0.682h0.094L175.43,118.542z M174.746,108.745c0,0.124,0,0.279-0.031,0.434
			c0.031,0,0.031,0.031,0.063,0.031c0.125-0.093,0.218-0.248,0.342-0.372C175.025,108.837,174.9,108.776,174.746,108.745z
			 M175.613,97.923l-0.619,0.651l0.094,0.217L175.613,97.923z M175.336,109.178l-0.279,0.342l0.125,0.154
			C175.211,109.52,175.273,109.333,175.336,109.178z M175.336,105.209c1.021-1.085,2.046-2.17,3.131-3.225
			c0.124-0.093,0.559-0.558,0.961-0.837v-0.031c0-0.124,0-0.248-0.029-0.372c-0.715,0.527-1.334,1.147-1.984,1.768
			c-0.559,0.527-1.146,1.085-1.706,1.674L175.336,105.209z M175.738,109.054c-0.063,0.311-0.154,0.589-0.248,0.868l0.65-0.713
			L175.738,109.054z M176.266,118.821l0.713-0.278l0.031-0.031c0.744-0.806,1.488-1.644,2.232-2.512l0.867-1.085v-0.124
			c-0.526,0.558-1.115,1.085-1.674,1.644l-2.914,2.573l0.465-0.124L176.266,118.821z M175.613,100.125l0.496-0.713
			c-0.186,0.187-0.34,0.403-0.557,0.558L175.613,100.125z M175.678,110.574c0.154-0.279,0.309-0.558,0.495-0.837l-0.589,0.62
			L175.678,110.574z M176.143,97.799l-0.496,0.775l0.744-0.713C176.297,97.831,176.234,97.799,176.143,97.799z M175.801,116.93
			l4.311-3.814c0-0.093-0.031-0.186-0.063-0.278c-0.031,0.03-0.063,0.062-0.094,0.062c-0.62,0.496-1.146,1.147-1.736,1.705
			l-1.768,1.675l-0.65,0.62V116.93L175.801,116.93z M177.195,109.674l-0.434-0.186c-0.064,0.093-0.125,0.217-0.187,0.248
			l-0.744,1.302l1.271-1.302C177.134,109.737,177.165,109.706,177.195,109.674z M178.064,98.699l-0.219,0.217l-0.65,0.683
			c-0.434,0.465-0.867,0.93-1.271,1.426c0.559-0.559,1.085-1.147,1.645-1.736c0.154-0.186,0.341-0.403,0.558-0.589L178.064,98.699
			L178.064,98.699z M175.925,103.04l1.488-1.83c-0.466,0.466-0.962,0.931-1.458,1.365
			C175.955,102.729,175.955,102.884,175.925,103.04z M176.421,101.209c0.496-0.558,0.992-1.115,1.457-1.705
			c-0.403,0.403-0.774,0.807-1.147,1.24c-0.248,0.248-0.496,0.559-0.774,0.775v0.248L176.421,101.209z M175.986,116.124
			c0.217-0.248,0.435-0.465,0.683-0.682l-0.093,0.062l-0.59,0.559V116.124z M176.887,111.473c-0.248,0.217-0.496,0.465-0.775,0.682
			c0.031,0.094,0.031,0.187,0.031,0.279L176.887,111.473z M176.203,113.674l0.402-0.434c0.651-0.744,1.334-1.488,1.924-2.295
			c-0.527,0.527-1.023,1.085-1.521,1.612c-0.247,0.279-0.526,0.558-0.807,0.806L176.203,113.674L176.203,113.674z M177.661,109.922
			c-0.372,0.435-0.683,0.838-0.992,1.24l1.022-0.992l0.125-0.154L177.661,109.922z M179.057,99.784l-0.559,0.713l-1.768,2.14
			c0.774-0.744,1.551-1.488,2.388-2.171c0.062-0.03,0.124-0.062,0.155-0.123C179.242,100.156,179.148,99.969,179.057,99.784z
			 M178.219,110.294c-0.465,0.683-0.992,1.364-1.488,2.016c0.436-0.465,0.838-0.931,1.304-1.364l0.434-0.465L178.219,110.294z
			 M177.506,98.358c-0.031,0-0.063-0.031-0.093-0.063l-0.435,0.559L177.506,98.358z M178.652,99.164l-0.154,0.155
			c-0.434,0.589-0.93,1.146-1.396,1.674l1.707-1.612L178.652,99.164z M177.785,114.326c0.279-0.279,0.558-0.559,0.867-0.807
			c0.373-0.341,0.775-0.651,1.086-1.085c-0.496,0.434-0.93,0.899-1.396,1.333C178.126,113.954,177.971,114.139,177.785,114.326z
			 M179.396,111.597l-0.154,0.186l-1.116,1.147c0.435-0.403,0.868-0.837,1.333-1.24L179.396,111.597z M178.652,117.55l0.559-0.683
			l-0.992,1.023C178.374,117.798,178.529,117.674,178.652,117.55z M178.994,110.946c-0.186,0.279-0.403,0.527-0.59,0.775l0.652-0.62
			L178.994,110.946z M179.025,102.946l0.31-0.278v-0.063L179.025,102.946z M179.428,101.613l-0.248,0.218l0.248-0.187V101.613z"/>
	</g>
</g>
</svg>
