<?xml version="1.0" encoding="utf-8"?>
<!-- Generator: Adobe Illustrator 16.0.0, SVG Export Plug-In . SVG Version: 6.00 Build 0)  -->
<!DOCTYPE svg PUBLIC "-//W3C//DTD SVG 1.0//EN" "http://www.w3.org/TR/2001/REC-SVG-20010904/DTD/svg10.dtd">
<svg version="1.0" id="CP-logo" xmlns="http://www.w3.org/2000/svg" xmlns:xlink="http://www.w3.org/1999/xlink" x="0px" y="0px"
	 width="50px" height="50px" viewBox="0 0 50 50" enable-background="new 0 0 50 50" xml:space="preserve">
<g>
	<g>
		<path fill="#61BEDF" d="M46.863,26.23c-0.941-0.338-2.03-0.547-2.691-1.313c-0.015-0.889-0.095-1.764-0.229-2.619
			c1.156-0.208,1.688-1.163,2.342-2.079c0.503-0.702,1.533-1.459,3.057-1.793c-1.16-0.792-2.519-1.14-3.621-1.14
			c-0.121,0-0.24,0.004-0.354,0.012c-0.566,0.042-1.159,0.142-1.735,0.142c-0.433,0-0.855-0.057-1.248-0.239
			c-0.375-0.8-0.801-1.569-1.279-2.304c0.972-0.661,1.069-1.75,1.297-2.853c0.174-0.846,0.808-1.958,2.063-2.883
			c-0.388-0.07-0.773-0.103-1.152-0.103c-1.123,0-2.174,0.282-2.938,0.692c-0.87,0.466-1.739,1.126-2.732,1.126
			c-0.013,0-0.027-0.001-0.041-0.002c-0.66-0.574-1.363-1.102-2.1-1.582c0.62-0.999,0.268-2.034,0.025-3.134
			c-0.186-0.844-0.059-2.117,0.715-3.475c-1.516,0.37-2.786,1.289-3.498,2.205c-0.61,0.789-1.145,1.758-2.069,2.153
			c-0.833-0.252-1.688-0.45-2.563-0.587c0.158-1.165-0.584-1.967-1.252-2.873c-0.512-0.695-0.912-1.91-0.756-3.465
			C24.866,1.073,24.079,2.43,23.8,3.556c-0.239,0.971-0.332,2.075-1.019,2.813c-0.881,0.109-1.742,0.279-2.58,0.504
			c-0.328-1.128-1.332-1.558-2.308-2.114c-0.75-0.426-1.61-1.374-2.1-2.856c-0.739,1.376-0.909,2.937-0.704,4.079
			c0.175,0.983,0.539,2.03,0.212,2.984c-0.753,0.456-1.47,0.963-2.15,1.516c-0.759-0.9-1.851-0.884-2.971-0.994
			c-0.86-0.08-2.03-0.595-3.081-1.751c-0.116,1.559,0.363,3.053,1.015,4.014c0.561,0.827,1.318,1.636,1.406,2.642
			c-0.5,0.717-0.953,1.469-1.352,2.253c-0.338-0.163-0.667-0.228-0.997-0.228c-0.701,0-1.391,0.292-2.118,0.534
			c-0.328,0.109-0.729,0.176-1.185,0.176c-0.681,0-1.483-0.148-2.34-0.524c0.527,1.471,1.571,2.641,2.556,3.253
			c0.848,0.527,1.868,0.957,2.356,1.839c-0.163,0.853-0.27,1.725-0.315,2.614c-0.025-0.001-0.052-0.004-0.078-0.004
			c-1.129,0-1.833,0.807-2.646,1.549C2.764,26.438,1.6,26.963,0.04,26.973c1.078,1.129,2.508,1.772,3.655,1.932
			c0.988,0.138,2.093,0.113,2.897,0.72c0.201,0.862,0.46,1.705,0.774,2.521c-1.085,0.443-1.408,1.487-1.857,2.521
			c-0.345,0.792-1.196,1.746-2.617,2.392c0.834,0.342,1.71,0.487,2.517,0.487c0.587,0,1.137-0.077,1.607-0.213
			c0.782-0.229,1.594-0.586,2.4-0.586c0.181,0,0.363,0.021,0.544,0.063c0.531,0.698,1.106,1.361,1.726,1.98
			c-0.814,0.852-0.684,1.938-0.677,3.063c0.006,0.862-0.382,2.082-1.419,3.25c1.56-0.047,2.995-0.683,3.879-1.431
			c0.762-0.646,1.485-1.481,2.473-1.677c0.765,0.423,1.561,0.796,2.387,1.111c-0.397,1.104,0.162,2.045,0.627,3.067
			c0.354,0.786,0.494,2.06,0.022,3.548c1.405-0.679,2.457-1.841,2.962-2.886c0.436-0.899,0.755-1.963,1.583-2.541
			c0.532,0.045,1.072,0.067,1.616,0.067c0.339,0,0.675-0.01,1.009-0.025c0.086,1.173,0.979,1.805,1.817,2.553
			c0.646,0.572,1.289,1.678,1.461,3.229c1.013-1.191,1.5-2.685,1.536-3.845c0.032-0.996-0.105-2.096,0.41-2.959
			c0.835-0.291,1.645-0.635,2.422-1.032c0.557,1.032,1.625,1.245,2.698,1.586c0.819,0.262,1.856,1.008,2.646,2.356
			c0.438-1.5,0.277-3.063-0.158-4.138c-0.379-0.928-0.951-1.877-0.826-2.881c0.639-0.599,1.234-1.239,1.785-1.923
			c0.494,0.386,1.027,0.496,1.586,0.496c0.492,0,1.004-0.086,1.526-0.146c0.111-0.012,0.228-0.021,0.349-0.021
			c0.832,0,1.923,0.301,3.027,1.095c-0.209-1.548-0.988-2.91-1.822-3.715c-0.721-0.691-1.627-1.322-1.924-2.285
			c0.342-0.806,0.625-1.638,0.854-2.494c0.187,0.045,0.362,0.069,0.539,0.069c0.889,0,1.632-0.538,2.442-1.016
			c0.52-0.307,1.283-0.529,2.221-0.529c0.402,0,0.84,0.041,1.3,0.138C49.217,27.553,47.951,26.627,46.863,26.23z"/>
		<path fill="#61BEDF" d="M47.252,25.906c0.006-0.202,0.012-0.405,0.012-0.609c0-1.686-0.193-3.326-0.551-4.904
			c-0.023,0.029-0.046,0.058-0.066,0.088c-0.035,0.05-0.069,0.101-0.105,0.151c0.328,1.504,0.502,3.064,0.502,4.665
			c0,0.175-0.004,0.35-0.009,0.523C47.105,25.848,47.18,25.876,47.252,25.906z"/>
		<path fill="#61BEDF" d="M10.563,41.854c0-0.066-0.002-0.136-0.003-0.201c-1.292-1.155-2.446-2.463-3.437-3.894
			c-0.074,0.021-0.152,0.039-0.229,0.058c1.047,1.524,2.281,2.914,3.667,4.133C10.563,41.917,10.564,41.885,10.563,41.854z"/>
		<path fill="#61BEDF" d="M18.468,46.189c-1.671-0.537-3.253-1.27-4.724-2.17c-0.062,0.051-0.123,0.101-0.185,0.146
			c1.56,0.964,3.247,1.736,5.03,2.292c-0.014-0.033-0.027-0.065-0.042-0.103C18.522,46.303,18.495,46.246,18.468,46.189z"/>
		<path fill="#61BEDF" d="M36.171,44.238c-1.485,0.871-3.083,1.572-4.765,2.076c-0.004,0.078-0.008,0.158-0.014,0.234
			c1.793-0.527,3.485-1.279,5.06-2.222c-0.032-0.013-0.063-0.022-0.097-0.034C36.294,44.275,36.232,44.257,36.171,44.238z"/>
		<path fill="#61BEDF" d="M42.904,38.105c-1.018,1.41-2.195,2.693-3.51,3.826c0.027,0.07,0.056,0.146,0.084,0.221
			c1.399-1.197,2.649-2.568,3.721-4.078c-0.033,0.003-0.064,0.005-0.096,0.008C43.037,38.09,42.971,38.1,42.904,38.105z"/>
		<path fill="#61BEDF" d="M44.925,34.691c0.058,0.055,0.111,0.109,0.166,0.168c0.79-1.648,1.384-3.41,1.747-5.254
			c-0.033,0.019-0.066,0.037-0.095,0.053c-0.056,0.033-0.108,0.064-0.163,0.098C46.225,31.484,45.664,33.139,44.925,34.691z"/>
		<path fill="#61BEDF" d="M27.529,47.1c-0.786,0.086-1.584,0.133-2.392,0.133c-0.951,0-1.888-0.063-2.808-0.184
			c-0.035,0.07-0.07,0.141-0.108,0.211c0.955,0.127,1.928,0.195,2.916,0.195c0.884,0,1.755-0.055,2.613-0.156
			c-0.025-0.025-0.052-0.052-0.078-0.076C27.625,47.182,27.578,47.141,27.529,47.1z"/>
		<path fill="#61BEDF" d="M27.325,3.474c1.761,0.176,3.461,0.56,5.075,1.13c0.05-0.062,0.101-0.123,0.148-0.183
			c-1.714-0.612-3.521-1.018-5.4-1.188c0.021,0.03,0.041,0.061,0.063,0.089C27.248,3.374,27.285,3.423,27.325,3.474z"/>
		<path fill="#61BEDF" d="M42.83,12.136c-0.014,0.066-0.023,0.131-0.038,0.198c1.021,1.392,1.883,2.909,2.56,4.524
			c0.075-0.005,0.156-0.007,0.236-0.009c-0.712-1.722-1.635-3.334-2.734-4.805C42.846,12.074,42.837,12.105,42.83,12.136z"/>
		<path fill="#61BEDF" d="M18.271,4.469c1.624-0.538,3.332-0.891,5.097-1.033c0.018-0.076,0.04-0.151,0.063-0.227
			c-1.881,0.144-3.695,0.525-5.417,1.112c0.031,0.02,0.061,0.039,0.092,0.057C18.161,4.409,18.216,4.438,18.271,4.469z"/>
		<path fill="#61BEDF" d="M5.099,34.486c0.025-0.061,0.05-0.118,0.075-0.178c-0.708-1.566-1.238-3.229-1.563-4.967
			c-0.077-0.012-0.154-0.021-0.232-0.037c0.339,1.85,0.906,3.616,1.674,5.275C5.069,34.55,5.085,34.518,5.099,34.486z"/>
		<path fill="#61BEDF" d="M35.956,6.066c0.015,0.065,0.028,0.128,0.043,0.191c1.511,0.868,2.907,1.91,4.166,3.1
			c0.067-0.037,0.144-0.07,0.212-0.104c-1.332-1.271-2.824-2.378-4.439-3.288C35.941,6,35.948,6.033,35.956,6.066z"/>
		<path fill="#61BEDF" d="M10.422,9.068c1.28-1.165,2.696-2.179,4.222-3.018c-0.013-0.077-0.025-0.155-0.036-0.233
			c-1.629,0.886-3.132,1.97-4.482,3.22c0.03,0.004,0.062,0.009,0.093,0.013C10.288,9.057,10.355,9.063,10.422,9.068z"/>
		<path fill="#61BEDF" d="M3.631,20.096c-0.402,1.669-0.619,3.41-0.619,5.202c0,0.101,0.003,0.202,0.004,0.304
			c0.027-0.023,0.056-0.047,0.083-0.072c0.046-0.042,0.091-0.083,0.137-0.125c0-0.035-0.001-0.07-0.001-0.105
			c0-1.746,0.207-3.443,0.594-5.072C3.763,20.184,3.697,20.141,3.631,20.096z"/>
		<path fill="#61BEDF" d="M7.736,11.993c-0.043-0.065-0.085-0.132-0.126-0.199c-1.122,1.456-2.064,3.056-2.8,4.766
			c0.034-0.01,0.068-0.018,0.101-0.028c0.06-0.021,0.119-0.041,0.179-0.062C5.796,14.868,6.688,13.367,7.736,11.993z"/>
	</g>
	<g>
		<g>
			<path fill="#5B133C" d="M25.561,19.672c0,0.304-0.25,0.996-0.47,1.355c0,0.027,0.027,0.055,0.027,0.083
				c0,0.11-0.11,0.11-0.166,0.193c-0.11,0.083-0.193,0.193-0.276,0.304c-0.083,0.083-0.221,0.249-0.359,0.249
				c-0.055,0-0.11,0-0.138-0.028c-0.138,0.11-0.414,0.11-0.524,0.11c-0.497,0.028-1.104-0.027-1.546-0.193
				c-0.524-0.221-0.828-0.581-1.049-1.134c0.028-0.027-0.193-0.525-0.138-1.078c-0.028-0.055,0-0.083,0-0.138
				s0.027-0.111,0.027-0.138c0.028-0.083,0.083-0.193,0.166-0.304h-0.027c-0.028-0.083,0-0.138,0.027-0.193
				c0.055-0.056,0.166-0.111,0.249-0.194l0.249-0.276c0.055-0.028,0.11-0.083,0.193-0.083c0.027,0,0.083,0,0.11,0.028l0.249-0.111
				c0.083-0.027,0.166-0.083,0.276-0.11c0.11-0.056,0.193-0.111,0.249-0.056c0.331-0.083,0.662-0.083,0.994,0.056
				c0.11,0.055,0.635,0.415,0.883,0.553c0.083-0.083,0.11-0.193,0.11-0.304l-0.055-0.304c0-0.083,0-0.193-0.028-0.304V17.46
				c-0.11-0.304-0.607-0.719-0.828-0.912c-0.552-0.47-1.325-0.857-2.042-0.968c-0.028,0.027-0.055,0.055-0.11,0.055
				c-0.055,0-0.11-0.028-0.166-0.083c-0.11,0-0.249,0-0.359,0.028c-0.414,0.027-1.16,0.055-1.877,0.442h-0.055
				c-0.055,0.083-0.138,0.166-0.221,0.221c-0.055,0.027-0.083,0.055-0.138,0.055c-0.552,0.359-0.994,0.802-1.38,1.189
				c-0.304,0.304-0.331,0.415-0.663,0.719l-0.469,0.442c-0.083,0.083-0.248,0.359-0.331,0.442l-0.249,0.166
				c0,0.055-0.027,0.083-0.055,0.11c0,0.056,0.055,0.111,0.028,0.194c-0.028,0.083-0.11,0.166-0.166,0.249l-0.303,0.359
				c-0.166,0.304-0.276,0.608-0.359,0.885l-0.055,0.111c0.027,0.083,0.027,0.166-0.028,0.221c-0.027,0.028-0.027,0.028-0.055,0.028
				l-0.359,1.023c0.055,0.083,0,0.166-0.083,0.249l-0.138,0.387l-0.304,0.885c0.11,0.083,0,0.221-0.083,0.332l-0.083,0.249
				c0.055,0.055,0,0.138-0.055,0.221v0.056c-0.083,0.498,0,0.996-0.083,1.354c-0.027,0.524,0,1.825,0.055,2.378l0.249,1.354
				l0.083,0.276c0.055,0.028,0.083,0.111,0.055,0.194l0.248,0.967c0.221-0.193,0.332-0.165,0.387-0.027
				c0.027,0.11,0.027,0.25-0.221,0.555l0.055,0.083c0.083,0.026,0.138,0.11,0.11,0.192c0.193,0.332,0.469,0.637,0.58,1.078
				c0.166,0.525,1.132,1.217,1.794,1.549c0.662,0.223,1.435,0.387,1.656,0.441c0.635,0.057,2.043,0.027,3.257-0.497
				c0.304-0.139,1.297-0.581,2.015-1.383c0.193-0.166,0.414-0.554,0.635-0.94c0.028-0.166,0.221-0.414,0.276-0.496l0.111-0.223
				l0.027-0.027c0-0.056,0.028-0.082,0.028-0.108c-0.028,0-0.028-0.028-0.055-0.058c-0.028-0.139,0-0.166,0.11-0.274
				c0.11-0.083,0.359-0.359,0.469-0.083v0.056c0.083,0.056,0.055,0.276,0.055,0.331l-0.11,0.332c0.027,0.027,0.027,0.057,0,0.11
				c-0.028,0.026-0.028,0.026-0.055,0.026c-0.221,0.525-0.58,1.133-0.828,1.465c-0.469,0.691-1.187,1.272-1.933,1.688
				c-1.518,0.886-3.726,1.3-3.781,1.3h-0.304c-0.055,0.027-0.083,0.027-0.11,0.027c-0.055,0-0.083,0-0.083-0.027
				c-0.221,0-0.497,0.027-0.773,0.027c-0.607,0-1.214-0.027-1.325-0.083l-0.607-0.14c-0.055,0-0.11,0-0.138-0.025H15.43L13.525,35.6
				c-0.552-0.306-1.132-0.69-1.628-1.105l-0.083-0.083c-0.276-0.249-0.552-0.497-0.773-0.746c-0.386-0.472-0.772-1.022-1.104-1.521
				c-0.027-0.028-0.055-0.084-0.055-0.111c-0.276-0.471-0.497-0.912-0.607-1.244c-0.276-0.939-0.441-1.521-0.524-2.02l-0.083-1.217
				c-0.028-0.027-0.055-0.056-0.083-0.139c-0.027-0.109,0.028-0.223,0.083-0.357c0-0.166,0-0.332,0.027-0.498l-0.027-0.027
				c0-0.027,0-0.055,0.027-0.084c0.028-0.856,0.11-1.688,0.221-2.183L9.082,23.6c-0.028-0.11,0.027-0.221,0.11-0.332
				c0.193-0.691,0.469-1.521,0.773-2.184c-0.083-0.083-0.055-0.221,0-0.332c0.166-0.221,0.359-0.442,0.552-0.636
				c0.387-0.636,0.856-1.244,1.27-1.771v-0.027c0.221-0.47,1.159-1.162,1.463-1.3c0.304-0.193,0.58-0.359,0.828-0.553
				c0.166-0.138,0.8-0.581,1.353-0.83c0.193-0.083,0.359-0.138,0.497-0.166c0.028-0.027,0.055-0.055,0.083-0.055
				c0.083-0.111,0.193-0.111,0.276-0.028l0.249-0.083c0.083-0.055,0.166-0.083,0.304-0.11l0.028-0.028
				c0.055-0.055,0.138-0.138,0.221-0.166c0.138-0.028,0.193,0,0.221,0.083c0.249-0.056,0.552-0.083,0.855-0.139
				c0.111-0.055,0.221-0.11,0.332-0.138c0.11-0.027,0.249,0,0.331,0.083c0.828-0.083,1.601-0.138,1.85-0.083l0.469,0.083h0.138
				c0.028,0,0.083,0,0.111,0.028c0.855,0.138,1.767,0.47,2.484,0.968c0.552,0.415,1.049,0.94,1.297,1.465
				c0.221,0.359,0.332,0.691,0.388,1.078C25.643,18.732,25.561,19.064,25.561,19.672z M13.525,22.742l0.11-0.304
				c-0.221,0.193-0.441,0.415-0.635,0.636c-0.718,0.747-1.463,1.521-2.208,2.24c-0.469,0.47-0.994,0.857-1.436,1.355v0.248
				l0.69-0.636c0.469-0.498,0.938-0.967,1.38-1.465C12.117,24.124,12.78,23.377,13.525,22.742z M13.166,23.792
				c-0.386,0.332-0.745,0.691-1.076,1.051c-0.938,0.94-1.905,1.88-2.705,2.931c1.049-0.912,2.042-1.879,3.063-2.818l0.525-0.47
				C13.028,24.234,13.083,24.013,13.166,23.792z M14.271,20.612l-3.064,2.793c-0.497,0.47-1.021,0.94-1.519,1.438l-0.221,0.249
				l-0.055,0.581c0.055-0.028,0.11-0.083,0.166-0.138l1.38-1.41l2.677-2.737c0.193-0.221,0.387-0.442,0.607-0.636
				C14.243,20.695,14.271,20.668,14.271,20.612z M9.495,28.963c0.027,0.027,0.027,0.055,0.027,0.083
				c0.359-0.249,0.663-0.554,0.966-0.856l1.518-1.575l0.855-0.886V25.59l-1.38,1.327C10.82,27.553,10.075,28.216,9.495,28.963z
				 M9.605,24.345c0,0.028-0.028,0.055-0.028,0.083v0.027c0.221-0.221,0.469-0.442,0.69-0.691
				C10.047,23.958,9.826,24.179,9.605,24.345z M12.752,26.336c-0.911,0.939-1.767,1.908-2.76,2.766
				c-0.11,0.082-0.249,0.223-0.386,0.306l0.11,0.358l1.573-1.688C11.786,27.523,12.283,26.943,12.752,26.336z M9.964,30.648
				c0.11-0.166,0.248-0.306,0.331-0.414c0.773-1.023,1.628-1.963,2.457-2.933c-0.635,0.525-1.214,1.105-1.794,1.688l-0.883,0.912
				l-0.249,0.274c0.028,0.111,0.083,0.249,0.11,0.415C9.937,30.594,9.964,30.621,9.964,30.648z M9.964,23.073l-0.083,0.304
				c0.607-0.608,1.242-1.189,1.905-1.825c-0.359,0.304-0.69,0.581-1.021,0.829c-0.138,0.111-0.304,0.222-0.441,0.36L9.964,23.073z
				 M11.565,26.309l-0.166,0.14l-1.242,1.159L11.565,26.309z M12.862,27.689c-0.166,0.223-0.358,0.416-0.552,0.607
				c-0.69,0.83-1.463,1.659-2.07,2.571l1.325-1.188l0.772-0.748l0.414-0.414c0.055-0.026,0.083-0.082,0.138-0.139
				C12.89,28.161,12.862,27.939,12.862,27.689z M10.626,21.276c0,0.055-0.027,0.11-0.055,0.193c1.353-1.244,2.733-2.433,4.085-3.677
				c0.607-0.553,1.27-1.134,1.822-1.77L16.34,16.05c-0.911,0.83-1.767,1.687-2.65,2.516C12.697,19.479,11.648,20.392,10.626,21.276z
				 M10.737,32.087c0-0.026,0-0.056,0.027-0.056c-0.027,0-0.055,0.027-0.055,0.027L10.737,32.087z M11.041,32.529
				c0.083-0.11,0.193-0.193,0.249-0.276l0.69-0.747l-0.828,0.747l-0.193,0.166L11.041,32.529z M11.041,30.898l1.491-1.383
				c0.166-0.111,0.304-0.276,0.442-0.416l-0.028-0.166l-0.249,0.275C12.145,29.766,11.565,30.316,11.041,30.898z M11.317,32.889
				l0.166,0.221c0.027-0.025,0.027-0.025,0.027-0.055c0.387-0.44,0.746-0.885,1.104-1.326l-1.077,0.994L11.317,32.889z
				 M14.022,17.35l-0.11,0.083c-0.414,0.276-0.801,0.553-1.325,1.05c-0.249,0.277-0.552,0.636-0.855,1.023
				c0.331-0.277,0.635-0.553,0.938-0.857L14.022,17.35z M11.924,33.553c0.249-0.248,0.469-0.498,0.69-0.773
				c-0.249,0.248-0.497,0.496-0.773,0.72C11.869,33.523,11.896,33.553,11.924,33.553z M13.498,31.202
				c-0.387,0.47-0.801,0.94-1.16,1.409c0.414-0.387,0.801-0.801,1.215-1.217L13.498,31.202z M13.967,21.497
				c-0.497,0.553-1.021,1.079-1.546,1.604c0.524-0.47,0.994-0.996,1.491-1.465L13.967,21.497z M12.476,34.05l0.11,0.083l0.193-0.221
				l0.663-0.857L12.476,34.05z M12.725,31.175l0.524-0.498l0.083-0.083l-0.028-0.083C13.111,30.76,12.918,30.953,12.725,31.175z
				 M12.752,26.889l0.083-0.082v-0.056L12.752,26.889z M12.945,34.409l0.166,0.11c0.083-0.082,0.138-0.14,0.166-0.193
				c0.221-0.305,0.442-0.608,0.635-0.912l-0.828,0.829L12.945,34.409z M13.58,34.852l0.166-0.221
				c-0.083,0.055-0.138,0.139-0.193,0.193C13.553,34.824,13.58,34.824,13.58,34.852z M14.408,33.275
				c0,0.026-0.027,0.056-0.055,0.082l-0.469,0.69l0.607-0.58l-0.028-0.026C14.463,33.387,14.436,33.331,14.408,33.275z
				 M14.602,35.211c0.083-0.359,0.166-0.719,0.276-1.078l-0.497,0.471l-0.387,0.389c0,0,0,0.025-0.027,0.025L14.602,35.211z
				 M14.132,32.777l-0.028-0.027l-0.11,0.139L14.132,32.777z M17.831,15.664l-0.221,0.221c-0.414,0.442-0.856,0.857-1.297,1.244
				l-1.711,1.77c1.132-1.079,2.291-2.129,3.368-3.263C17.914,15.636,17.886,15.636,17.831,15.664z M15.181,34.382
				c-0.083,0.249-0.166,0.47-0.221,0.72l0.497-0.471L15.181,34.382z M15.54,35.516l0.166-0.664l-0.552,0.525L15.54,35.516z
				 M15.899,35.6l0.414-0.416l-0.276-0.166c-0.056,0.25-0.138,0.472-0.166,0.582H15.899z M16.34,35.682
				c0.028,0,0.111,0.027,0.193,0.027v-0.275l-0.249,0.221C16.313,35.652,16.34,35.652,16.34,35.682z M16.893,35.404v0.388h0.11
				l0.304-0.276L16.893,35.404z M17.555,35.736c-0.055,0.027-0.083,0.056-0.11,0.109h0.083
				C17.527,35.792,17.527,35.764,17.555,35.736z M18.052,35.652c-0.055,0-0.083,0-0.138-0.026c0,0.083-0.028,0.138-0.055,0.192
				h0.055C17.941,35.764,17.997,35.709,18.052,35.652z M18.632,15.525c-0.028,0.027-0.083,0.027-0.111,0.027l-0.303,0.276v0.028
				l0.193-0.083L18.632,15.525z M18.742,35.736h-0.138c0,0,0,0.027-0.028,0.027h0.138L18.742,35.736z M21.695,20.281
				c0.221-0.359,0.497-0.719,0.746-1.078l-0.663,0.719c-0.055,0.055-0.11,0.083-0.138,0.138c0,0.083,0.028,0.138,0.028,0.193
				C21.695,20.253,21.695,20.281,21.695,20.281z M22.248,18.815c-0.166,0.193-0.304,0.387-0.441,0.581l0.58-0.636L22.248,18.815z
				 M22.137,20.944l0.221-0.249l0.69-0.829c-0.303,0.276-0.58,0.581-0.911,0.857l-0.138,0.111L22.137,20.944z M23.269,18.622
				l-0.359,0.47l-0.856,1.244c0.442-0.387,0.856-0.802,1.27-1.216l0.414-0.415C23.6,18.677,23.435,18.622,23.269,18.622z
				 M24.125,19.728l-1.435,1.383l-0.083,0.055l0.193,0.055L24.125,19.728z M24.069,21.055l0.083-0.138l0.607-1.078l-1.408,1.41
				h0.276C23.821,21.193,23.959,21.11,24.069,21.055z M24.345,19.037c-0.055-0.055-0.11-0.083-0.166-0.111l-0.166,0.249
				l-0.635,0.802L24.345,19.037z"/>
		</g>
		<g>
			<path fill="#5B133C" d="M38.509,24.307l-0.052,0.554c0.018,0.052,0,0.121-0.018,0.19v0.052c0,0.104-0.02,0.242-0.053,0.363
				c0,0.018,0.018,0.018,0.018,0.035c0.087,0.104-0.018,0.276-0.068,0.363c-0.068,0.104-0.139,0.19-0.189,0.294
				c-0.174,0.346-0.361,0.675-0.554,0.917v0.087c-0.034,0.052-0.12,0.104-0.173,0.138l-0.033,0.035
				c-0.156,0.173-0.328,0.328-0.502,0.467l-0.361,0.347c-0.035,0.019-0.088,0.068-0.14,0.086c-0.034,0-0.069-0.018-0.104-0.032
				c-0.412,0.225-0.795,0.362-1.069,0.448h-0.019c-0.067,0.054-0.172,0.121-0.274,0.121H34.85c-0.207,0.054-0.484,0.104-0.762,0.14
				c-0.02,0.019-0.052,0.034-0.068,0.034c-0.019,0.018-0.033,0.033-0.068,0.033c-0.053,0-0.069-0.018-0.086-0.052
				c-0.276,0.034-0.553,0.052-0.743,0.069c-0.121,0-0.259,0-0.414-0.018c-0.019,0-0.019,0.018-0.035,0.018
				c-0.016,0-0.034-0.018-0.034-0.018c-0.242-0.02-0.481-0.035-0.674-0.035c-0.154-0.034-0.432-0.053-0.587-0.12
				c-0.019,0.017-0.035,0.034-0.035,0.052c-0.017,0.104-0.017,0.207-0.017,0.346l0.017,0.277c0.019,0.034,0.019,0.052,0,0.086
				l0.019,0.189c0.019,0.019,0.019,0.053,0.019,0.088v0.068l0.034,0.52c0.02,0.035,0.034,0.104,0,0.156
				c0.02,0.121,0.02,0.225,0.052,0.328c0.087,0.327,0.242,0.674,0.449,0.898c0.259,0.313,0.467,0.259,0.569,0.294
				c0.053,0.019,0.396,0.054,0.449,0.054c0.086,0,0.172,0.051,0.188,0.207c0,0.086-0.276,0.154-0.587,0.12
				c-0.053-0.018-0.104-0.018-0.155-0.018c-0.052,0.032-0.069,0.052-0.139,0h-0.034c-0.139,0-0.294,0-0.467,0.018
				c-0.018,0.019-0.034,0.034-0.069,0.034c-0.052,0.035-0.086,0.02-0.12-0.02c0,0-0.018,0-0.018,0.02h-0.295
				c-0.016,0-0.033,0.02-0.033,0.02c-0.087,0.051-0.139,0.032-0.174-0.02c-0.482,0.035-1.035,0.087-1.45,0.141l-0.847,0.086
				l-0.121,0.086c-0.051,0.019-0.104,0-0.139-0.053l-0.275,0.053c-0.034,0.019-0.086,0.035-0.12,0.035
				c-0.019,0-0.019-0.019-0.035-0.019v0.019c-0.347,0.067-0.604,0.154-0.604,0c-0.032-0.156,0.207-0.277,0.381-0.313
				c0.087-0.02,0.449-0.121,0.641-0.571c0-0.034,0-0.067,0.018-0.087c0.035-0.104,0.068-0.189,0.088-0.313
				c-0.02-0.018-0.02-0.033-0.02-0.053c0-0.018,0.02-0.052,0.02-0.068c0.017-0.086,0.017-0.174,0.017-0.275
				c-0.086-0.02-0.067-0.121-0.017-0.227l-0.035-0.467v-0.053c-0.086-0.052-0.068-0.139-0.018-0.208v-0.381
				c0-0.173,0-0.501-0.019-0.675l-0.054-0.396l-0.032-0.088c0-0.017,0.017-0.052,0.017-0.068v-0.104c-0.017-0.208,0-0.467,0-0.656
				v-0.623c0-0.226-0.033-0.623-0.033-0.865l-0.207-0.172l0.172-0.209c-0.018-0.035,0-0.068,0.035-0.139v-0.45
				c-0.035-0.034-0.035-0.086,0-0.138c-0.019-0.45-0.019-1.021-0.019-1.367V23.51c-0.019-0.052-0.019-0.104,0-0.139
				c0-0.208,0-0.38,0.019-0.605c-0.019,0-0.035-0.017-0.035-0.017c-0.033-0.069,0-0.104,0.035-0.156v-0.485
				c-0.035-0.017-0.053-0.034-0.053-0.086c0-0.035,0.018-0.086,0.053-0.138v-0.242c0-0.173-0.019-0.346-0.035-0.502
				c-0.018-0.017-0.018-0.052-0.018-0.104c-0.035-0.138-0.087-0.259-0.173-0.329c-0.104-0.086-0.207-0.156-0.312-0.173
				c-0.035,0-0.054,0.017-0.068,0.017c-0.069,0.035-0.121,0-0.141-0.052c-0.153-0.018-0.274,0-0.293,0.017l-0.467,0.086
				c-0.242,0.035-0.414,0.018-0.346-0.156c0.035-0.052,0.208-0.121,0.396-0.173v-0.017h0.019c0.173-0.052,0.346-0.104,0.466-0.104
				c0.208-0.069,0.415-0.138,0.743-0.208h0.034c0.173-0.052,0.38-0.086,0.656-0.121c0.018,0,0.035-0.018,0.051-0.018
				c0.054-0.017,0.07,0,0.088,0h0.138c0.328-0.052,0.657-0.086,0.985-0.121l0.017-0.017c0.052-0.035,0.104-0.052,0.156,0
				c0.345-0.052,0.673-0.086,0.948-0.104l0.433-0.052c0.087-0.052,0.156-0.086,0.208,0l0.189-0.018c0-0.017,0-0.017,0.018-0.017
				c0.068-0.052,0.121-0.035,0.173,0l0.259-0.017c0,0,0.035-0.018,0.088-0.018c0.033-0.017,0.067-0.052,0.119-0.052l0.139,0.069
				c0.07,0,0.156,0,0.242,0.017c0.104-0.017,0.226-0.017,0.347-0.017c0.019-0.018,0.034-0.035,0.067-0.035
				c0.035,0,0.069,0,0.088,0.035c0.24,0.017,0.5,0.034,0.742,0.086c0.033-0.018,0.068,0,0.086,0l0.897,0.208l0.207,0.052
				c0.053-0.017,0.087,0,0.121,0.035c0,0,0.019,0,0.019,0.018c0.12,0.034,0.225,0.086,0.346,0.138c0,0,0.018,0,0.033,0.018
				c0.26,0.121,0.483,0.259,0.588,0.329c0.328,0.208,0.761,0.519,1.104,1.003c0.173,0.26,0.415,0.675,0.536,1.021
				c0.121,0.312,0.154,0.986,0.173,1.246C38.475,23.736,38.525,24.116,38.509,24.307z M28.542,20.5l0.104-0.208l-0.14,0.156
				C28.523,20.465,28.542,20.482,28.542,20.5z M28.889,20.258l-0.174,0.398l0.432-0.416C29.061,20.24,28.975,20.258,28.889,20.258z
				 M30.805,20.759c-0.535,0.554-1.054,1.125-1.537,1.713c-0.172,0.19-0.328,0.38-0.467,0.571v0.017
				c0.656-0.623,1.278-1.315,1.986-1.886c0,0,0-0.018,0.018-0.018V20.759z M28.801,21.331l0.225-0.277
				c-0.066,0.052-0.137,0.138-0.225,0.19V21.331z M28.801,23.355v0.259l0.276-0.311l1.192-1.384l-1.123,1.09
				C29.043,23.13,28.922,23.251,28.801,23.355z M30.131,23.476c0.225-0.225,0.467-0.45,0.674-0.709v-0.156l-0.449,0.416
				c-0.346,0.312-0.674,0.64-1.002,0.969l-0.465,0.467c-0.019,0.035-0.053,0.069-0.088,0.104v0.242L30.131,23.476z M28.801,24.134
				l0.104-0.121c-0.032,0.034-0.066,0.052-0.104,0.069V24.134z M28.801,25.379l0.174-0.156c0.327-0.363,0.674-0.709,1.021-1.073
				c-0.347,0.329-0.69,0.64-1.056,0.952l-0.139,0.121V25.379z M28.818,21.815v0.346c0.57-0.571,1.14-1.16,1.676-1.782l0.259-0.329
				l-0.138,0.018c-0.328,0.259-0.622,0.571-0.916,0.865C29.404,21.209,29.111,21.503,28.818,21.815z M28.818,22.697
				c0.293-0.38,0.604-0.727,0.916-1.09c-0.313,0.294-0.623,0.571-0.916,0.865V22.697z M29.164,25.898
				c0.275-0.348,0.604-0.709,0.898-1.04l-0.864,0.78l-0.38,0.362v0.313C28.922,26.176,29.043,26.037,29.164,25.898z M28.836,27.006
				l0.086-0.086c0.294-0.329,0.588-0.658,0.898-0.969c-0.26,0.242-0.502,0.501-0.76,0.726l-0.227,0.208L28.836,27.006L28.836,27.006
				z M28.854,27.975c0.189-0.259,0.414-0.5,0.621-0.744c-0.207,0.19-0.396,0.416-0.621,0.606V27.975z M28.87,28.581
				c0,0.067,0.019,0.155,0.019,0.226l0.12-0.14l0.829-0.951c-0.313,0.259-0.604,0.536-0.916,0.813L28.87,28.581z M29.563,27.456
				c-0.242,0.276-0.467,0.536-0.674,0.83l1.156-1.038l0.727-0.657l0.033-0.034c-0.018-0.067-0.018-0.139,0-0.188
				c0-0.14-0.018-0.208-0.018-0.261l-0.275,0.275L29.563,27.456z M28.904,26.539c0.604-0.555,1.175-1.16,1.779-1.73
				c0.033-0.018,0.067-0.052,0.104-0.087c0-0.104,0-0.225-0.018-0.346L30.2,25.033C29.751,25.518,29.302,26.02,28.904,26.539z
				 M30.701,30.139l-0.984,0.969c-0.26,0.261-0.501,0.521-0.777,0.763l-0.035,0.121l0.055-0.054c0.5-0.482,0.967-0.984,1.45-1.471
				L30.701,30.139z M28.922,29.43l0.38-0.416l1.157-1.246l-0.915,0.83l-0.467,0.435l-0.155,0.155V29.43z M28.957,30.467l0.673-0.762
				c-0.226,0.208-0.432,0.449-0.69,0.623C28.939,30.38,28.957,30.415,28.957,30.467z M29.318,30.691l-0.327,0.275v0.069
				L29.318,30.691z M30.425,22.057l-1.382,1.592c0.587-0.501,1.123-1.055,1.641-1.609c0.02-0.018,0.069-0.104,0.156-0.173V21.59
				L30.425,22.057z M29.077,29.947c0.64-0.57,1.192-1.229,1.797-1.816v-0.035l-0.121,0.139
				C30.184,28.807,29.613,29.377,29.077,29.947z M30.908,28.909v-0.328c-0.018,0-0.018,0.017-0.018,0.017l-0.483,0.555l-1.226,1.367
				c0.518-0.468,1.034-0.953,1.535-1.438L30.908,28.909z M30.027,20.119l-0.69,0.865c0.312-0.294,0.621-0.605,0.933-0.882
				L30.027,20.119z M29.439,26.902c0.433-0.381,0.897-0.762,1.277-1.211l0.053-0.053C30.27,26.002,29.854,26.471,29.439,26.902z
				 M30.771,23.753v-0.121l-0.121,0.121l-1.157,1.229c0.414-0.381,0.812-0.779,1.209-1.177L30.771,23.753z M30.787,31.159
				l-1.001,0.917l-0.19,0.154l0.467-0.051l0.068-0.07L30.787,31.159z M30.822,26.902h-0.018c-0.104,0.139-0.227,0.274-0.348,0.414
				c-0.259,0.276-0.52,0.572-0.76,0.865l0.828-0.763l0.328-0.313c0-0.051-0.018-0.104-0.018-0.153
				C30.84,26.938,30.822,26.92,30.822,26.902z M30.787,25.241l-0.656,0.675c0.189-0.189,0.415-0.416,0.656-0.537V25.241z
				 M30.771,23.095l-0.313,0.346l0.313-0.294V23.095z M30.787,32.128l0.396-0.657v-0.018c-0.24,0.207-0.467,0.449-0.675,0.675
				c-0.017,0-0.017,0-0.017,0.019C30.598,32.128,30.701,32.128,30.787,32.128z M30.512,22.594c0.068-0.069,0.189-0.156,0.313-0.26
				v-0.086L30.512,22.594z M30.805,20.327l-0.104,0.139l0.104-0.121V20.327z M30.734,31.592c0.053-0.053,0.209-0.226,0.363-0.347
				c-0.019-0.034-0.035-0.069-0.035-0.104C30.943,31.279,30.84,31.436,30.734,31.592z M30.874,27.629l-0.087,0.104l0.087-0.067
				V27.629z M30.926,29.896l-0.139,0.139l0.139-0.121V29.896z M30.979,30.415l-0.174,0.173c0.053-0.035,0.104-0.104,0.174-0.156
				V30.415z M31.288,31.695l-0.155,0.26l0.19-0.208L31.288,31.695z M31.236,21.175c0,0.156,0.035,0.225,0.035,0.363
				c0,0.208-0.02,0.433-0.02,0.658c0.02,0.017,0.034,0.052,0.034,0.104c0.019,0.069,0,0.139-0.054,0.208v0.19
				c0.088-0.052,0.141-0.035,0.175,0.035c0.018,0.069,0.018,0.156-0.14,0.363L31.2,23.165v0.312c0.032,0.035,0.018,0.086,0,0.121
				v0.086c0.052,0.035,0.032,0.104,0,0.19c-0.019,0.173-0.019,0.537-0.019,0.744v0.069c0,0.052,0,0.104,0.019,0.121
				c0.018,0.138,0.018,0.346,0.018,0.571v0.605c0,0.156,0.019,0.275,0.019,0.416c-0.019,0.173,0,0.346,0.035,0.502
				c0.052,0.033,0.033,0.104,0.017,0.173c0,0.069,0.019,0.155,0.019,0.241c0,0.121,0.019,0.711,0.019,1.057
				c0.086,0.121,0.655,0.225,0.967,0.26h0.052l0.053-0.052c0.068-0.035,0.121,0,0.174,0.052h0.207c0.018,0,0.053-0.018,0.068-0.018
				h0.139c0.086,0,0.188-0.018,0.293-0.034c0.14-0.035,0.347-0.122,0.537-0.208l0.138-0.121c0.052-0.052,0.12-0.104,0.173-0.035
				l0.121-0.068c0.154-0.188,0.259-0.275,0.38-0.433c-0.034-0.053-0.034-0.104-0.019-0.155c0.053-0.121,0.156-0.226,0.226-0.313
				c0.052-0.034,0.087-0.086,0.121-0.121c0-0.018,0.019-0.018,0.019-0.034c0.137-0.312,0.258-0.831,0.346-1.437
				c0-0.069,0.018-0.121,0.018-0.19c-0.034-0.017-0.052-0.069-0.034-0.121c0-0.017,0.034-0.052,0.054-0.069
				c0.018-0.086,0.018-0.155,0.018-0.225l-0.035-0.069c0-0.069,0.018-0.121,0.053-0.173v-0.121c0-0.554-0.053-1.107-0.086-1.558
				c-0.053-0.501-0.347-1.246-0.468-1.644c-0.12-0.312-0.362-0.675-0.604-0.935c-0.017-0.017-0.032-0.035-0.032-0.052
				c-0.104-0.121-0.207-0.225-0.296-0.277c-0.018-0.018-0.032-0.018-0.032-0.035c-0.035,0-0.069-0.018-0.088-0.052
				c-0.433-0.243-1.313-0.312-1.796-0.294c-0.018,0.018-0.033,0.035-0.053,0.035c-0.067,0.052-0.104,0.035-0.139,0
				c-0.068,0-0.139,0.017-0.189,0.035c-0.051,0.052-0.104,0.104-0.172,0.121c-0.053,0-0.104-0.017-0.121-0.069
				c-0.019,0-0.019,0-0.035,0.018l-0.033,0.778v0.416H31.236z M34.553,20.31l0.104,0.104c0.034-0.104,0.087-0.208,0.12-0.329
				C34.709,20.171,34.641,20.24,34.553,20.31z M34.934,28.338c0.189-0.225,0.434-0.432,0.641-0.64
				c0.654-0.657,1.348-1.28,1.984-1.938l-2.177,1.99l-0.812,0.727C34.691,28.441,34.829,28.391,34.934,28.338z M35.002,20.102
				c-0.052,0.121-0.104,0.242-0.139,0.363l0.294-0.312L35.002,20.102z M34.881,20.725l0.018,0.018c0-0.018,0-0.018,0.02-0.035
				C34.898,20.708,34.898,20.725,34.881,20.725z M35.089,21.054l0.052,0.104c0.034-0.017,0.053-0.052,0.068-0.069l0.275-0.416
				l-0.312,0.294C35.141,20.984,35.123,21.019,35.089,21.054z M35.141,27.698c0.83-0.744,1.643-1.507,2.452-2.25l0.415-0.363
				c0-0.156,0.018-0.225,0.018-0.346c-0.433,0.381-0.83,0.778-1.242,1.159c-0.469,0.433-0.915,0.898-1.399,1.332
				c-0.032,0.086-0.067,0.154-0.086,0.226L35.141,27.698z M35.469,20.24l-0.294,0.433l0.433-0.381L35.469,20.24z M35.296,21.538
				c0.155-0.173,0.312-0.346,0.449-0.519c-0.155,0.138-0.312,0.294-0.483,0.433L35.296,21.538z M35.797,21.469
				c-0.121,0.139-0.26,0.26-0.396,0.381l0.033,0.052L35.797,21.469z M37.748,25.984l0.104-0.207
				c-0.121,0.104-0.225,0.207-0.328,0.328c-0.689,0.676-1.449,1.332-2.125,2.043l0.261-0.121l0.534-0.502
				c0.449-0.416,0.883-0.851,1.313-1.299C37.593,26.158,37.662,26.07,37.748,25.984z M35.537,22.213
				c0.018,0.052,0.035,0.104,0.035,0.156l0.38-0.537L35.537,22.213z M35.9,20.414c-0.086,0.156-0.19,0.294-0.295,0.45
				c0.14-0.139,0.275-0.26,0.433-0.381L35.9,20.414z M37.576,24.168c0.154-0.19,0.311-0.363,0.449-0.554v-0.017
				c-0.277,0.173-0.502,0.416-0.743,0.623c-0.38,0.363-0.743,0.727-1.089,1.107l-0.467,0.483c-0.019,0.155-0.033,0.295-0.068,0.433
				C36.314,25.57,36.954,24.877,37.576,24.168z M36.973,21.573c-0.347,0.312-0.658,0.64-0.986,0.986l-0.293,0.312
				c0.019,0.052,0.019,0.121,0.019,0.173l0.363-0.415C36.367,22.282,36.678,21.936,36.973,21.573z M36.833,21.001l-0.226,0.312
				c-0.312,0.398-0.621,0.813-0.897,1.229l0.881-0.899c0.156-0.156,0.312-0.312,0.484-0.433L36.833,21.001z M35.762,23.684
				l0.053-0.052c0.449-0.571,0.949-1.125,1.436-1.696c-0.348,0.312-0.657,0.64-0.968,0.969c-0.175,0.173-0.347,0.363-0.535,0.536
				C35.762,23.528,35.762,23.597,35.762,23.684z M37.714,22.144c-0.052-0.086-0.104-0.173-0.138-0.259l-0.053,0.052
				c-0.569,0.692-1.191,1.333-1.729,2.059c0.622-0.588,1.189-1.211,1.831-1.782L37.714,22.144z M35.797,25.258l0.121-0.138
				l-0.121,0.104V25.258z M35.814,24.809l0.273-0.294c-0.086,0.086-0.188,0.173-0.273,0.277V24.809z M36.314,20.638l-0.104,0.139
				l0.121-0.121C36.332,20.638,36.314,20.638,36.314,20.638z M36.591,20.829c-0.104,0.156-0.224,0.294-0.345,0.45l0.293-0.311
				c0.035-0.018,0.068-0.069,0.104-0.104C36.626,20.846,36.607,20.829,36.591,20.829z M37.127,26.988
				c0.068-0.068,0.104-0.155,0.189-0.26L36.4,27.611C36.66,27.456,36.902,27.23,37.127,26.988z M37.854,22.473
				c-0.068,0.086-0.155,0.156-0.226,0.225c-0.38,0.398-0.743,0.744-1.123,1.125c0.328-0.313,0.64-0.588,0.983-0.883l0.398-0.363
				c0-0.017-0.02-0.052-0.02-0.069C37.869,22.49,37.854,22.49,37.854,22.473z M37.368,21.573c-0.017-0.035-0.034-0.069-0.068-0.104
				c0,0.018-0.018,0.018-0.018,0.035c-0.121,0.173-0.259,0.329-0.397,0.484c0.139-0.121,0.276-0.259,0.432-0.38
				C37.334,21.59,37.352,21.573,37.368,21.573z M37.956,22.905l-0.588,0.588l0.501-0.467l0.087-0.104V22.905z M37.473,24.583
				c0.172-0.156,0.328-0.329,0.52-0.467l0.068-0.069v-0.138l-0.088,0.104C37.816,24.203,37.645,24.393,37.473,24.583z M37.68,23.597
				c0.104-0.086,0.207-0.173,0.328-0.225c0-0.034,0-0.069-0.018-0.104L37.68,23.597z"/>
			<path fill="#5B133C" d="M40.618,31.539c0.019,0.035,0.019,0.104-0.034,0.139l-0.208,0.208c-0.086,0.087-0.224,0.294-0.362,0.294
				c-0.052,0-0.086-0.018-0.086-0.052c-0.104,0.034-0.207,0.069-0.294,0.069c-0.173,0-0.362-0.035-0.519-0.088
				c-0.034,0.019-0.068,0.019-0.121-0.019c-0.018-0.017-0.034-0.032-0.034-0.052l-0.069-0.053c-0.207-0.12-0.345-0.313-0.449-0.52
				c-0.051-0.018-0.086-0.053-0.086-0.104c0-0.034,0-0.053,0.02-0.086c-0.035-0.121-0.068-0.242-0.068-0.348
				c-0.019-0.363-0.019-0.676,0.154-0.97c0-0.019,0.02-0.033,0.035-0.033c-0.035-0.034-0.035-0.054-0.035-0.104
				c0.02-0.052,0.121-0.121,0.173-0.173c0.104-0.104,0.226-0.26,0.347-0.33c0.035-0.016,0.053-0.033,0.086-0.033
				c0.053,0,0.068,0.018,0.088,0.052c0.138-0.069,0.293-0.086,0.449-0.086c0.293,0,0.553,0.138,0.774,0.347
				c0.156,0.121,0.242,0.26,0.347,0.396c0.104,0.227,0.189,0.416,0.207,0.658C40.945,30.898,40.825,31.245,40.618,31.539z
				 M38.718,30.796l0.052-0.053c0.174-0.276,0.363-0.536,0.555-0.813c-0.189,0.174-0.381,0.346-0.569,0.502
				C38.734,30.553,38.718,30.674,38.718,30.796z M38.805,31.159c0.02,0.069,0.053,0.138,0.104,0.207
				c0.052-0.087,0.104-0.155,0.104-0.173l0.674-0.899l-0.623,0.604L38.805,31.159z M39.186,31.66l0.172-0.207
				c0.276-0.329,0.555-0.641,0.813-0.969c-0.259,0.242-0.519,0.5-0.76,0.761c-0.121,0.104-0.226,0.226-0.328,0.329
				C39.1,31.607,39.15,31.645,39.186,31.66z M39.928,29.811c-0.068-0.054-0.139-0.088-0.225-0.121l-0.087,0.154
				c-0.138,0.225-0.276,0.434-0.433,0.641c0.226-0.207,0.448-0.433,0.689-0.641C39.893,29.844,39.91,29.826,39.928,29.811z
				 M39.529,31.747c0.018,0.019,0.035,0.019,0.07,0.019l0.273-0.348C39.755,31.521,39.634,31.626,39.529,31.747z M40.169,30.018
				l-0.155,0.189l-0.38,0.502c0.207-0.189,0.414-0.398,0.622-0.57c0.018,0,0.018,0,0.034-0.018
				C40.256,30.104,40.221,30.052,40.169,30.018z M40.445,30.484c-0.155,0.207-0.328,0.396-0.483,0.588l0.519-0.467
				C40.48,30.553,40.463,30.52,40.445,30.484z"/>
		</g>
	</g>
</g>
</svg>
