<?xml version="1.0" encoding="utf-8"?>
<!-- Generator: Adobe Illustrator 16.0.0, SVG Export Plug-In . SVG Version: 6.00 Build 0)  -->
<!DOCTYPE svg PUBLIC "-//W3C//DTD SVG 1.0//EN" "http://www.w3.org/TR/2001/REC-SVG-20010904/DTD/svg10.dtd">
<svg version="1.0" id="Calque_1" xmlns="http://www.w3.org/2000/svg" xmlns:xlink="http://www.w3.org/1999/xlink" x="0px" y="0px"
	 width="20px" height="68px" viewBox="0 0 20 68" enable-background="new 0 0 20 68" xml:space="preserve">
<g>
	<rect x="8" y="0.141" fill="#5B133C" width="3" height="61"/>
</g>
<g>
	<path fill="#764B68" d="M1.369,57.691c0.373,0.134,0.803,0.216,1.064,0.517c0.006,0.353,0.039,0.697,0.092,1.034
		c-0.459,0.083-0.67,0.459-0.928,0.82c-0.197,0.279-0.605,0.578-1.207,0.709c0.459,0.313,0.995,0.451,1.432,0.451
		c0.047,0,0.094-0.002,0.141-0.004c0.225-0.018,0.459-0.057,0.686-0.057c0.17,0,0.341,0.023,0.494,0.096
		c0.148,0.313,0.316,0.617,0.506,0.908c-0.383,0.262-0.422,0.689-0.512,1.127c-0.068,0.333-0.32,0.773-0.816,1.137
		c0.154,0.028,0.308,0.041,0.455,0.041c0.445,0,0.861-0.111,1.162-0.272c0.345-0.183,0.688-0.444,1.08-0.444
		c0.006,0,0.012,0,0.019,0c0.26,0.227,0.537,0.436,0.828,0.625c-0.244,0.395-0.104,0.803-0.011,1.237
		c0.074,0.333,0.023,0.836-0.283,1.372c0.601-0.146,1.104-0.51,1.386-0.872c0.242-0.312,0.453-0.694,0.817-0.851
		c0.328,0.1,0.668,0.178,1.015,0.232c-0.063,0.459,0.231,0.775,0.495,1.135c0.203,0.273,0.361,0.752,0.3,1.367
		c0.488-0.377,0.8-0.913,0.91-1.357c0.094-0.383,0.131-0.82,0.401-1.111c0.349-0.042,0.688-0.11,1.021-0.199
		c0.128,0.447,0.525,0.616,0.913,0.835c0.296,0.169,0.636,0.543,0.831,1.128c0.292-0.543,0.358-1.16,0.277-1.611
		c-0.068-0.388-0.214-0.801-0.085-1.178c0.298-0.178,0.582-0.38,0.852-0.598c0.3,0.355,0.73,0.35,1.175,0.393
		c0.337,0.032,0.8,0.236,1.215,0.692c0.048-0.615-0.143-1.205-0.4-1.585c-0.221-0.327-0.521-0.646-0.556-1.042
		c0.197-0.285,0.377-0.581,0.535-0.892c0.134,0.064,0.264,0.09,0.394,0.09c0.277,0,0.551-0.115,0.839-0.211
		c0.13-0.043,0.287-0.067,0.468-0.067c0.271,0,0.588,0.058,0.926,0.206c-0.209-0.581-0.622-1.042-1.011-1.285
		c-0.335-0.208-0.738-0.378-0.933-0.727c0.063-0.336,0.107-0.68,0.125-1.031c0.012,0.001,0.021,0.002,0.031,0.002
		c0.446,0,0.725-0.318,1.046-0.613c0.252-0.229,0.713-0.438,1.329-0.439c-0.427-0.446-0.992-0.701-1.445-0.764
		c-0.392-0.054-0.828-0.045-1.146-0.283c-0.08-0.34-0.183-0.674-0.306-0.994c0.43-0.176,0.558-0.588,0.733-0.996
		c0.137-0.313,0.473-0.688,1.036-0.944c-0.329-0.134-0.678-0.192-0.995-0.192c-0.232,0-0.449,0.031-0.637,0.084
		c-0.311,0.09-0.631,0.231-0.948,0.231c-0.072,0-0.145-0.008-0.216-0.024c-0.21-0.276-0.438-0.539-0.685-0.783
		c0.323-0.336,0.271-0.764,0.27-1.209c-0.002-0.34,0.151-0.822,0.562-1.283c-0.616,0.02-1.185,0.27-1.532,0.564
		c-0.304,0.254-0.588,0.584-0.979,0.662c-0.302-0.166-0.615-0.313-0.943-0.438c0.158-0.437-0.064-0.808-0.248-1.212
		c-0.141-0.311-0.194-0.813-0.01-1.4c-0.556,0.268-0.971,0.727-1.171,1.141c-0.172,0.354-0.298,0.773-0.627,1.002
		c-0.209-0.018-0.423-0.026-0.639-0.026c-0.134,0-0.268,0.004-0.399,0.01c-0.033-0.462-0.387-0.712-0.719-1.007
		c-0.256-0.227-0.51-0.663-0.578-1.275c-0.397,0.469-0.592,1.06-0.606,1.518C7.645,50.17,7.7,50.605,7.495,50.946
		c-0.328,0.114-0.647,0.25-0.957,0.407c-0.22-0.407-0.644-0.491-1.065-0.625c-0.324-0.104-0.736-0.398-1.048-0.932
		c-0.174,0.592-0.108,1.209,0.063,1.633c0.15,0.365,0.377,0.741,0.326,1.137c-0.252,0.236-0.486,0.49-0.705,0.76
		c-0.195-0.152-0.406-0.195-0.627-0.195c-0.195,0-0.398,0.033-0.604,0.057c-0.045,0.004-0.09,0.008-0.139,0.008
		c-0.328,0-0.761-0.118-1.197-0.432c0.084,0.611,0.392,1.149,0.724,1.467c0.282,0.272,0.643,0.521,0.76,0.902
		c-0.137,0.317-0.248,0.646-0.338,0.984C2.613,56.1,2.542,56.09,2.475,56.09c-0.353,0-0.646,0.213-0.968,0.401
		c-0.205,0.12-0.508,0.208-0.879,0.208c-0.157,0-0.33-0.016-0.514-0.055C0.438,57.17,0.939,57.535,1.369,57.691z"/>
	<path fill="#764B68" d="M1.215,57.819c-0.002,0.079-0.004,0.159-0.004,0.241c0,0.664,0.076,1.313,0.219,1.936
		c0.008-0.012,0.019-0.023,0.025-0.035c0.016-0.02,0.027-0.04,0.043-0.061c-0.131-0.592-0.197-1.209-0.197-1.84
		c0-0.07,0-0.139,0.002-0.207C1.273,57.844,1.244,57.831,1.215,57.819z"/>
	<path fill="#764B68" d="M15.724,51.521c0,0.027,0,0.055,0,0.08c0.512,0.457,0.968,0.973,1.359,1.537
		c0.028-0.008,0.062-0.015,0.091-0.021c-0.414-0.604-0.901-1.15-1.45-1.631C15.724,51.498,15.723,51.51,15.724,51.521z"/>
	<path fill="#764B68" d="M12.598,49.811c0.66,0.211,1.286,0.5,1.868,0.856c0.023-0.021,0.05-0.039,0.074-0.058
		c-0.618-0.381-1.285-0.688-1.991-0.906c0.006,0.014,0.012,0.027,0.018,0.04C12.578,49.766,12.588,49.788,12.598,49.811z"/>
	<path fill="#764B68" d="M5.598,50.58c0.588-0.342,1.219-0.621,1.885-0.818c0.002-0.031,0.002-0.063,0.004-0.095
		c-0.707,0.209-1.377,0.507-2,0.878c0.015,0.006,0.025,0.01,0.037,0.014C5.549,50.566,5.572,50.574,5.598,50.58z"/>
	<path fill="#764B68" d="M2.934,53.002c0.404-0.556,0.869-1.064,1.39-1.51c-0.011-0.029-0.021-0.059-0.033-0.087
		c-0.556,0.473-1.047,1.014-1.472,1.61c0.015-0.002,0.025-0.002,0.037-0.004C2.883,53.01,2.908,53.006,2.934,53.002z"/>
	<path fill="#764B68" d="M2.137,54.35c-0.022-0.02-0.045-0.043-0.066-0.064c-0.313,0.648-0.547,1.346-0.69,2.074
		c0.015-0.008,0.024-0.016,0.039-0.021c0.021-0.013,0.043-0.025,0.063-0.037C1.623,55.617,1.844,54.965,2.137,54.35z"/>
	<path fill="#764B68" d="M9.016,49.452c0.311-0.034,0.625-0.054,0.944-0.054c0.376,0,0.747,0.027,1.109,0.074
		c0.015-0.028,0.028-0.056,0.043-0.084c-0.378-0.049-0.762-0.076-1.152-0.076c-0.35,0-0.694,0.021-1.033,0.062
		c0.011,0.009,0.021,0.021,0.031,0.03C8.977,49.419,8.996,49.436,9.016,49.452z"/>
	<path fill="#764B68" d="M9.096,66.678c-0.695-0.07-1.369-0.221-2.006-0.445c-0.02,0.023-0.041,0.048-0.061,0.072
		c0.678,0.24,1.393,0.401,2.136,0.469c-0.008-0.012-0.017-0.023-0.024-0.034C9.125,66.717,9.111,66.697,9.096,66.678z"/>
	<path fill="#764B68" d="M2.965,63.258c0.004-0.027,0.008-0.054,0.014-0.08c-0.403-0.549-0.744-1.147-1.01-1.785
		c-0.031,0.002-0.063,0.002-0.096,0.004c0.283,0.678,0.646,1.314,1.082,1.896C2.959,63.282,2.961,63.268,2.965,63.258z"/>
	<path fill="#764B68" d="M12.675,66.284c-0.642,0.212-1.317,0.353-2.015,0.407c-0.009,0.031-0.018,0.061-0.025,0.091
		c0.744-0.058,1.461-0.207,2.143-0.44c-0.014-0.007-0.023-0.015-0.035-0.021C12.719,66.309,12.699,66.295,12.675,66.284z"/>
	<path fill="#764B68" d="M17.885,54.432c-0.011,0.023-0.02,0.047-0.031,0.069c0.28,0.619,0.491,1.276,0.619,1.961
		c0.031,0.005,0.062,0.009,0.091,0.015c-0.133-0.729-0.356-1.428-0.661-2.082C17.896,54.406,17.891,54.42,17.885,54.432z"/>
	<path fill="#764B68" d="M5.682,65.653c-0.004-0.025-0.01-0.05-0.016-0.075c-0.598-0.342-1.15-0.755-1.648-1.225
		c-0.024,0.016-0.055,0.029-0.084,0.041c0.527,0.502,1.117,0.94,1.756,1.3C5.688,65.68,5.686,65.667,5.682,65.653z"/>
	<path fill="#764B68" d="M15.779,64.469c-0.506,0.459-1.064,0.86-1.67,1.191c0.007,0.029,0.011,0.061,0.016,0.092
		c0.644-0.35,1.237-0.777,1.771-1.271c-0.013-0.002-0.023-0.004-0.037-0.006C15.833,64.473,15.806,64.471,15.779,64.469z"/>
	<path fill="#764B68" d="M18.465,60.115c0.16-0.66,0.245-1.348,0.245-2.055c0-0.041-0.002-0.08-0.002-0.121
		c-0.013,0.01-0.022,0.02-0.033,0.027c-0.019,0.018-0.036,0.035-0.055,0.051c0,0.015,0.001,0.028,0.001,0.043
		c0,0.688-0.082,1.358-0.234,2.002C18.413,60.079,18.439,60.098,18.465,60.115z"/>
	<path fill="#764B68" d="M16.841,63.313c0.018,0.027,0.034,0.053,0.051,0.078c0.442-0.574,0.816-1.205,1.107-1.881
		c-0.013,0.004-0.027,0.008-0.04,0.012c-0.023,0.008-0.046,0.017-0.07,0.024C17.608,62.178,17.256,62.77,16.841,63.313z"/>
</g>
</svg>
