<?xml version="1.0" encoding="utf-8"?>
<!-- Generator: Adobe Illustrator 16.0.0, SVG Export Plug-In . SVG Version: 6.00 Build 0)  -->
<!DOCTYPE svg PUBLIC "-//W3C//DTD SVG 1.0//EN" "http://www.w3.org/TR/2001/REC-SVG-20010904/DTD/svg10.dtd">
<svg version="1.0" id="Calque_1" xmlns="http://www.w3.org/2000/svg" xmlns:xlink="http://www.w3.org/1999/xlink" x="0px" y="0px"
	 width="40px" height="80.5px" viewBox="0 0 40 80.5" enable-background="new 0 0 40 80.5" xml:space="preserve">
<g>
	<rect x="18" y="19" fill="#5B133C" width="3" height="62"/>
</g>
<g>
	<path fill="#61BEDF" d="M36.984,20.288c-0.733-0.263-1.58-0.425-2.095-1.019c-0.012-0.69-0.074-1.37-0.179-2.035
		c0.9-0.162,1.314-0.903,1.822-1.615c0.392-0.546,1.193-1.134,2.379-1.393c-0.903-0.616-1.96-0.887-2.818-0.887
		c-0.095,0-0.187,0.003-0.276,0.01c-0.441,0.032-0.903,0.11-1.351,0.11c-0.337,0-0.666-0.045-0.972-0.187
		c-0.291-0.621-0.623-1.219-0.997-1.789c0.756-0.515,0.833-1.36,1.01-2.218c0.135-0.657,0.628-1.521,1.605-2.239
		c-0.302-0.055-0.603-0.08-0.897-0.08c-0.874,0-1.691,0.219-2.285,0.538c-0.677,0.361-1.354,0.875-2.126,0.875
		c-0.011,0-0.021-0.001-0.032-0.002c-0.515-0.446-1.061-0.855-1.634-1.229c0.482-0.776,0.207-1.581,0.02-2.436
		c-0.143-0.655-0.044-1.646,0.557-2.7c-1.179,0.289-2.169,1.002-2.723,1.714c-0.475,0.613-0.891,1.366-1.61,1.674
		c-0.647-0.196-1.314-0.35-1.995-0.457c0.123-0.904-0.454-1.528-0.975-2.232C21.015,2.153,20.702,1.208,20.823,0
		c-0.961,0.743-1.573,1.797-1.791,2.673c-0.185,0.754-0.258,1.613-0.792,2.187c-0.686,0.084-1.355,0.217-2.008,0.392
		c-0.255-0.877-1.036-1.211-1.797-1.644c-0.583-0.331-1.252-1.066-1.635-2.219c-0.575,1.069-0.707,2.282-0.548,3.169
		c0.137,0.765,0.421,1.577,0.166,2.319c-0.586,0.354-1.145,0.748-1.673,1.178c-0.59-0.699-1.44-0.688-2.313-0.773
		C7.768,7.217,6.856,6.816,6.039,5.919C5.947,7.13,6.321,8.291,6.828,9.038c0.436,0.643,1.025,1.271,1.094,2.053
		c-0.39,0.558-0.742,1.142-1.052,1.751c-0.264-0.127-0.521-0.177-0.775-0.177c-0.546,0-1.083,0.227-1.648,0.414
		c-0.256,0.085-0.568,0.137-0.922,0.137c-0.531,0-1.155-0.115-1.821-0.407c0.409,1.143,1.223,2.052,1.988,2.528
		c0.66,0.409,1.453,0.744,1.834,1.429c-0.126,0.663-0.21,1.341-0.245,2.032c-0.021-0.002-0.041-0.004-0.062-0.004
		c-0.878,0-1.426,0.627-2.059,1.204c-0.495,0.452-1.401,0.861-2.615,0.868c0.839,0.878,1.951,1.378,2.845,1.501
		c0.769,0.105,1.629,0.088,2.255,0.559c0.156,0.67,0.357,1.324,0.602,1.957c-0.845,0.346-1.096,1.156-1.445,1.958
		c-0.27,0.615-0.931,1.356-2.037,1.857c0.649,0.266,1.332,0.38,1.959,0.38c0.457,0,0.885-0.061,1.251-0.166
		c0.608-0.178,1.239-0.455,1.868-0.455c0.141,0,0.282,0.016,0.423,0.049c0.413,0.544,0.86,1.059,1.344,1.54
		c-0.635,0.66-0.533,1.504-0.527,2.38c0.005,0.671-0.297,1.617-1.104,2.525c1.214-0.037,2.33-0.53,3.019-1.111
		c0.594-0.501,1.155-1.151,1.925-1.303c0.595,0.328,1.214,0.618,1.857,0.864c-0.31,0.859,0.126,1.588,0.487,2.384
		c0.275,0.611,0.385,1.6,0.018,2.757c1.093-0.527,1.912-1.43,2.306-2.242c0.338-0.699,0.587-1.524,1.232-1.974
		c0.414,0.034,0.833,0.053,1.256,0.053c0.265,0,0.527-0.008,0.786-0.021c0.067,0.911,0.763,1.401,1.416,1.982
		c0.503,0.445,1.004,1.304,1.137,2.511c0.786-0.926,1.167-2.085,1.196-2.986c0.024-0.774-0.084-1.628,0.318-2.3
		c0.649-0.226,1.279-0.493,1.885-0.803c0.432,0.803,1.265,0.968,2.1,1.232c0.639,0.203,1.446,0.783,2.059,1.831
		c0.341-1.165,0.218-2.379-0.122-3.214c-0.295-0.721-0.741-1.458-0.644-2.238c0.496-0.465,0.96-0.964,1.39-1.494
		c0.384,0.3,0.8,0.386,1.234,0.386c0.382,0,0.781-0.066,1.188-0.112c0.087-0.009,0.177-0.015,0.272-0.015
		c0.646,0,1.494,0.232,2.354,0.85c-0.162-1.203-0.769-2.262-1.419-2.887c-0.56-0.537-1.266-1.027-1.496-1.775
		c0.266-0.625,0.485-1.272,0.665-1.938c0.144,0.034,0.283,0.054,0.419,0.054c0.691,0,1.27-0.418,1.901-0.789
		c0.403-0.237,1-0.411,1.729-0.411c0.313,0,0.652,0.032,1.011,0.106C38.816,21.315,37.831,20.596,36.984,20.288z"/>
	<path fill="#61BEDF" d="M37.286,20.036c0.005-0.157,0.01-0.315,0.01-0.474c0-1.31-0.15-2.584-0.429-3.811
		c-0.018,0.023-0.036,0.045-0.053,0.068c-0.027,0.039-0.055,0.078-0.082,0.118c0.255,1.168,0.39,2.381,0.39,3.624
		c0,0.137-0.003,0.271-0.006,0.406C37.173,19.99,37.23,20.013,37.286,20.036z"/>
	<path fill="#61BEDF" d="M8.735,32.428c0-0.053-0.001-0.105-0.001-0.157c-1.007-0.898-1.905-1.913-2.675-3.024
		c-0.058,0.017-0.118,0.03-0.179,0.044c0.814,1.186,1.775,2.265,2.854,3.211C8.735,32.477,8.737,32.451,8.735,32.428z"/>
	<path fill="#61BEDF" d="M14.888,35.796c-1.301-0.417-2.532-0.984-3.677-1.686c-0.047,0.039-0.096,0.078-0.145,0.115
		c1.214,0.749,2.527,1.35,3.916,1.781c-0.011-0.026-0.021-0.053-0.034-0.078C14.929,35.885,14.907,35.84,14.888,35.796z"/>
	<path fill="#61BEDF" d="M28.663,34.28c-1.156,0.677-2.399,1.222-3.707,1.613c-0.003,0.061-0.007,0.123-0.011,0.184
		c1.395-0.411,2.713-0.996,3.937-1.727c-0.024-0.009-0.049-0.019-0.074-0.026C28.759,34.309,28.712,34.295,28.663,34.28z"/>
	<path fill="#61BEDF" d="M33.903,29.516c-0.792,1.095-1.709,2.094-2.731,2.973c0.022,0.056,0.044,0.113,0.065,0.171
		c1.091-0.931,2.063-1.995,2.896-3.169c-0.025,0.003-0.05,0.004-0.074,0.006C34.007,29.503,33.955,29.51,33.903,29.516z"/>
	<path fill="#61BEDF" d="M35.476,26.862c0.044,0.042,0.087,0.086,0.129,0.13c0.615-1.28,1.076-2.649,1.36-4.082
		c-0.026,0.015-0.052,0.029-0.074,0.041c-0.043,0.025-0.084,0.05-0.126,0.076C36.486,24.37,36.051,25.655,35.476,26.862z"/>
	<path fill="#61BEDF" d="M21.938,36.504c-0.611,0.066-1.232,0.103-1.862,0.103c-0.738,0-1.469-0.05-2.184-0.143
		c-0.027,0.055-0.055,0.109-0.085,0.164c0.744,0.099,1.501,0.151,2.269,0.151c0.689,0,1.368-0.042,2.034-0.121
		c-0.02-0.02-0.04-0.04-0.061-0.059C22.013,36.567,21.977,36.535,21.938,36.504z"/>
	<path fill="#61BEDF" d="M21.779,2.605c1.37,0.137,2.693,0.435,3.95,0.878c0.038-0.048,0.077-0.096,0.117-0.142
		c-1.334-0.477-2.742-0.792-4.204-0.924c0.016,0.023,0.032,0.047,0.049,0.069C21.721,2.527,21.749,2.566,21.779,2.605z"/>
	<path fill="#61BEDF" d="M33.846,9.336c-0.011,0.051-0.02,0.103-0.03,0.154c0.796,1.081,1.466,2.26,1.991,3.515
		c0.06-0.005,0.123-0.006,0.186-0.007c-0.555-1.338-1.272-2.591-2.13-3.734C33.856,9.288,33.851,9.313,33.846,9.336z"/>
	<path fill="#61BEDF" d="M14.734,3.379c1.263-0.419,2.593-0.692,3.966-0.803c0.015-0.06,0.032-0.118,0.05-0.177
		c-1.464,0.111-2.876,0.407-4.216,0.864c0.024,0.015,0.047,0.029,0.071,0.043C14.648,3.331,14.69,3.355,14.734,3.379z"/>
	<path fill="#61BEDF" d="M4.483,26.703c0.021-0.046,0.039-0.092,0.059-0.138c-0.551-1.218-0.964-2.511-1.216-3.858
		c-0.061-0.01-0.121-0.019-0.181-0.029c0.263,1.436,0.705,2.811,1.303,4.1C4.46,26.752,4.473,26.727,4.483,26.703z"/>
	<path fill="#61BEDF" d="M28.496,4.62c0.011,0.05,0.023,0.099,0.033,0.148c1.177,0.675,2.264,1.484,3.242,2.408
		c0.053-0.028,0.11-0.055,0.165-0.08c-1.036-0.988-2.197-1.849-3.455-2.556C28.485,4.568,28.49,4.594,28.496,4.62z"/>
	<path fill="#61BEDF" d="M8.626,6.952c0.996-0.904,2.098-1.693,3.286-2.345c-0.011-0.06-0.02-0.12-0.029-0.181
		c-1.267,0.688-2.438,1.53-3.487,2.501C8.42,6.932,8.444,6.936,8.469,6.938C8.521,6.943,8.573,6.948,8.626,6.952z"/>
	<path fill="#61BEDF" d="M3.342,15.521c-0.314,1.297-0.482,2.65-0.482,4.042c0,0.079,0.003,0.157,0.004,0.235
		c0.021-0.019,0.043-0.037,0.064-0.055c0.035-0.033,0.071-0.066,0.106-0.099c0-0.027-0.002-0.055-0.002-0.082
		c0-1.357,0.162-2.676,0.463-3.941C3.443,15.589,3.392,15.556,3.342,15.521z"/>
	<path fill="#61BEDF" d="M6.536,9.225C6.502,9.174,6.47,9.123,6.438,9.07c-0.872,1.131-1.606,2.374-2.179,3.704
		c0.025-0.008,0.053-0.014,0.079-0.023c0.046-0.015,0.092-0.031,0.139-0.048C5.025,11.459,5.72,10.293,6.536,9.225z"/>
</g>
</svg>
