<?xml version="1.0" encoding="utf-8"?>
<!-- Generator: Adobe Illustrator 16.0.0, SVG Export Plug-In . SVG Version: 6.00 Build 0)  -->
<!DOCTYPE svg PUBLIC "-//W3C//DTD SVG 1.0//EN" "http://www.w3.org/TR/2001/REC-SVG-20010904/DTD/svg10.dtd">
<svg version="1.0" id="Calque_1" xmlns="http://www.w3.org/2000/svg" xmlns:xlink="http://www.w3.org/1999/xlink" x="0px" y="0px"
	 width="40px" height="80.5px" viewBox="0 0 40 80.5" enable-background="new 0 0 40 80.5" xml:space="preserve">
<g>
	<rect x="19.003" fill="#5B133C" width="3" height="62"/>
</g>
<g>
	<path fill="#61BEDF" d="M3.019,60.712c0.733,0.263,1.58,0.425,2.096,1.019c0.012,0.69,0.074,1.37,0.179,2.035
		c-0.899,0.162-1.313,0.903-1.822,1.615c-0.392,0.546-1.192,1.134-2.379,1.393c0.903,0.616,1.96,0.888,2.818,0.888
		c0.095,0,0.187-0.003,0.276-0.011c0.44-0.031,0.902-0.109,1.351-0.109c0.337,0,0.666,0.045,0.972,0.187
		c0.291,0.621,0.623,1.219,0.997,1.789c-0.756,0.516-0.833,1.36-1.01,2.218c-0.136,0.658-0.628,1.521-1.604,2.24
		c0.301,0.055,0.603,0.08,0.896,0.08c0.874,0,1.691-0.22,2.285-0.539c0.677-0.361,1.354-0.875,2.125-0.875
		c0.012,0,0.021,0.002,0.033,0.002c0.515,0.446,1.061,0.855,1.633,1.229c-0.481,0.776-0.207,1.581-0.02,2.437
		c0.143,0.654,0.045,1.646-0.557,2.699c1.179-0.289,2.169-1.002,2.723-1.714c0.475-0.612,0.891-1.366,1.61-1.674
		c0.647,0.196,1.313,0.351,1.995,0.457c-0.123,0.903,0.453,1.528,0.975,2.231c0.396,0.539,0.71,1.483,0.589,2.691
		c0.961-0.743,1.573-1.797,1.791-2.673c0.185-0.754,0.258-1.613,0.792-2.187c0.686-0.084,1.355-0.218,2.008-0.393
		c0.255,0.877,1.036,1.211,1.797,1.645c0.583,0.33,1.252,1.065,1.636,2.219c0.574-1.069,0.707-2.282,0.548-3.17
		c-0.138-0.765-0.421-1.576-0.166-2.318c0.586-0.354,1.145-0.748,1.673-1.178c0.59,0.699,1.439,0.688,2.313,0.772
		c0.664,0.065,1.576,0.466,2.394,1.363c0.092-1.211-0.282-2.372-0.789-3.119c-0.437-0.644-1.025-1.271-1.094-2.053
		c0.39-0.558,0.741-1.142,1.052-1.751c0.264,0.127,0.521,0.177,0.774,0.177c0.547,0,1.083-0.228,1.648-0.414
		c0.256-0.085,0.568-0.137,0.922-0.137c0.531,0,1.155,0.114,1.821,0.407c-0.409-1.144-1.223-2.053-1.988-2.528
		c-0.66-0.409-1.453-0.744-1.834-1.429c0.126-0.664,0.211-1.342,0.245-2.032c0.021,0.002,0.041,0.004,0.063,0.004
		c0.878,0,1.426-0.627,2.059-1.204c0.495-0.452,1.401-0.861,2.615-0.868c-0.839-0.878-1.951-1.378-2.845-1.501
		c-0.77-0.105-1.629-0.088-2.256-0.559c-0.155-0.67-0.356-1.324-0.602-1.957c0.846-0.346,1.096-1.156,1.445-1.958
		c0.27-0.615,0.931-1.356,2.037-1.857c-0.649-0.266-1.332-0.38-1.959-0.38c-0.457,0-0.885,0.061-1.252,0.166
		c-0.607,0.178-1.238,0.455-1.867,0.455c-0.141,0-0.282-0.016-0.424-0.049c-0.412-0.544-0.859-1.059-1.344-1.54
		c0.635-0.66,0.533-1.504,0.527-2.38c-0.005-0.672,0.297-1.617,1.104-2.525c-1.213,0.037-2.33,0.53-3.019,1.111
		c-0.594,0.501-1.155,1.15-1.925,1.303c-0.596-0.328-1.215-0.617-1.857-0.863c0.311-0.859-0.126-1.589-0.486-2.385
		c-0.275-0.611-0.385-1.6-0.019-2.757c-1.093,0.526-1.911,1.431-2.306,2.242c-0.338,0.698-0.588,1.524-1.232,1.974
		c-0.414-0.033-0.833-0.053-1.256-0.053c-0.265,0-0.526,0.008-0.786,0.021c-0.066-0.912-0.763-1.401-1.416-1.982
		c-0.503-0.445-1.004-1.305-1.137-2.512c-0.786,0.927-1.167,2.086-1.196,2.986c-0.024,0.774,0.085,1.629-0.317,2.301
		c-0.649,0.226-1.279,0.492-1.885,0.803c-0.433-0.803-1.266-0.969-2.101-1.232c-0.64-0.203-1.446-0.783-2.06-1.831
		c-0.34,1.165-0.217,2.38,0.123,3.214c0.295,0.721,0.74,1.459,0.644,2.238c-0.496,0.465-0.96,0.964-1.39,1.494
		c-0.385-0.301-0.801-0.387-1.234-0.387c-0.382,0-0.781,0.066-1.188,0.112c-0.088,0.009-0.178,0.015-0.272,0.015
		c-0.646,0-1.494-0.231-2.354-0.85c0.162,1.203,0.77,2.262,1.42,2.887c0.56,0.537,1.266,1.027,1.496,1.775
		c-0.267,0.625-0.485,1.271-0.666,1.938c-0.144-0.033-0.283-0.054-0.418-0.054c-0.691,0-1.271,0.418-1.901,0.789
		c-0.403,0.237-1,0.411-1.729,0.411c-0.313,0-0.652-0.032-1.011-0.106C1.187,59.685,2.172,60.403,3.019,60.712z"/>
	<path fill="#61BEDF" d="M2.717,60.964c-0.005,0.157-0.01,0.314-0.01,0.474c0,1.311,0.149,2.584,0.429,3.812
		c0.018-0.023,0.036-0.045,0.053-0.068c0.027-0.039,0.056-0.078,0.082-0.118c-0.254-1.168-0.39-2.381-0.39-3.624
		c0-0.137,0.003-0.271,0.006-0.405C2.83,61.01,2.772,60.986,2.717,60.964z"/>
	<path fill="#61BEDF" d="M31.268,48.572c0,0.053,0.002,0.104,0.002,0.156c1.006,0.898,1.904,1.914,2.674,3.024
		c0.059-0.017,0.119-0.03,0.18-0.044c-0.814-1.186-1.775-2.266-2.854-3.211C31.268,48.523,31.266,48.549,31.268,48.572z"/>
	<path fill="#61BEDF" d="M25.115,45.204c1.301,0.417,2.531,0.983,3.677,1.687c0.047-0.039,0.096-0.078,0.146-0.115
		c-1.215-0.75-2.527-1.351-3.916-1.781c0.01,0.025,0.021,0.053,0.033,0.078C25.074,45.115,25.096,45.16,25.115,45.204z"/>
	<path fill="#61BEDF" d="M11.34,46.721c1.156-0.678,2.399-1.223,3.707-1.613c0.003-0.062,0.007-0.123,0.011-0.185
		c-1.395,0.411-2.713,0.996-3.937,1.728c0.024,0.009,0.049,0.019,0.073,0.025C11.244,46.691,11.291,46.705,11.34,46.721z"/>
	<path fill="#61BEDF" d="M6.101,51.483c0.791-1.095,1.709-2.093,2.73-2.973c-0.021-0.056-0.044-0.112-0.064-0.171
		c-1.092,0.931-2.063,1.995-2.896,3.169c0.025-0.003,0.05-0.004,0.074-0.006C5.996,51.497,6.048,51.49,6.101,51.483z"/>
	<path fill="#61BEDF" d="M4.526,54.138c-0.043-0.042-0.086-0.086-0.129-0.13c-0.615,1.28-1.076,2.649-1.359,4.082
		c0.025-0.015,0.052-0.029,0.074-0.041c0.043-0.025,0.084-0.05,0.125-0.076C3.517,56.63,3.952,55.345,4.526,54.138z"/>
	<path fill="#61BEDF" d="M18.065,44.496c0.61-0.066,1.231-0.104,1.861-0.104c0.738,0,1.47,0.051,2.185,0.144
		c0.026-0.056,0.055-0.109,0.084-0.164c-0.743-0.099-1.5-0.151-2.269-0.151c-0.689,0-1.367,0.043-2.033,0.121
		c0.02,0.02,0.039,0.04,0.061,0.059C17.989,44.434,18.026,44.465,18.065,44.496z"/>
	<path fill="#61BEDF" d="M18.224,78.395c-1.369-0.137-2.693-0.435-3.949-0.877c-0.039,0.047-0.078,0.096-0.117,0.142
		c1.334,0.477,2.742,0.792,4.203,0.924c-0.016-0.022-0.031-0.047-0.049-0.069C18.282,78.473,18.254,78.434,18.224,78.395z"/>
	<path fill="#61BEDF" d="M6.157,71.664c0.011-0.051,0.02-0.104,0.029-0.154c-0.795-1.08-1.466-2.26-1.99-3.515
		C4.136,68,4.073,68.001,4.01,68.002c0.556,1.338,1.272,2.591,2.13,3.734C6.147,71.712,6.151,71.688,6.157,71.664z"/>
	<path fill="#61BEDF" d="M25.269,77.621c-1.263,0.419-2.593,0.691-3.966,0.803c-0.015,0.061-0.032,0.118-0.05,0.178
		c1.464-0.111,2.876-0.408,4.216-0.865c-0.024-0.014-0.047-0.028-0.071-0.043C25.354,77.669,25.313,77.645,25.269,77.621z"/>
	<path fill="#61BEDF" d="M35.52,54.297c-0.021,0.046-0.039,0.092-0.059,0.139c0.551,1.217,0.964,2.51,1.216,3.857
		c0.062,0.01,0.121,0.02,0.181,0.029c-0.263-1.437-0.705-2.812-1.303-4.1C35.543,54.248,35.529,54.273,35.52,54.297z"/>
	<path fill="#61BEDF" d="M11.507,76.38c-0.011-0.05-0.023-0.099-0.033-0.147c-1.177-0.676-2.264-1.484-3.242-2.408
		c-0.053,0.027-0.109,0.055-0.164,0.08c1.035,0.988,2.196,1.849,3.455,2.556C11.519,76.432,11.513,76.406,11.507,76.38z"/>
	<path fill="#61BEDF" d="M31.377,74.048c-0.996,0.904-2.099,1.693-3.286,2.345c0.011,0.061,0.02,0.121,0.029,0.182
		c1.267-0.688,2.438-1.53,3.486-2.501c-0.023-0.005-0.048-0.009-0.072-0.011C31.481,74.057,31.43,74.052,31.377,74.048z"/>
	<path fill="#61BEDF" d="M36.661,65.479c0.313-1.297,0.481-2.649,0.481-4.041c0-0.08-0.002-0.158-0.004-0.235
		c-0.021,0.019-0.043,0.037-0.064,0.055c-0.034,0.033-0.07,0.066-0.105,0.099c0,0.027,0.002,0.056,0.002,0.082
		c0,1.357-0.162,2.677-0.463,3.941C36.56,65.411,36.61,65.443,36.661,65.479z"/>
	<path fill="#61BEDF" d="M33.467,71.775c0.034,0.051,0.065,0.102,0.098,0.154c0.872-1.131,1.606-2.373,2.18-3.703
		c-0.025,0.008-0.054,0.014-0.079,0.022c-0.046,0.015-0.093,0.03-0.14,0.048C34.978,69.541,34.282,70.707,33.467,71.775z"/>
</g>
</svg>
