<?xml version="1.0" encoding="utf-8"?>
<!-- Generator: Adobe Illustrator 16.0.0, SVG Export Plug-In . SVG Version: 6.00 Build 0)  -->
<!DOCTYPE svg PUBLIC "-//W3C//DTD SVG 1.0//EN" "http://www.w3.org/TR/2001/REC-SVG-20010904/DTD/svg10.dtd">
<svg version="1.0" id="Calque_1" xmlns="http://www.w3.org/2000/svg" xmlns:xlink="http://www.w3.org/1999/xlink" x="0px" y="0px"
	 width="20px" height="68px" viewBox="0 0 20 68" enable-background="new 0 0 20 68" xml:space="preserve">
<g>
	<rect x="9" y="7" fill="#5B133C" width="3" height="61"/>
</g>
<g>
	<path fill="#764B68" d="M18.631,10.45c-0.373-0.134-0.803-0.216-1.064-0.517c-0.006-0.352-0.039-0.697-0.092-1.034
		c0.459-0.083,0.67-0.459,0.928-0.821c0.197-0.278,0.605-0.577,1.207-0.708c-0.459-0.313-0.996-0.452-1.432-0.452
		c-0.047,0-0.094,0.002-0.141,0.005c-0.225,0.017-0.459,0.056-0.686,0.056c-0.17,0-0.34-0.023-0.494-0.095
		c-0.148-0.314-0.316-0.618-0.506-0.909c0.383-0.261,0.422-0.69,0.512-1.127c0.068-0.333,0.32-0.773,0.816-1.137
		c-0.154-0.028-0.307-0.041-0.455-0.041c-0.445,0-0.861,0.111-1.162,0.273c-0.344,0.183-0.688,0.444-1.08,0.444
		c-0.006,0-0.012,0-0.018,0c-0.26-0.227-0.537-0.436-0.828-0.625c0.244-0.395,0.104-0.803,0.01-1.237
		c-0.074-0.333-0.023-0.836,0.283-1.372c-0.6,0.147-1.104,0.509-1.385,0.872c-0.242,0.312-0.453,0.694-0.818,0.85
		c-0.328-0.099-0.668-0.177-1.014-0.232c0.063-0.459-0.231-0.776-0.495-1.134c-0.203-0.274-0.361-0.753-0.3-1.368
		c-0.488,0.377-0.8,0.913-0.91,1.358c-0.094,0.382-0.131,0.82-0.402,1.111C8.757,2.652,8.417,2.72,8.085,2.809
		C7.957,2.362,7.559,2.193,7.172,1.974C6.876,1.805,6.536,1.431,6.341,0.846c-0.292,0.543-0.359,1.16-0.278,1.611
		c0.069,0.388,0.214,0.801,0.085,1.178C5.85,3.813,5.566,4.015,5.297,4.233c-0.3-0.355-0.731-0.349-1.175-0.392
		C3.785,3.808,3.322,3.604,2.907,3.148c-0.048,0.615,0.143,1.205,0.4,1.585C3.528,5.06,3.828,5.379,3.863,5.775
		C3.666,6.06,3.486,6.356,3.328,6.667c-0.134-0.065-0.264-0.09-0.394-0.09c-0.277,0-0.55,0.115-0.839,0.21
		C1.966,6.83,1.808,6.855,1.628,6.855c-0.271,0-0.588-0.058-0.926-0.206C0.911,7.23,1.324,7.691,1.713,7.934
		c0.335,0.208,0.738,0.378,0.932,0.726C2.582,8.997,2.538,9.341,2.52,9.692C2.509,9.691,2.5,9.69,2.489,9.69
		c-0.446,0-0.725,0.318-1.046,0.613c-0.252,0.229-0.713,0.438-1.329,0.44c0.427,0.446,0.992,0.701,1.445,0.763
		c0.392,0.054,0.828,0.045,1.146,0.284c0.08,0.34,0.182,0.673,0.306,0.994c-0.43,0.176-0.558,0.588-0.734,0.996
		c-0.137,0.312-0.473,0.688-1.036,0.944c0.33,0.134,0.678,0.192,0.996,0.192c0.232,0,0.449-0.03,0.636-0.084
		c0.31-0.09,0.631-0.231,0.948-0.231c0.072,0,0.145,0.008,0.216,0.025c0.21,0.276,0.438,0.538,0.684,0.783
		c-0.323,0.335-0.271,0.764-0.269,1.209c0.002,0.34-0.151,0.822-0.562,1.283c0.617-0.019,1.185-0.269,1.533-0.564
		c0.303-0.255,0.588-0.585,0.979-0.663c0.302,0.167,0.616,0.314,0.943,0.439C7.188,17.55,7.41,17.92,7.594,18.325
		c0.14,0.311,0.194,0.812,0.009,1.4c0.556-0.268,0.971-0.727,1.171-1.14c0.172-0.355,0.298-0.774,0.627-1.003
		c0.21,0.018,0.423,0.027,0.639,0.027c0.134,0,0.268-0.004,0.399-0.01c0.033,0.462,0.387,0.712,0.719,1.007
		c0.256,0.227,0.51,0.663,0.578,1.276c0.398-0.47,0.592-1.06,0.607-1.518c0.012-0.393-0.043-0.828,0.162-1.169
		c0.328-0.114,0.648-0.25,0.957-0.407c0.219,0.407,0.643,0.491,1.066,0.625c0.324,0.104,0.736,0.398,1.047,0.931
		c0.174-0.592,0.109-1.209-0.063-1.632c-0.15-0.366-0.377-0.742-0.326-1.138c0.252-0.236,0.486-0.489,0.705-0.759
		c0.195,0.152,0.406,0.196,0.627,0.196c0.195,0,0.398-0.034,0.604-0.058c0.045-0.004,0.09-0.007,0.139-0.007
		c0.328,0,0.76,0.118,1.197,0.431c-0.084-0.611-0.391-1.149-0.723-1.466c-0.283-0.273-0.643-0.522-0.76-0.903
		c0.137-0.317,0.248-0.646,0.338-0.984c0.074,0.017,0.145,0.027,0.213,0.027c0.352,0,0.646-0.212,0.967-0.401
		c0.205-0.12,0.508-0.208,0.879-0.208c0.158,0,0.33,0.016,0.514,0.054C19.563,10.971,19.061,10.606,18.631,10.45z"/>
	<path fill="#764B68" d="M18.785,10.322c0.002-0.08,0.004-0.16,0.004-0.241c0-0.665-0.076-1.313-0.219-1.936
		c-0.008,0.012-0.018,0.023-0.025,0.035c-0.016,0.019-0.027,0.04-0.043,0.06c0.131,0.593,0.197,1.209,0.197,1.841
		c0,0.07,0,0.138-0.002,0.207C18.727,10.298,18.756,10.31,18.785,10.322z"/>
	<path fill="#764B68" d="M4.276,16.619c0-0.027,0-0.054,0-0.08c-0.512-0.457-0.968-0.972-1.359-1.537
		c-0.029,0.008-0.061,0.015-0.091,0.022c0.414,0.603,0.901,1.15,1.45,1.631C4.276,16.643,4.277,16.631,4.276,16.619z"/>
	<path fill="#764B68" d="M7.402,18.331c-0.66-0.212-1.286-0.5-1.868-0.857c-0.023,0.02-0.049,0.039-0.074,0.058
		c0.618,0.381,1.285,0.687,1.991,0.906c-0.006-0.014-0.011-0.027-0.018-0.04C7.422,18.375,7.412,18.353,7.402,18.331z"/>
	<path fill="#764B68" d="M14.402,17.561c-0.588,0.342-1.219,0.621-1.885,0.819c-0.002,0.031-0.002,0.063-0.004,0.094
		c0.707-0.209,1.377-0.507,2-0.878c-0.014-0.005-0.025-0.009-0.037-0.013C14.451,17.575,14.428,17.567,14.402,17.561z"/>
	<path fill="#764B68" d="M17.066,15.139c-0.404,0.556-0.869,1.064-1.389,1.51c0.01,0.029,0.021,0.058,0.033,0.087
		c0.555-0.473,1.047-1.014,1.471-1.61c-0.014,0.002-0.025,0.002-0.037,0.004C17.117,15.132,17.092,15.135,17.066,15.139z"/>
	<path fill="#764B68" d="M17.863,13.791c0.023,0.02,0.045,0.043,0.066,0.065c0.313-0.649,0.547-1.346,0.691-2.074
		c-0.014,0.007-0.025,0.015-0.039,0.021c-0.021,0.013-0.043,0.025-0.063,0.038C18.377,12.524,18.156,13.177,17.863,13.791z"/>
	<path fill="#764B68" d="M10.985,18.689c-0.311,0.034-0.625,0.053-0.945,0.053c-0.376,0-0.747-0.026-1.11-0.073
		c-0.014,0.028-0.028,0.055-0.043,0.083c0.378,0.05,0.763,0.077,1.153,0.077c0.35,0,0.694-0.022,1.033-0.062
		c-0.01-0.009-0.02-0.02-0.031-0.03C11.023,18.722,11.004,18.706,10.985,18.689z"/>
	<path fill="#764B68" d="M10.904,1.463c0.696,0.07,1.37,0.221,2.006,0.446c0.02-0.024,0.041-0.048,0.061-0.072
		c-0.678-0.241-1.393-0.402-2.136-0.469c0.008,0.012,0.017,0.023,0.025,0.034C10.875,1.424,10.889,1.444,10.904,1.463z"/>
	<path fill="#764B68" d="M17.035,4.884c-0.004,0.027-0.008,0.053-0.014,0.079c0.404,0.549,0.744,1.148,1.01,1.786
		c0.031-0.002,0.063-0.003,0.096-0.004c-0.283-0.678-0.646-1.315-1.082-1.896C17.041,4.859,17.039,4.873,17.035,4.884z"/>
	<path fill="#764B68" d="M7.325,1.857c0.642-0.212,1.317-0.352,2.015-0.408c0.008-0.03,0.017-0.06,0.025-0.09
		C8.621,1.417,7.904,1.566,7.222,1.799c0.014,0.007,0.024,0.015,0.036,0.022C7.281,1.833,7.301,1.846,7.325,1.857z"/>
	<path fill="#764B68" d="M2.115,13.71c0.011-0.024,0.02-0.047,0.031-0.07c-0.28-0.619-0.491-1.276-0.619-1.961
		c-0.031-0.005-0.061-0.009-0.091-0.015c0.133,0.729,0.357,1.428,0.661,2.083C2.104,13.735,2.11,13.721,2.115,13.71z"/>
	<path fill="#764B68" d="M14.318,2.488c0.004,0.025,0.01,0.05,0.016,0.075c0.598,0.342,1.15,0.755,1.648,1.224
		c0.025-0.015,0.055-0.028,0.084-0.041c-0.527-0.502-1.117-0.94-1.756-1.299C14.313,2.461,14.314,2.474,14.318,2.488z"/>
	<path fill="#764B68" d="M4.22,3.672c0.506-0.459,1.065-0.86,1.67-1.191C5.884,2.451,5.88,2.42,5.875,2.389
		c-0.644,0.35-1.238,0.778-1.772,1.271C4.116,3.663,4.127,3.665,4.14,3.666C4.167,3.668,4.194,3.67,4.22,3.672z"/>
	<path fill="#764B68" d="M1.535,8.026C1.375,8.686,1.29,9.374,1.29,10.081c0,0.041,0.002,0.08,0.002,0.12
		c0.012-0.009,0.022-0.019,0.033-0.027c0.019-0.018,0.036-0.035,0.055-0.051c0-0.014-0.001-0.028-0.001-0.042
		c0-0.689,0.082-1.359,0.234-2.003C1.587,8.062,1.56,8.044,1.535,8.026z"/>
	<path fill="#764B68" d="M3.159,4.828C3.141,4.802,3.125,4.776,3.108,4.75C2.666,5.324,2.292,5.956,2.001,6.632
		c0.012-0.005,0.027-0.008,0.04-0.013c0.023-0.007,0.046-0.016,0.07-0.024C2.391,5.964,2.744,5.371,3.159,4.828z"/>
</g>
</svg>
