<?xml version="1.0" encoding="utf-8"?>
<!-- Generator: Adobe Illustrator 16.0.0, SVG Export Plug-In . SVG Version: 6.00 Build 0)  -->
<!DOCTYPE svg PUBLIC "-//W3C//DTD SVG 1.0//EN" "http://www.w3.org/TR/2001/REC-SVG-20010904/DTD/svg10.dtd">
<svg version="1.0" id="Calque_1" xmlns="http://www.w3.org/2000/svg" xmlns:xlink="http://www.w3.org/1999/xlink" x="0px" y="0px"
	 width="31px" height="31px" viewBox="0 0 31 31" enable-background="new 0 0 31 31" xml:space="preserve">
<g>
	<path fill="#61BEDF" d="M29.031,16.164c-0.584-0.209-1.259-0.339-1.669-0.812c-0.009-0.551-0.059-1.092-0.142-1.622
		c0.718-0.129,1.047-0.719,1.451-1.287c0.313-0.435,0.95-0.903,1.896-1.109c-0.721-0.491-1.563-0.707-2.246-0.707
		c-0.076,0-0.148,0.002-0.221,0.008c-0.352,0.025-0.72,0.088-1.075,0.088c-0.27,0-0.531-0.037-0.774-0.149
		c-0.231-0.495-0.497-0.971-0.795-1.425c0.603-0.41,0.664-1.083,0.805-1.767c0.107-0.524,0.5-1.211,1.279-1.784
		c-0.24-0.043-0.479-0.064-0.716-0.064c-0.695,0-1.347,0.175-1.82,0.429c-0.539,0.288-1.078,0.698-1.693,0.698
		c-0.008,0-0.017-0.001-0.025-0.002c-0.41-0.355-0.845-0.682-1.302-0.979C22.369,5.062,22.148,4.421,22,3.74
		c-0.114-0.522-0.035-1.311,0.443-2.151c-0.938,0.23-1.728,0.798-2.17,1.366c-0.377,0.489-0.709,1.089-1.282,1.333
		c-0.517-0.156-1.047-0.278-1.59-0.364c0.098-0.721-0.361-1.218-0.776-1.779C16.309,1.716,16.06,0.962,16.156,0
		c-0.766,0.592-1.253,1.432-1.427,2.13c-0.147,0.6-0.206,1.285-0.631,1.741c-0.546,0.067-1.08,0.173-1.6,0.313
		c-0.203-0.699-0.825-0.965-1.432-1.31c-0.464-0.264-0.997-0.85-1.302-1.768C9.306,1.958,9.201,2.924,9.328,3.631
		C9.437,4.24,9.663,4.888,9.46,5.479C8.994,5.761,8.548,6.075,8.127,6.417C7.658,5.86,6.979,5.87,6.285,5.801
		C5.754,5.75,5.028,5.431,4.377,4.715C4.304,5.68,4.602,6.605,5.006,7.201c0.347,0.512,0.817,1.013,0.872,1.635
		c-0.311,0.444-0.591,0.91-0.838,1.395C4.83,10.13,4.625,10.09,4.422,10.09c-0.435,0-0.863,0.181-1.313,0.33
		c-0.204,0.067-0.453,0.109-0.735,0.109c-0.423,0-0.92-0.092-1.451-0.325c0.326,0.91,0.974,1.635,1.583,2.015
		c0.526,0.326,1.158,0.593,1.462,1.138c-0.101,0.528-0.168,1.069-0.196,1.62c-0.016-0.001-0.033-0.003-0.049-0.003
		c-0.699,0-1.136,0.5-1.64,0.959C1.689,16.293,0.967,16.618,0,16.624c0.668,0.699,1.554,1.098,2.267,1.196
		c0.612,0.084,1.298,0.07,1.796,0.444c0.125,0.534,0.285,1.056,0.479,1.56c-0.673,0.275-0.873,0.922-1.151,1.56
		c-0.215,0.49-0.741,1.081-1.623,1.48c0.518,0.211,1.061,0.302,1.561,0.302c0.364,0,0.705-0.048,0.997-0.132
		c0.485-0.142,0.988-0.362,1.489-0.362c0.112,0,0.225,0.013,0.336,0.039c0.33,0.433,0.686,0.844,1.071,1.227
		c-0.506,0.526-0.425,1.199-0.42,1.896c0.004,0.534-0.237,1.288-0.88,2.013c0.967-0.03,1.856-0.424,2.405-0.886
		c0.473-0.399,0.92-0.917,1.534-1.039c0.474,0.263,0.967,0.493,1.48,0.689c-0.247,0.685,0.1,1.266,0.388,1.898
		c0.219,0.487,0.306,1.275,0.014,2.197c0.871-0.421,1.523-1.14,1.837-1.786c0.269-0.558,0.468-1.216,0.982-1.573
		c0.33,0.027,0.664,0.042,1,0.042c0.211,0,0.42-0.006,0.627-0.016c0.054,0.726,0.606,1.116,1.128,1.579c0.4,0.354,0.8,1.039,0.905,2
		c0.627-0.737,0.93-1.661,0.953-2.379c0.02-0.617-0.066-1.297,0.253-1.833c0.519-0.18,1.02-0.393,1.502-0.639
		c0.344,0.639,1.008,0.771,1.674,0.981c0.508,0.162,1.151,0.624,1.64,1.459c0.271-0.929,0.174-1.896-0.098-2.561
		c-0.235-0.574-0.59-1.162-0.513-1.783c0.396-0.37,0.766-0.768,1.107-1.19c0.306,0.238,0.638,0.308,0.983,0.308
		c0.305,0,0.622-0.053,0.945-0.09c0.069-0.008,0.142-0.012,0.218-0.012c0.515,0,1.19,0.186,1.876,0.677
		c-0.13-0.958-0.612-1.802-1.131-2.299c-0.445-0.429-1.008-0.819-1.191-1.415c0.211-0.498,0.386-1.014,0.53-1.544
		c0.114,0.027,0.225,0.042,0.333,0.042c0.552,0,1.012-0.332,1.516-0.628c0.32-0.188,0.796-0.328,1.376-0.328
		c0.249,0,0.521,0.026,0.806,0.086C30.491,16.982,29.706,16.409,29.031,16.164z"/>
	<path fill="#61BEDF" d="M29.271,15.963c0.004-0.125,0.008-0.251,0.008-0.377c0-1.043-0.119-2.059-0.341-3.036
		c-0.014,0.019-0.028,0.036-0.042,0.055c-0.021,0.031-0.044,0.062-0.065,0.094c0.203,0.931,0.311,1.897,0.311,2.887
		c0,0.109-0.003,0.217-0.005,0.324C29.182,15.926,29.228,15.944,29.271,15.963z"/>
	<path fill="#61BEDF" d="M6.525,25.835c0-0.042-0.001-0.084-0.001-0.125c-0.802-0.716-1.518-1.523-2.131-2.409
		c-0.046,0.014-0.094,0.024-0.143,0.035c0.649,0.944,1.415,1.805,2.273,2.558C6.525,25.874,6.527,25.854,6.525,25.835z"/>
	<path fill="#61BEDF" d="M11.427,28.519c-1.036-0.332-2.017-0.784-2.929-1.343c-0.038,0.031-0.077,0.063-0.116,0.092
		c0.968,0.598,2.014,1.075,3.12,1.419c-0.009-0.021-0.017-0.042-0.027-0.063C11.459,28.589,11.442,28.554,11.427,28.519z"/>
	<path fill="#61BEDF" d="M22.402,27.312c-0.921,0.539-1.912,0.973-2.954,1.285c-0.002,0.048-0.006,0.098-0.009,0.146
		c1.112-0.328,2.162-0.794,3.137-1.376c-0.02-0.007-0.039-0.015-0.059-0.021C22.479,27.334,22.441,27.323,22.402,27.312z"/>
	<path fill="#61BEDF" d="M26.577,23.516c-0.632,0.872-1.361,1.668-2.176,2.367c0.018,0.045,0.034,0.091,0.052,0.138
		c0.869-0.742,1.645-1.59,2.307-2.525c-0.021,0.003-0.04,0.003-0.06,0.005C26.659,23.506,26.618,23.511,26.577,23.516z"/>
	<path fill="#61BEDF" d="M27.83,21.401c0.035,0.034,0.069,0.069,0.103,0.104c0.489-1.021,0.857-2.111,1.084-3.252
		c-0.021,0.012-0.042,0.023-0.06,0.032c-0.034,0.021-0.066,0.04-0.101,0.061C28.635,19.416,28.288,20.439,27.83,21.401z"/>
	<path fill="#61BEDF" d="M17.045,29.083c-0.487,0.053-0.982,0.082-1.484,0.082c-0.588,0-1.17-0.04-1.74-0.114
		c-0.021,0.044-0.043,0.088-0.067,0.131c0.592,0.078,1.196,0.12,1.807,0.12c0.55,0,1.09-0.033,1.621-0.096
		c-0.016-0.016-0.032-0.032-0.049-0.047C17.104,29.134,17.075,29.107,17.045,29.083z"/>
	<path fill="#61BEDF" d="M16.918,2.076c1.092,0.109,2.146,0.346,3.146,0.699c0.03-0.038,0.062-0.076,0.094-0.113
		c-1.063-0.38-2.185-0.631-3.35-0.736c0.012,0.019,0.025,0.037,0.038,0.055C16.871,2.013,16.894,2.044,16.918,2.076z"/>
	<path fill="#61BEDF" d="M26.531,7.438c-0.009,0.04-0.016,0.082-0.024,0.123c0.635,0.861,1.168,1.8,1.587,2.8
		c0.047-0.004,0.098-0.005,0.147-0.005c-0.442-1.066-1.014-2.064-1.697-2.976C26.539,7.4,26.535,7.419,26.531,7.438z"/>
	<path fill="#61BEDF" d="M11.305,2.692c1.006-0.334,2.065-0.551,3.159-0.639c0.012-0.048,0.026-0.095,0.04-0.141
		C13.338,2,12.213,2.236,11.145,2.6c0.02,0.012,0.038,0.023,0.057,0.035C11.236,2.654,11.27,2.673,11.305,2.692z"/>
	<path fill="#61BEDF" d="M3.138,21.274c0.017-0.037,0.031-0.073,0.047-0.109c-0.439-0.971-0.768-2.001-0.969-3.074
		c-0.048-0.008-0.096-0.015-0.144-0.023c0.209,1.144,0.562,2.239,1.038,3.266C3.119,21.313,3.129,21.293,3.138,21.274z"/>
	<path fill="#61BEDF" d="M22.269,3.681c0.009,0.04,0.019,0.079,0.026,0.118c0.938,0.538,1.804,1.183,2.583,1.919
		c0.042-0.023,0.088-0.044,0.132-0.064c-0.825-0.787-1.75-1.473-2.753-2.036C22.26,3.64,22.264,3.66,22.269,3.681z"/>
	<path fill="#61BEDF" d="M6.438,5.539c0.794-0.72,1.671-1.349,2.618-1.868C9.048,3.624,9.041,3.575,9.033,3.527
		C8.024,4.075,7.091,4.746,6.255,5.52c0.02,0.003,0.039,0.006,0.058,0.008C6.355,5.532,6.396,5.536,6.438,5.539z"/>
	<path fill="#61BEDF" d="M2.229,12.365c-0.251,1.033-0.385,2.112-0.385,3.22c0,0.063,0.002,0.125,0.003,0.188
		c0.017-0.015,0.034-0.03,0.051-0.043c0.028-0.027,0.057-0.054,0.084-0.079c0-0.022-0.001-0.043-0.001-0.065
		c0-1.081,0.129-2.131,0.369-3.14C2.309,12.419,2.268,12.393,2.229,12.365z"/>
	<path fill="#61BEDF" d="M4.773,7.349C4.746,7.309,4.72,7.269,4.694,7.227C4,8.127,3.415,9.118,2.958,10.177
		c0.021-0.006,0.042-0.011,0.063-0.019c0.037-0.012,0.073-0.025,0.11-0.038C3.57,9.129,4.123,8.201,4.773,7.349z"/>
</g>
</svg>
