<?xml version="1.0" encoding="utf-8"?>
<!-- Generator: Adobe Illustrator 16.0.0, SVG Export Plug-In . SVG Version: 6.00 Build 0)  -->
<!DOCTYPE svg PUBLIC "-//W3C//DTD SVG 1.0//EN" "http://www.w3.org/TR/2001/REC-SVG-20010904/DTD/svg10.dtd">
<svg version="1.0" id="Calque_1" xmlns="http://www.w3.org/2000/svg" xmlns:xlink="http://www.w3.org/1999/xlink" x="0px" y="0px"
	 width="31px" height="31px" viewBox="0 0 31 31" enable-background="new 0 0 31 31" xml:space="preserve">
<g>
	<path fill="#764B68" d="M23.92,15.68c-0.363-0.131-0.782-0.211-1.038-0.505c-0.006-0.343-0.037-0.68-0.089-1.009
		c0.447-0.081,0.652-0.448,0.904-0.801c0.193-0.271,0.591-0.563,1.179-0.69c-0.448-0.306-0.972-0.44-1.397-0.44
		c-0.046,0-0.092,0.002-0.137,0.005c-0.219,0.017-0.447,0.055-0.67,0.055c-0.166,0-0.33-0.022-0.481-0.093
		c-0.145-0.307-0.309-0.604-0.494-0.887c0.375-0.255,0.413-0.674,0.5-1.1c0.067-0.325,0.312-0.754,0.797-1.109
		c-0.15-0.027-0.299-0.04-0.445-0.04c-0.434,0-0.839,0.108-1.133,0.267c-0.336,0.179-0.671,0.434-1.055,0.434
		c-0.005,0-0.01,0-0.016,0c-0.255-0.222-0.525-0.425-0.81-0.61c0.239-0.385,0.103-0.783,0.01-1.207
		c-0.071-0.325-0.022-0.815,0.276-1.339c-0.585,0.144-1.076,0.497-1.351,0.851c-0.235,0.304-0.441,0.677-0.799,0.829
		c-0.32-0.097-0.651-0.173-0.989-0.227c0.062-0.448-0.225-0.757-0.482-1.106c-0.197-0.268-0.353-0.735-0.292-1.335
		c-0.477,0.368-0.78,0.891-0.888,1.325c-0.092,0.373-0.128,0.8-0.393,1.084c-0.341,0.042-0.672,0.107-0.996,0.194
		c-0.126-0.436-0.514-0.601-0.891-0.814c-0.289-0.165-0.621-0.529-0.811-1.101c-0.285,0.53-0.351,1.132-0.271,1.571
		c0.067,0.379,0.208,0.781,0.082,1.149c-0.29,0.175-0.567,0.371-0.829,0.584c-0.293-0.347-0.714-0.341-1.146-0.383
		c-0.33-0.032-0.781-0.23-1.187-0.676c-0.046,0.6,0.14,1.176,0.391,1.547c0.216,0.318,0.508,0.63,0.542,1.017
		c-0.192,0.277-0.367,0.566-0.521,0.869C8.859,11.925,8.732,11.9,8.606,11.9c-0.271,0-0.537,0.112-0.818,0.205
		c-0.126,0.042-0.28,0.067-0.456,0.067c-0.264,0-0.573-0.057-0.903-0.201c0.203,0.566,0.606,1.017,0.986,1.253
		c0.327,0.203,0.721,0.369,0.909,0.708c-0.063,0.329-0.104,0.665-0.122,1.008c-0.011-0.001-0.021-0.002-0.03-0.002
		c-0.436,0-0.707,0.311-1.021,0.598c-0.246,0.224-0.695,0.427-1.297,0.43c0.416,0.436,0.968,0.684,1.41,0.744
		c0.382,0.053,0.808,0.044,1.118,0.277c0.078,0.332,0.178,0.656,0.299,0.97c-0.42,0.172-0.544,0.574-0.717,0.972
		c-0.134,0.305-0.461,0.672-1.011,0.921c0.322,0.131,0.661,0.188,0.972,0.188c0.227,0,0.438-0.029,0.62-0.082
		c0.302-0.088,0.615-0.226,0.926-0.226c0.07,0,0.141,0.008,0.21,0.024c0.205,0.27,0.427,0.524,0.667,0.764
		c-0.315,0.327-0.265,0.745-0.262,1.18c0.002,0.332-0.147,0.802-0.548,1.252c0.602-0.019,1.155-0.263,1.496-0.551
		c0.295-0.249,0.573-0.571,0.955-0.646c0.295,0.163,0.602,0.307,0.921,0.429c-0.154,0.426,0.062,0.787,0.241,1.183
		c0.137,0.303,0.19,0.792,0.009,1.366c0.542-0.262,0.947-0.709,1.143-1.112c0.168-0.347,0.291-0.756,0.611-0.979
		c0.205,0.018,0.413,0.026,0.623,0.026c0.131,0,0.262-0.004,0.39-0.01c0.033,0.451,0.378,0.694,0.702,0.982
		c0.249,0.221,0.497,0.646,0.563,1.245c0.39-0.459,0.578-1.034,0.593-1.48c0.013-0.384-0.042-0.808,0.158-1.141
		c0.321-0.111,0.634-0.244,0.934-0.397c0.215,0.397,0.628,0.479,1.041,0.61c0.317,0.102,0.718,0.389,1.021,0.908
		c0.169-0.578,0.107-1.18-0.061-1.593c-0.146-0.357-0.368-0.724-0.319-1.11c0.246-0.23,0.476-0.478,0.689-0.74
		c0.189,0.148,0.396,0.191,0.611,0.191c0.189,0,0.388-0.033,0.589-0.057c0.043-0.004,0.087-0.007,0.135-0.007
		c0.32,0,0.741,0.115,1.168,0.421c-0.081-0.597-0.382-1.121-0.704-1.431c-0.277-0.267-0.628-0.51-0.742-0.881
		c0.133-0.31,0.241-0.63,0.33-0.96c0.071,0.017,0.141,0.026,0.208,0.026c0.343,0,0.63-0.207,0.942-0.392
		c0.2-0.117,0.496-0.203,0.857-0.203c0.154,0,0.323,0.016,0.501,0.053C24.829,16.188,24.34,15.832,23.92,15.68z"/>
	<path fill="#764B68" d="M24.07,15.555c0.002-0.078,0.004-0.156,0.004-0.235c0-0.648-0.074-1.28-0.212-1.889
		c-0.009,0.012-0.018,0.022-0.026,0.034c-0.014,0.019-0.026,0.039-0.04,0.059c0.126,0.578,0.192,1.18,0.192,1.796
		c0,0.068-0.001,0.135-0.002,0.202C24.015,15.531,24.043,15.543,24.07,15.555z"/>
	<path fill="#764B68" d="M9.915,21.698c0-0.026,0-0.053,0-0.078c-0.499-0.445-0.944-0.948-1.326-1.499
		C8.561,20.129,8.53,20.136,8.5,20.143c0.404,0.588,0.88,1.122,1.415,1.592C9.915,21.722,9.916,21.71,9.915,21.698z"/>
	<path fill="#764B68" d="M12.965,23.368c-0.644-0.207-1.255-0.488-1.822-0.836c-0.023,0.02-0.048,0.038-0.072,0.057
		c0.603,0.372,1.254,0.67,1.942,0.884c-0.006-0.014-0.011-0.026-0.018-0.039C12.985,23.412,12.975,23.39,12.965,23.368z"/>
	<path fill="#764B68" d="M19.795,22.617c-0.573,0.334-1.189,0.605-1.838,0.799c-0.002,0.03-0.003,0.062-0.005,0.092
		c0.69-0.204,1.345-0.494,1.951-0.856c-0.013-0.005-0.024-0.009-0.036-0.013C19.843,22.631,19.819,22.624,19.795,22.617z"/>
	<path fill="#764B68" d="M22.394,20.255c-0.394,0.542-0.848,1.038-1.354,1.473c0.011,0.028,0.021,0.057,0.032,0.085
		c0.541-0.461,1.022-0.989,1.436-1.571c-0.013,0.002-0.025,0.002-0.037,0.004C22.444,20.248,22.419,20.251,22.394,20.255z"/>
	<path fill="#764B68" d="M23.172,18.939c0.022,0.02,0.044,0.042,0.064,0.063c0.305-0.634,0.533-1.313,0.675-2.023
		c-0.013,0.007-0.025,0.015-0.037,0.021c-0.021,0.013-0.042,0.024-0.063,0.037C23.674,17.703,23.458,18.341,23.172,18.939z"/>
	<path fill="#764B68" d="M16.461,23.719c-0.303,0.033-0.61,0.052-0.923,0.052c-0.366,0-0.729-0.025-1.083-0.071
		c-0.014,0.027-0.027,0.054-0.042,0.081c0.369,0.049,0.744,0.075,1.125,0.075c0.342,0,0.678-0.021,1.009-0.061
		c-0.011-0.009-0.021-0.02-0.03-0.029C16.498,23.75,16.48,23.734,16.461,23.719z"/>
	<path fill="#764B68" d="M16.382,6.912c0.68,0.068,1.336,0.216,1.958,0.436c0.02-0.023,0.039-0.047,0.059-0.07
		c-0.661-0.235-1.359-0.393-2.084-0.457c0.008,0.012,0.016,0.022,0.024,0.033C16.354,6.874,16.367,6.894,16.382,6.912z"/>
	<path fill="#764B68" d="M22.364,10.249c-0.005,0.026-0.009,0.052-0.015,0.077c0.395,0.536,0.727,1.12,0.986,1.742
		c0.03-0.002,0.062-0.003,0.093-0.004c-0.275-0.662-0.631-1.283-1.056-1.851C22.369,10.226,22.367,10.238,22.364,10.249z"/>
	<path fill="#764B68" d="M12.89,7.296c0.626-0.207,1.285-0.343,1.966-0.397c0.008-0.029,0.016-0.059,0.024-0.088
		c-0.726,0.056-1.425,0.202-2.09,0.429c0.013,0.007,0.023,0.015,0.035,0.021C12.847,7.272,12.867,7.285,12.89,7.296z"/>
	<path fill="#764B68" d="M7.807,18.86c0.011-0.023,0.02-0.046,0.03-0.068c-0.273-0.604-0.479-1.245-0.604-1.913
		c-0.03-0.005-0.06-0.009-0.089-0.015c0.13,0.712,0.349,1.394,0.646,2.032C7.796,18.885,7.802,18.871,7.807,18.86z"/>
	<path fill="#764B68" d="M19.713,7.912c0.005,0.024,0.011,0.049,0.016,0.073c0.584,0.334,1.122,0.736,1.607,1.194
		c0.026-0.015,0.055-0.027,0.082-0.04c-0.514-0.49-1.09-0.917-1.713-1.268C19.707,7.886,19.709,7.898,19.713,7.912z"/>
	<path fill="#764B68" d="M9.861,9.067c0.493-0.448,1.039-0.839,1.629-1.162c-0.006-0.029-0.01-0.06-0.015-0.09
		c-0.628,0.341-1.208,0.759-1.729,1.24C9.759,9.058,9.771,9.06,9.783,9.061C9.809,9.063,9.835,9.065,9.861,9.067z"/>
	<path fill="#764B68" d="M7.241,13.315c-0.155,0.644-0.239,1.314-0.239,2.004c0,0.04,0.002,0.078,0.002,0.117
		c0.011-0.009,0.021-0.019,0.032-0.026c0.018-0.018,0.035-0.034,0.053-0.05c0-0.014-0.001-0.027-0.001-0.041
		c0-0.673,0.08-1.326,0.229-1.954C7.292,13.35,7.266,13.333,7.241,13.315z"/>
	<path fill="#764B68" d="M8.825,10.194c-0.018-0.025-0.033-0.05-0.05-0.076c-0.432,0.561-0.796,1.177-1.079,1.837
		c0.012-0.005,0.026-0.008,0.039-0.013c0.022-0.007,0.045-0.016,0.068-0.023C8.076,11.303,8.42,10.725,8.825,10.194z"/>
</g>
</svg>
