<?xml version="1.0" encoding="utf-8"?>
<!-- Generator: Adobe Illustrator 16.0.0, SVG Export Plug-In . SVG Version: 6.00 Build 0)  -->
<!DOCTYPE svg PUBLIC "-//W3C//DTD SVG 1.0//EN" "http://www.w3.org/TR/2001/REC-SVG-20010904/DTD/svg10.dtd">
<svg version="1.0" id="Calque_1" xmlns="http://www.w3.org/2000/svg" xmlns:xlink="http://www.w3.org/1999/xlink" x="0px" y="0px"
	 width="70px" height="70px" viewBox="0 0 70 70" enable-background="new 0 0 70 70" xml:space="preserve">
<g>
	<g>
		<path fill="#61BEDF" d="M65.559,36.5c-1.318-0.473-2.842-0.765-3.768-1.837c-0.021-1.242-0.134-2.465-0.322-3.661
			c1.619-0.291,2.364-1.624,3.279-2.904c0.704-0.983,2.146-2.041,4.282-2.507c-1.624-1.108-3.523-1.595-5.07-1.595
			c-0.169,0-0.331,0.005-0.495,0.016c-0.792,0.059-1.625,0.2-2.428,0.2c-0.608,0-1.195-0.081-1.747-0.335
			c-0.524-1.117-1.125-2.191-1.794-3.22c1.362-0.925,1.499-2.446,1.815-3.99c0.246-1.182,1.134-2.736,2.89-4.03
			c-0.552-0.094-1.091-0.14-1.621-0.14c-1.572,0-3.044,0.395-4.11,0.967c-1.218,0.65-2.436,1.574-3.821,1.574
			c-0.023,0-0.038-0.001-0.058-0.003c-0.925-0.802-1.908-1.541-2.941-2.21c0.868-1.398,0.377-2.845,0.034-4.382
			c-0.259-1.18-0.081-2.96,1.002-4.858c-2.123,0.519-3.902,1.802-4.898,3.083c-0.854,1.103-1.602,2.458-2.896,3.011
			c-1.166-0.352-2.363-0.629-3.591-0.822c0.222-1.627-0.816-2.75-1.753-4.017C36.827,3.874,36.265,2.174,36.483,0
			c-1.728,1.336-2.827,3.233-3.222,4.808c-0.333,1.357-0.465,2.902-1.426,3.932c-1.234,0.152-2.438,0.391-3.612,0.706
			c-0.459-1.578-1.865-2.179-3.234-2.957c-1.048-0.596-2.252-1.919-2.941-3.991c-1.034,1.923-1.272,4.105-0.985,5.701
			c0.246,1.375,0.756,2.837,0.297,4.171c-1.054,0.638-2.059,1.346-3.008,2.12c-1.062-1.257-2.592-1.236-4.162-1.39
			c-1.197-0.117-2.835-0.837-4.307-2.452c-0.163,2.179,0.508,4.268,1.42,5.611c0.784,1.156,1.846,2.289,1.969,3.695
			c-0.702,1.003-1.335,2.054-1.893,3.149c-0.476-0.227-0.937-0.318-1.395-0.318c-0.981,0-1.95,0.408-2.967,0.745
			c-0.46,0.152-1.021,0.246-1.659,0.246c-0.955,0-2.077-0.207-3.277-0.731c0.737,2.057,2.201,3.692,3.579,4.55
			c1.187,0.735,2.614,1.337,3.3,2.569c-0.228,1.193-0.379,2.412-0.442,3.655c-0.035-0.003-0.074-0.007-0.109-0.007
			c-1.582,0-2.566,1.13-3.703,2.166C3.815,36.792,2.185,37.529,0,37.54c1.51,1.581,3.512,2.479,5.118,2.706
			c1.382,0.19,2.931,0.152,4.055,1.005c0.281,1.206,0.645,2.383,1.083,3.524c-1.521,0.62-1.972,2.081-2.602,3.523
			c-0.484,1.107-1.674,2.441-3.664,3.344c1.168,0.479,2.396,0.683,3.524,0.683c0.822,0,1.593-0.106,2.25-0.299
			c1.095-0.321,2.231-0.819,3.361-0.819c0.254,0,0.507,0.028,0.762,0.089c0.742,0.979,1.547,1.905,2.417,2.769
			c-1.14,1.19-0.959,2.708-0.948,4.281c0.009,1.206-0.535,2.91-1.988,4.543c2.185-0.065,4.191-0.953,5.431-1.999
			c1.068-0.902,2.077-2.069,3.462-2.345c1.071,0.591,2.185,1.112,3.342,1.555c-0.556,1.543,0.227,2.857,0.877,4.288
			c0.496,1.095,0.693,2.879,0.032,4.958c1.966-0.951,3.439-2.571,4.147-4.036c0.609-1.255,1.057-2.744,2.218-3.553
			c0.744,0.067,1.498,0.096,2.261,0.096c0.475,0,0.947-0.018,1.415-0.035c0.12,1.642,1.367,2.523,2.547,3.569
			c0.902,0.799,1.805,2.347,2.045,4.514c1.415-1.66,2.1-3.754,2.151-5.372c0.039-1.394-0.149-2.934,0.568-4.138
			c1.169-0.405,2.302-0.893,3.396-1.444c0.775,1.444,2.274,1.742,3.771,2.217c1.149,0.371,2.603,1.409,3.705,3.29
			c0.612-2.097,0.386-4.279-0.221-5.783c-0.53-1.297-1.333-2.623-1.158-4.027c0.898-0.835,1.729-1.733,2.501-2.688
			c0.691,0.539,1.439,0.693,2.22,0.693c0.688,0,1.412-0.119,2.139-0.2c0.149-0.022,0.319-0.03,0.494-0.03
			c1.163,0,2.689,0.419,4.231,1.528c-0.292-2.163-1.379-4.065-2.553-5.192c-1.007-0.964-2.277-1.846-2.692-3.195
			c0.479-1.124,0.874-2.289,1.193-3.483c0.264,0.063,0.51,0.094,0.754,0.094c1.249,0,2.285-0.752,3.42-1.421
			c0.728-0.427,1.799-0.738,3.111-0.738c0.561,0,1.174,0.059,1.822,0.192C68.854,38.348,67.083,37.054,65.559,36.5z"/>
		<path fill="#61BEDF" d="M66.103,36.047c0.008-0.283,0.017-0.567,0.017-0.853c0-2.356-0.271-4.647-0.771-6.854
			c-0.032,0.04-0.065,0.081-0.096,0.123c-0.049,0.07-0.098,0.141-0.145,0.211c0.456,2.103,0.703,4.283,0.703,6.52
			c0,0.247-0.01,0.489-0.015,0.732C65.897,35.965,66.001,36.004,66.103,36.047z"/>
		<path fill="#61BEDF" d="M14.736,58.34c0-0.094-0.003-0.188-0.003-0.281c-1.81-1.616-3.426-3.443-4.81-5.441
			c-0.104,0.028-0.213,0.049-0.321,0.079c1.466,2.131,3.194,4.073,5.133,5.776C14.736,58.429,14.739,58.384,14.736,58.34z"/>
		<path fill="#61BEDF" d="M25.805,64.401c-2.34-0.751-4.557-1.777-6.615-3.033c-0.085,0.07-0.172,0.141-0.26,0.203
			c2.185,1.348,4.546,2.429,7.044,3.204c-0.02-0.044-0.037-0.09-0.06-0.145C25.879,64.56,25.84,64.48,25.805,64.401z"/>
		<path fill="#61BEDF" d="M50.589,61.674c-2.075,1.218-4.317,2.198-6.669,2.902c-0.006,0.109-0.012,0.221-0.021,0.33
			c2.509-0.739,4.882-1.791,7.078-3.111c-0.04-0.021-0.089-0.028-0.134-0.048C50.761,61.726,50.676,61.699,50.589,61.674z"/>
		<path fill="#61BEDF" d="M60.017,53.101c-1.426,1.971-3.074,3.768-4.915,5.349c0.041,0.096,0.079,0.203,0.117,0.309
			c1.964-1.674,3.714-3.591,5.21-5.701c-0.047,0.004-0.088,0.007-0.134,0.011C60.202,53.078,60.109,53.092,60.017,53.101z"/>
		<path fill="#61BEDF" d="M62.845,48.328c0.079,0.076,0.156,0.155,0.232,0.234c1.105-2.305,1.936-4.768,2.446-7.345
			c-0.046,0.026-0.093,0.052-0.134,0.073c-0.076,0.047-0.15,0.091-0.227,0.137C64.663,43.845,63.88,46.157,62.845,48.328z"/>
		<path fill="#61BEDF" d="M38.49,65.674c-1.101,0.12-2.217,0.186-3.35,0.186c-1.33,0-2.644-0.087-3.93-0.257
			c-0.049,0.099-0.099,0.196-0.153,0.295c1.338,0.178,2.701,0.273,4.083,0.273c1.239,0,2.459-0.077,3.658-0.219
			c-0.036-0.035-0.071-0.072-0.109-0.106C38.624,65.788,38.559,65.731,38.49,65.674z"/>
		<path fill="#61BEDF" d="M38.203,4.688c2.466,0.246,4.847,0.783,7.107,1.58c0.068-0.087,0.14-0.172,0.21-0.256
			c-2.399-0.855-4.934-1.424-7.563-1.661c0.027,0.042,0.057,0.085,0.087,0.126C38.097,4.546,38.148,4.617,38.203,4.688z"/>
		<path fill="#61BEDF" d="M59.913,16.796c-0.025,0.091-0.036,0.185-0.055,0.277c1.426,1.946,2.637,4.065,3.582,6.323
			c0.106-0.008,0.221-0.01,0.333-0.012c-0.997-2.408-2.288-4.661-3.831-6.719C59.932,16.71,59.921,16.753,59.913,16.796z"/>
		<path fill="#61BEDF" d="M25.529,6.079c2.272-0.752,4.664-1.246,7.136-1.444c0.027-0.106,0.058-0.211,0.089-0.317
			c-2.635,0.201-5.174,0.732-7.585,1.553c0.044,0.027,0.085,0.054,0.129,0.08C25.373,5.993,25.45,6.035,25.529,6.079z"/>
		<path fill="#61BEDF" d="M7.084,48.041c0.036-0.082,0.072-0.165,0.106-0.248c-0.991-2.19-1.733-4.516-2.188-6.941
			c-0.108-0.021-0.217-0.032-0.324-0.055c0.474,2.586,1.268,5.053,2.344,7.372C7.044,48.131,7.067,48.085,7.084,48.041z"/>
		<path fill="#61BEDF" d="M50.288,8.311c0.02,0.089,0.041,0.18,0.06,0.267c2.116,1.213,4.071,2.67,5.833,4.333
			c0.095-0.051,0.204-0.098,0.297-0.146c-1.864-1.776-3.949-3.325-6.211-4.598C50.269,8.218,50.277,8.265,50.288,8.311z"/>
		<path fill="#61BEDF" d="M14.539,12.508c1.791-1.627,3.773-3.048,5.912-4.219c-0.019-0.108-0.035-0.217-0.052-0.326
			c-2.28,1.239-4.385,2.754-6.273,4.502c0.043,0.005,0.088,0.014,0.132,0.02C14.352,12.492,14.444,12.499,14.539,12.508z"/>
		<path fill="#61BEDF" d="M5.033,27.924c-0.565,2.334-0.868,4.767-0.868,7.271c0,0.143,0.005,0.283,0.007,0.424
			c0.038-0.032,0.079-0.065,0.116-0.098c0.064-0.06,0.129-0.118,0.191-0.177c0-0.05-0.002-0.099-0.002-0.147
			c0-2.44,0.292-4.813,0.833-7.091C5.214,28.047,5.122,27.987,5.033,27.924z"/>
		<path fill="#61BEDF" d="M10.779,16.597c-0.063-0.091-0.12-0.185-0.177-0.279c-1.57,2.036-2.891,4.272-3.921,6.665
			c0.046-0.014,0.095-0.025,0.143-0.041c0.083-0.028,0.167-0.059,0.25-0.086C8.062,20.616,9.311,18.518,10.779,16.597z"/>
	</g>
	<g enable-background="new    ">
		<path fill="#5B133C" d="M32.107,30.541c0,0.337-0.276,1.107-0.521,1.507c0,0.029,0.03,0.062,0.03,0.092
			c0,0.122-0.123,0.122-0.185,0.215c-0.123,0.091-0.215,0.215-0.308,0.338c-0.092,0.091-0.246,0.277-0.399,0.277
			c-0.062,0-0.123,0-0.154-0.031c-0.154,0.123-0.461,0.123-0.584,0.123c-0.554,0.03-1.23-0.029-1.723-0.215
			c-0.585-0.247-0.923-0.646-1.169-1.261c0.031-0.029-0.215-0.584-0.153-1.199c-0.031-0.062,0-0.092,0-0.153s0.03-0.123,0.03-0.152
			c0.031-0.092,0.093-0.215,0.185-0.339h-0.03c-0.031-0.092,0-0.153,0.03-0.215c0.063-0.062,0.185-0.123,0.277-0.216l0.276-0.307
			c0.063-0.031,0.123-0.092,0.216-0.092c0.03,0,0.092,0,0.123,0.03l0.276-0.123c0.093-0.031,0.185-0.093,0.308-0.123
			c0.123-0.062,0.216-0.123,0.277-0.062c0.368-0.093,0.737-0.093,1.106,0.062c0.123,0.062,0.708,0.461,0.984,0.613
			c0.093-0.091,0.123-0.214,0.123-0.338l-0.062-0.337c0-0.093,0-0.215-0.03-0.338v-0.216c-0.124-0.338-0.678-0.8-0.923-1.016
			c-0.615-0.523-1.477-0.954-2.276-1.077c-0.03,0.029-0.061,0.062-0.123,0.062c-0.062,0-0.123-0.031-0.185-0.093
			c-0.123,0-0.276,0-0.399,0.031c-0.461,0.029-1.292,0.062-2.093,0.492h-0.062c-0.062,0.092-0.153,0.187-0.246,0.248
			c-0.062,0.029-0.092,0.061-0.154,0.061c-0.615,0.4-1.107,0.892-1.538,1.322c-0.338,0.338-0.369,0.462-0.738,0.799l-0.523,0.493
			c-0.093,0.093-0.277,0.399-0.369,0.492l-0.277,0.187c0,0.061-0.031,0.091-0.062,0.122c0,0.062,0.062,0.123,0.031,0.214
			c-0.031,0.093-0.123,0.187-0.184,0.277l-0.339,0.4c-0.184,0.338-0.307,0.676-0.399,0.983l-0.061,0.123
			c0.031,0.093,0.031,0.185-0.031,0.246c-0.032,0.03-0.032,0.03-0.062,0.03l-0.399,1.139c0.062,0.091,0,0.185-0.093,0.275
			l-0.154,0.432l-0.338,0.984c0.123,0.093,0,0.246-0.093,0.368l-0.092,0.278c0.062,0.061,0,0.153-0.062,0.246v0.06
			c-0.092,0.555,0,1.109-0.092,1.508c-0.031,0.584,0,2.031,0.062,2.649l0.277,1.508l0.092,0.307c0.062,0.03,0.092,0.124,0.062,0.215
			l0.276,1.077c0.246-0.214,0.369-0.185,0.431-0.029c0.031,0.124,0.031,0.277-0.246,0.613l0.061,0.091
			c0.092,0.029,0.154,0.125,0.123,0.215c0.215,0.371,0.523,0.707,0.646,1.197c0.185,0.584,1.261,1.355,1.999,1.722
			c0.738,0.247,1.6,0.432,1.845,0.492c0.708,0.062,2.276,0.029,3.629-0.553c0.338-0.151,1.445-0.646,2.245-1.54
			c0.215-0.184,0.461-0.614,0.707-1.045c0.03-0.185,0.246-0.459,0.308-0.555l0.123-0.246l0.03-0.028
			c0-0.062,0.031-0.092,0.031-0.124c-0.031,0-0.031-0.03-0.062-0.062c-0.03-0.153,0-0.188,0.123-0.31
			c0.123-0.089,0.399-0.399,0.522-0.089v0.062c0.093,0.062,0.062,0.309,0.062,0.368l-0.123,0.368c0.031,0.032,0.031,0.066,0,0.127
			c-0.03,0.029-0.03,0.029-0.062,0.029c-0.245,0.584-0.646,1.26-0.923,1.63c-0.522,0.768-1.322,1.414-2.152,1.876
			c-1.691,0.985-4.152,1.447-4.214,1.447h-0.339c-0.062,0.029-0.092,0.029-0.123,0.029c-0.062,0-0.092,0-0.092-0.029
			c-0.247,0-0.554,0.029-0.861,0.029c-0.677,0-1.353-0.029-1.477-0.093l-0.676-0.148c-0.062,0-0.123,0-0.154-0.031h-0.031
			l-2.124-0.675c-0.615-0.337-1.261-0.77-1.814-1.231l-0.093-0.089c-0.307-0.276-0.615-0.553-0.861-0.834
			c-0.431-0.521-0.861-1.137-1.23-1.689c-0.031-0.03-0.062-0.091-0.062-0.123c-0.307-0.524-0.553-1.018-0.676-1.385
			c-0.307-1.044-0.492-1.692-0.584-2.244l-0.092-1.353c-0.031-0.029-0.061-0.062-0.092-0.154c-0.031-0.123,0.031-0.246,0.092-0.399
			c0-0.186,0-0.369,0.031-0.553l-0.031-0.028c0-0.03,0-0.063,0.031-0.09c0.031-0.956,0.123-1.879,0.247-2.431l0.184-0.737
			c-0.031-0.123,0.031-0.246,0.123-0.369c0.216-0.771,0.523-1.693,0.861-2.43c-0.093-0.092-0.062-0.248,0-0.371
			c0.185-0.245,0.399-0.492,0.615-0.707c0.431-0.707,0.954-1.384,1.414-1.969V29.05c0.247-0.524,1.292-1.294,1.63-1.445
			c0.338-0.216,0.646-0.4,0.923-0.615c0.184-0.154,0.892-0.646,1.507-0.923c0.215-0.093,0.399-0.153,0.554-0.185
			c0.031-0.03,0.062-0.063,0.092-0.063c0.092-0.122,0.215-0.122,0.308-0.029l0.276-0.092c0.092-0.062,0.185-0.092,0.339-0.123
			l0.031-0.03c0.062-0.062,0.153-0.154,0.246-0.185c0.154-0.031,0.216,0,0.247,0.091c0.276-0.062,0.615-0.091,0.953-0.152
			c0.124-0.062,0.247-0.124,0.37-0.154c0.123-0.029,0.276,0,0.369,0.092c0.922-0.092,1.784-0.153,2.061-0.092l0.523,0.092h0.154
			c0.03,0,0.092,0,0.123,0.03c0.953,0.153,1.968,0.523,2.768,1.077c0.615,0.462,1.169,1.046,1.445,1.63
			c0.246,0.4,0.369,0.77,0.431,1.2C32.201,29.495,32.107,29.863,32.107,30.541z M18.698,33.955l0.123-0.339
			c-0.246,0.215-0.492,0.462-0.707,0.707c-0.8,0.831-1.63,1.693-2.461,2.492c-0.522,0.522-1.107,0.954-1.599,1.507V38.6l0.769-0.707
			c0.522-0.555,1.045-1.079,1.538-1.633C17.127,35.493,17.868,34.662,18.698,33.955z M18.298,35.124
			c-0.43,0.369-0.83,0.769-1.2,1.168c-1.045,1.046-2.122,2.092-3.014,3.26c1.169-1.016,2.276-2.091,3.414-3.137l0.584-0.522
			C18.144,35.615,18.204,35.369,18.298,35.124z M19.528,31.586l-3.414,3.106c-0.553,0.523-1.138,1.046-1.691,1.602l-0.246,0.276
			l-0.062,0.646c0.062-0.032,0.123-0.092,0.185-0.154l1.539-1.568l2.983-3.046c0.216-0.246,0.431-0.492,0.677-0.708
			C19.497,31.678,19.528,31.648,19.528,31.586z M14.206,40.875c0.031,0.028,0.031,0.062,0.031,0.092
			c0.4-0.276,0.738-0.614,1.078-0.957l1.692-1.753l0.954-0.984v-0.15L16.422,38.6C15.682,39.307,14.853,40.047,14.206,40.875z
			 M14.329,35.738c0,0.028-0.031,0.06-0.031,0.088v0.029c0.246-0.244,0.524-0.493,0.769-0.767
			C14.823,35.308,14.575,35.555,14.329,35.738z M17.836,37.952c-1.014,1.046-1.968,2.123-3.076,3.077
			c-0.123,0.088-0.277,0.246-0.431,0.335l0.123,0.398l1.753-1.876C16.76,39.276,17.313,38.629,17.836,37.952z M14.729,42.751
			c0.123-0.185,0.276-0.337,0.369-0.462c0.861-1.137,1.815-2.183,2.737-3.26c-0.708,0.584-1.353,1.23-1.999,1.877l-0.984,1.019
			l-0.277,0.308c0.031,0.124,0.093,0.276,0.124,0.461C14.698,42.689,14.729,42.723,14.729,42.751z M14.729,34.323l-0.092,0.339
			c0.677-0.677,1.384-1.322,2.123-2.03c-0.399,0.339-0.769,0.646-1.138,0.923c-0.154,0.123-0.338,0.247-0.492,0.4L14.729,34.323z
			 M16.514,37.922l-0.185,0.153l-1.384,1.293L16.514,37.922z M17.96,39.462c-0.185,0.247-0.4,0.462-0.615,0.675
			c-0.77,0.923-1.631,1.846-2.307,2.861l1.477-1.321l0.861-0.832l0.46-0.46c0.063-0.028,0.093-0.09,0.154-0.155
			C17.99,39.983,17.96,39.736,17.96,39.462z M15.467,32.323c0,0.062-0.031,0.123-0.062,0.215c1.507-1.383,3.045-2.707,4.552-4.091
			c0.676-0.614,1.415-1.26,2.03-1.969l-0.153,0.03c-1.015,0.923-1.969,1.877-2.953,2.799C17.775,30.324,16.605,31.339,15.467,32.323
			z M15.59,44.353c0-0.029,0-0.063,0.031-0.063c-0.031,0-0.062,0.032-0.062,0.032L15.59,44.353z M15.93,44.844
			c0.092-0.124,0.215-0.216,0.276-0.309l0.77-0.83l-0.923,0.83l-0.215,0.185L15.93,44.844z M15.93,43.028l1.661-1.537
			c0.185-0.127,0.339-0.313,0.492-0.462l-0.031-0.188l-0.277,0.312C17.158,41.767,16.514,42.381,15.93,43.028z M16.235,45.244
			l0.185,0.245c0.031-0.031,0.031-0.031,0.031-0.062c0.431-0.494,0.83-0.984,1.23-1.477l-1.199,1.105L16.235,45.244z M19.251,27.956
			l-0.123,0.093c-0.461,0.308-0.892,0.613-1.477,1.168c-0.276,0.309-0.615,0.708-0.954,1.137c0.369-0.307,0.708-0.613,1.047-0.953
			L19.251,27.956z M16.914,45.982c0.276-0.278,0.523-0.553,0.769-0.863c-0.276,0.279-0.554,0.555-0.861,0.801
			C16.853,45.951,16.883,45.982,16.914,45.982z M18.667,43.366c-0.431,0.521-0.892,1.046-1.292,1.567
			c0.46-0.433,0.892-0.894,1.353-1.355L18.667,43.366z M19.19,32.57c-0.554,0.614-1.138,1.199-1.722,1.783
			c0.584-0.522,1.107-1.107,1.661-1.63L19.19,32.57z M17.529,46.535l0.123,0.092l0.216-0.25l0.738-0.953L17.529,46.535z
			 M17.806,43.337l0.584-0.555l0.093-0.089l-0.031-0.089C18.235,42.875,18.021,43.09,17.806,43.337z M17.836,38.568l0.093-0.092
			v-0.061L17.836,38.568z M18.052,46.936l0.185,0.122c0.092-0.093,0.153-0.154,0.184-0.215c0.247-0.339,0.492-0.678,0.708-1.015
			l-0.923,0.921L18.052,46.936z M18.759,47.427l0.184-0.246c-0.092,0.062-0.154,0.153-0.215,0.216
			C18.729,47.396,18.759,47.396,18.759,47.427z M19.682,45.674c0,0.03-0.031,0.062-0.062,0.093l-0.523,0.769l0.676-0.646
			l-0.031-0.03C19.743,45.797,19.712,45.735,19.682,45.674z M19.897,47.826c0.092-0.399,0.185-0.798,0.308-1.199l-0.553,0.523
			l-0.431,0.435c0,0,0,0.03-0.031,0.03L19.897,47.826z M19.374,45.119l-0.031-0.029l-0.123,0.154L19.374,45.119z M23.496,26.08
			l-0.247,0.246c-0.461,0.492-0.953,0.954-1.445,1.385l-1.907,1.968c1.261-1.199,2.553-2.368,3.753-3.631
			C23.588,26.049,23.557,26.049,23.496,26.08z M20.542,46.903c-0.092,0.277-0.184,0.523-0.246,0.801l0.554-0.523L20.542,46.903z
			 M20.943,48.165l0.184-0.738l-0.615,0.584L20.943,48.165z M21.343,48.26l0.461-0.462l-0.308-0.186
			c-0.062,0.273-0.153,0.521-0.184,0.647H21.343z M21.835,48.35c0.031,0,0.123,0.03,0.215,0.03v-0.312l-0.276,0.251
			C21.804,48.319,21.835,48.319,21.835,48.35z M22.45,48.042v0.431h0.123l0.338-0.308L22.45,48.042z M23.188,48.411
			c-0.061,0.031-0.092,0.062-0.123,0.123h0.092C23.157,48.473,23.157,48.442,23.188,48.411z M23.741,48.319
			c-0.062,0-0.092,0-0.153-0.031c0,0.092-0.031,0.154-0.062,0.214h0.062C23.619,48.442,23.68,48.38,23.741,48.319z M24.387,25.927
			c-0.031,0.029-0.092,0.029-0.123,0.029l-0.338,0.309v0.029l0.215-0.091L24.387,25.927z M24.511,48.411h-0.154
			c0,0,0,0.031-0.031,0.031h0.154L24.511,48.411z M27.803,31.217c0.246-0.4,0.554-0.801,0.83-1.198l-0.738,0.798
			c-0.062,0.062-0.122,0.092-0.153,0.153c0,0.093,0.031,0.154,0.031,0.216C27.803,31.188,27.803,31.217,27.803,31.217z
			 M28.418,29.586c-0.186,0.216-0.339,0.433-0.492,0.646l0.646-0.707L28.418,29.586z M28.295,31.954l0.246-0.276l0.769-0.923
			c-0.338,0.31-0.646,0.646-1.015,0.955l-0.154,0.123L28.295,31.954z M29.556,29.371l-0.4,0.522l-0.953,1.384
			c0.492-0.431,0.953-0.892,1.415-1.353l0.461-0.461C29.924,29.433,29.74,29.371,29.556,29.371z M30.509,30.603l-1.599,1.538
			l-0.093,0.062l0.216,0.062L30.509,30.603z M30.447,32.077l0.093-0.153l0.677-1.198l-1.569,1.568h0.309
			C30.171,32.232,30.324,32.14,30.447,32.077z M30.755,29.832c-0.062-0.062-0.123-0.091-0.185-0.123l-0.185,0.277l-0.707,0.892
			L30.755,29.832z"/>
		<path fill="#5B133C" d="M59.358,27.095c-0.153,0.123-0.555,0.093-0.923,0.123c-0.03,0-0.614,0-0.983,0.123
			c-0.186,0.062-0.431,0.154-0.646,0.277h-0.03c-0.063,0.093-0.151,0.215-0.309,0.215c-0.028,0-0.06,0-0.089-0.03
			c-0.151,0.092-0.31,0.153-0.372,0.215c-0.399,0.246-0.856,0.677-1.169,1.107c0.03,0.092-0.028,0.277-0.061,0.37
			c-0.151,0.275-0.371,0.523-0.553,0.799v0.03l-0.495,1.138c-0.276,0.585-0.521,1.23-0.645,1.938l-0.089,0.184
			c0,0.093-0.062,0.186-0.093,0.277l-0.306,0.953c-0.089,0.399-0.278,0.738-0.401,1.046l-0.613,2.215l-0.646,1.88h0.029
			l-0.063,0.123l-0.153,0.461c0.03,0.029,0.03,0.062,0.03,0.089c-0.03,0.153-0.125,0.339-0.216,0.524l-0.122,0.494
			c-0.187,0.584-0.339,1.136-0.462,1.631c0,0.089-0.03,0.212-0.06,0.338l-0.375,1.66l-0.183,0.923c0.029,0.062,0.029,0.186,0,0.248
			c-0.03,0.028-0.063,0.063-0.063,0.09l-0.09,0.462c0.029,0.062,0.029,0.15,0,0.246l-0.091,0.184v0.064
			c-0.063,0.213-0.122,0.336-0.213,0.494c0.03,0.09,0.061,0.123,0.03,0.213c-0.03,0.126-0.213,0.249-0.336,0.336
			c-0.06,0.063-0.152,0.093-0.248,0.063l-0.186,0.092c-0.15,0.089-0.432,0.151-1.478,0.334l-0.213,0.064
			c-0.09,0.029-0.153,0.092-0.216,0.092c-0.062,0-0.124-0.029-0.153-0.062c-0.495,0.064-0.797,0-1.078-0.092
			c-0.246-0.06-0.555-0.457-0.734-0.734c-0.123-0.03-0.151-0.123-0.123-0.245c-0.03-0.03-0.03-0.03-0.03-0.062
			c-0.309-0.739-0.371-1.021-0.739-1.846c-0.063-0.032-0.126-0.125-0.093-0.215l-0.089-0.216c-0.124-0.432-0.313-0.92-0.462-1.414
			c-0.063-0.063-0.063-0.123-0.063-0.153l-0.062-0.152c-0.123-0.03-0.123-0.123-0.087-0.247l-0.585-1.568h-0.038
			c-0.213,0.186-0.306,0.122-0.368-0.03c-0.03-0.09-0.061-0.371,0.089-0.647l-0.029-0.123c-0.063-0.028-0.063-0.091-0.063-0.152
			c-0.151-0.369-0.309-0.736-0.398-1.045c-0.186-0.614-0.585-1.355-0.771-2.002c-0.06-0.152-0.186-0.339-0.186-0.585
			c-0.124-0.584-0.398-1.261-0.614-1.905h-0.03c-0.15-0.089-0.15-0.212-0.09-0.336l-0.735-1.783
			c-0.092-0.276-0.277-0.677-0.493-1.138c-0.123,0-0.156-0.093-0.123-0.185c-0.312-0.615-0.711-1.261-0.923-1.691l-0.154-0.215
			c-0.06,0-0.124-0.031-0.153-0.093c-0.061-0.062-0.061-0.123-0.061-0.214l-0.062-0.124c-0.616-0.77-2.154-1.169-2.215-1.169
			c-0.615-0.029-0.799-0.123-0.83-0.277c-0.093-0.029-0.154-0.122-0.123-0.213c0.03-0.185,0.308-0.31,0.461-0.248l0.186,0.063
			c0.276,0,0.646,0.028,1.077-0.031c0.984-0.093,1.568-0.338,2.338-0.523c0,0,0.123-0.029,0.306-0.092
			c0.094-0.091,0.216-0.185,0.311-0.214c0.123-0.03,0.185,0,0.214,0.062c0.709-0.215,1.567-0.461,1.66-0.522
			c0.126,0,0.371-0.093,0.65-0.247c0.122-0.123,0.245-0.309,0.368-0.338c0.124-0.03,0.186,0,0.247,0.062
			c0.309-0.153,0.613-0.309,0.771-0.432c0.247-0.152,0.584-0.214,0.644,0c0.125,0.123-0.151,0.522-0.245,0.615
			c-0.215,0.308-0.493,0.584-0.736,0.892c-0.03,0.062-0.03,0.123-0.03,0.186c-0.029,0.153-0.029,0.309-0.029,0.46
			c0.065,0.062,0.065,0.125,0.029,0.216c0.03,0.185,0.088,0.369,0.185,0.585l0.186,0.461c0.25-0.216,0.373-0.185,0.433-0.029
			c0.029,0.123,0.029,0.246-0.152,0.522l0.093,0.214l0.087,0.186l0.612,1.385c0.063,0.029,0.093,0.123,0.093,0.185l0.432,0.953
			l0.923,2.4c0.029,0.029,0.06,0.062,0.06,0.091c0.03,0.062,0.03,0.092,0.03,0.154c0.584,1.444,0.923,2.277,1.262,3.386
			c0.122,0.459,0.431,1.136,0.611,1.719c0,0.029,0,0.062,0.03,0.062l0.028,0.09c0.187,0.03,0.187,0.152,0.092,0.311l0.914,2.516
			l0.03,0.123c0.15,0.03,0.15,0.153,0.09,0.275l0.676,2.032l0.585-2.032c-0.032-0.029-0.032-0.087,0-0.122
			c0.028-0.126,0.06-0.249,0.151-0.372c0.029-0.151,0.063-0.278,0.124-0.401c-0.124-0.122,0.028-0.43,0.186-0.611
			c0.275-0.896,0.462-1.814,0.8-2.799c0.089-0.434,0.521-1.63,0.645-2.03l0.584-1.783c-0.028-0.152,0.063-0.338,0.123-0.461
			l0.092-0.246c0.247-0.831,0.339-1.323,0.647-2.001l0.087-0.245c-0.123-0.123-0.03-0.431,0.033-0.523
			c0.087-0.246,0.245-0.461,0.368-0.676l0.06-0.153l0.339-1.017c0-0.029,0-0.091,0.03-0.152c0-0.03,0.03-0.062,0.06-0.092
			l0.03-0.092c0.123-0.309,0.188-0.737,0.249-1.198c0.09-0.462-0.276-1.23-0.276-1.446c-0.091-0.861-1.291-1.722-1.354-1.753
			c-0.186-0.092-0.308-0.185-0.338-0.309c-0.089-0.029-0.151-0.123-0.061-0.246c0.091-0.092,0.186-0.092,0.273-0.061
			c0.216,0,0.524,0.184,0.862,0.276l1.079,0.43c0.063-0.029,0.148-0.061,0.211,0.031c0,0,0.029,0.029,0.029,0.062
			c0.434,0.152,0.8,0.275,0.923,0.275c0.091,0,0.646,0.093,1.108,0.186c0.06-0.03,0.092-0.03,0.151-0.03
			c0.124,0,0.188,0.03,0.188,0.092c0.183,0.062,0.337,0.091,0.396,0.091c0.125,0.031,0.524,0.093,0.955,0.123
			c0.091-0.062,0.188-0.091,0.311-0.062l0.091,0.092c0.214,0.03,0.398,0.03,0.521,0.03c0.063-0.03,0.122-0.03,0.154-0.03
			c0.06,0,0.088,0,0.122,0.063c0.185,0,0.339,0.153,0.37,0.308C59.481,27.001,59.421,27.064,59.358,27.095z M36.382,28.633
			l0.149,0.091l0.152-0.152C36.598,28.602,36.474,28.633,36.382,28.633z M36.844,28.94l0.306,0.276l0.524-0.922l-0.216,0.062
			L36.844,28.94z M39.211,27.803l-1.046,0.338c-0.245,0.461-0.522,0.923-0.737,1.385l0.061,0.092
			c0.711-0.584,1.384-1.231,2.065-1.906C39.427,27.772,39.304,27.803,39.211,27.803z M38.165,30.726l0.154-0.123
			c0.246-0.309,0.523-0.584,0.769-0.861l1.907-2.092v-0.03l-2.645,2.43l-0.374,0.338L38.165,30.726z M38.442,31.217l0.185,0.338
			c0.83-0.984,1.723-1.938,2.46-2.953v-0.029C40.164,29.402,39.396,30.386,38.442,31.217z M38.936,32.109l0.183-0.215l1.297-1.417
			l-1.568,1.509L38.936,32.109z M39.304,33c0.062,0.092,0.093,0.215,0.123,0.277l0.093,0.245c0.491-0.799,1.105-1.537,1.69-2.275
			L39.731,32.6L39.304,33z M39.795,34.2l0.309-0.337c-0.089,0.061-0.211,0.215-0.338,0.307L39.795,34.2z M39.795,28.232l0.986-0.922
			l-0.125,0.062C40.38,27.648,40.072,27.926,39.795,28.232z M42.072,30.726L41.52,31.4c-0.493,0.677-0.984,1.323-1.446,2.001
			l2.002-1.876l0.246-0.216L42.072,30.726z M40.995,34.107l-0.399,0.338c-0.03,0.031-0.094,0.123-0.062,0.093
			c-0.123,0.123-0.277,0.274-0.37,0.399L40.995,34.107z M42.501,31.71l-0.09,0.123l-0.524,0.554
			c-0.555,0.614-1.136,1.261-1.66,1.907c0.398-0.338,0.733-0.77,1.105-1.138l1.258-1.261L42.501,31.71z M40.625,36.354
			c0.401-0.461,0.8-0.892,1.172-1.353c0.433-0.494,0.894-1.017,1.259-1.569c-0.585,0.523-1.136,1.046-1.66,1.569l-0.923,0.859
			C40.534,36.047,40.596,36.199,40.625,36.354z M41.242,29.034l-0.554,0.675c0.186-0.152,0.398-0.399,0.614-0.554l-0.03-0.092
			C41.242,29.063,41.242,29.034,41.242,29.034z M40.903,37.185c0.399-0.584,0.923-1.136,1.385-1.689
			c-0.462,0.433-0.923,0.89-1.417,1.288l-0.061,0.093L40.903,37.185z M41.272,38.414c0.148-0.089,0.275-0.212,0.398-0.339
			l0.858-0.83c0.554-0.493,1.106-1.016,1.567-1.6v-0.062c-0.645,0.492-1.229,1.106-1.778,1.661l-1.046,1.105V38.414L41.272,38.414z
			 M43.64,34.447c-0.213,0.276-0.459,0.554-0.707,0.83c-0.521,0.615-1.046,1.231-1.537,1.878c0.737-0.707,1.444-1.446,2.214-2.124
			c0.063-0.062,0.123-0.123,0.186-0.153L43.64,34.447z M41.641,39.339l0.123-0.187l1.478-1.876
			c-0.521,0.493-1.046,0.984-1.601,1.446l-0.186,0.184h0.029L41.641,39.339z M42.843,32.908l-1.323,1.445
			c0.46-0.431,0.922-0.892,1.414-1.292c0.031-0.029,0.092-0.062,0.123-0.123v-0.03l-0.06-0.123L42.843,32.908z M42.041,40.475
			l0.185-0.215c0.584-0.83,1.198-1.66,1.815-2.49l0.461-0.612c-0.985,0.798-1.815,1.721-2.708,2.648l0.089,0.15L42.041,40.475z
			 M43.334,33.678l-0.186,0.246l-0.737,0.954l1.016-0.984L43.334,33.678z M42.563,41.613l0.093,0.277v0.029l0.429-0.554
			c0.309-0.431,0.71-0.954,1.136-1.445c-0.554,0.584-1.106,1.26-1.631,1.692H42.563L42.563,41.613z M43.056,42.905l0.371-0.496
			l1.507-1.904l-1.417,1.292l-0.645,0.612v0.029L43.056,42.905z M44.778,37.368l-1.231,1.692l-0.555,0.733
			c0.645-0.613,1.295-1.258,2.002-1.842C44.934,37.77,44.871,37.554,44.778,37.368z M45.732,40.106l-0.124,0.183
			c-0.276,0.309-0.555,0.647-0.798,0.986c-0.523,0.645-1.077,1.32-1.569,2c0.554-0.493,1.108-0.986,1.63-1.509l0.923-0.922
			c0.062-0.063,0.093-0.124,0.152-0.154v-0.028C45.887,40.475,45.824,40.289,45.732,40.106z M44.316,36.477l-0.83,1.078
			c0.309-0.277,0.647-0.677,1.016-0.923l-0.093-0.277L44.316,36.477z M43.825,45.119l0.436-0.495c0.673-0.83,1.38-1.63,2.024-2.462
			c-0.83,0.709-1.567,1.478-2.337,2.242l-0.246,0.309L43.825,45.119z M45.519,39.491l-0.152-0.431l-0.127,0.149l-1.414,1.819
			l1.541-1.384C45.396,39.582,45.455,39.552,45.519,39.491z M44.257,46.165l0.306-0.434l-0.336,0.371
			C44.227,46.103,44.227,46.135,44.257,46.165z M47.025,43.674c-0.247,0.214-0.462,0.46-0.678,0.676
			c-0.611,0.674-1.257,1.32-1.815,2.063l1.447-1.322l0.86-0.832l0.277-0.275L47.025,43.674z M44.687,47.273
			c0.431-0.615,0.892-1.171,1.354-1.755l-1.385,1.258l-0.123,0.091l0.093,0.213L44.687,47.273z M45.21,48.288l1.106-1.539
			c0.154-0.214,0.308-0.434,0.493-0.646c-0.553,0.524-1.108,1.077-1.692,1.602l-0.184,0.184
			C44.994,48.011,45.117,48.196,45.21,48.288z M47.424,44.967l-0.123-0.432l-0.368,0.461l-1.54,1.939l1.756-1.691
			C47.239,45.18,47.331,45.057,47.424,44.967z M46.563,42.414c-0.369,0.461-0.739,0.923-1.136,1.384
			c0.396-0.371,0.769-0.77,1.196-1.078h0.03L46.563,42.414z M45.764,48.38c0.153-0.03,0.339-0.03,0.584-0.092l0.061-0.092
			c0.278-0.461,0.614-0.923,0.954-1.384C46.81,47.304,46.285,47.826,45.764,48.38z M47.64,45.551l-0.432,0.584l-0.646,0.894
			c0.371-0.339,0.735-0.709,1.136-0.986c0-0.028,0.029-0.028,0.062-0.06l-0.062-0.247L47.64,45.551z M48.409,46.627
			c-0.063,0.031-0.093,0.031-0.155,0.031c-0.123,0-0.183-0.031-0.246-0.123l-0.461,0.613c-0.246,0.371-0.491,0.71-0.707,1.077
			c0.491-0.462,1.016-0.955,1.537-1.385C48.377,46.749,48.377,46.687,48.409,46.627z M47.547,48.042l-0.03,0.062h0.03V48.042
			L47.547,48.042z M53.698,26.357l0.03,0.03v-0.062C53.729,26.326,53.698,26.326,53.698,26.357z M54.037,26.695l0.216-0.216
			L54.1,26.418C54.1,26.511,54.066,26.604,54.037,26.695z M54.16,27.156l0.063,0.185l0.216-0.522
			C54.405,26.88,54.282,27.033,54.16,27.156z M55.083,26.757c-0.061,0-0.123-0.029-0.184-0.029c-0.032,0-0.032,0.029-0.032,0.029
			c-0.153,0.371-0.306,0.738-0.492,1.107l1.076-1.015L55.083,26.757z M54.96,27.987l0.309-0.46l-0.894,0.859v0.186
			C54.528,28.418,54.714,28.202,54.96,27.987z M56.745,27.001c-0.186,0-0.401-0.029-0.587-0.062l-0.213,0.31
			C56.191,27.156,56.497,27.064,56.745,27.001z"/>
	</g>
</g>
</svg>
