<?xml version="1.0" encoding="utf-8"?>
<!-- Generator: Adobe Illustrator 16.0.0, SVG Export Plug-In . SVG Version: 6.00 Build 0)  -->
<!DOCTYPE svg PUBLIC "-//W3C//DTD SVG 1.0//EN" "http://www.w3.org/TR/2001/REC-SVG-20010904/DTD/svg10.dtd">
<svg version="1.0" id="Calque_1" xmlns="http://www.w3.org/2000/svg" xmlns:xlink="http://www.w3.org/1999/xlink" x="0px" y="0px"
	 width="66px" height="66px" viewBox="0 0 66 66" enable-background="new 0 0 66 66" xml:space="preserve">
<g>
	<g>
		<path fill="#91215C" d="M39.034,47.634c9.403-0.364,15.103-6.471,14.813-16.219c-0.111-3.738-1.439-6.27-3.431-8.42
			c1.087-2.383,0.679-6.604-0.313-8.734c-4.183,0.027-6.422,1.998-9.201,3.432c-4.381-1.471-11.672-1.459-16.061,0
			c-2.741-1.418-4.967-3.35-9.045-3.432c-1.247,1.807-1.541,6.313-0.468,8.578c-1.822,2.246-3.195,4.557-3.431,8.109
			c-0.67,10.104,5.473,16.059,14.503,16.842c0.183,0.771-1.732,2.373-1.56,4.367c-2.047,0.854-4.797,1.096-6.55,0.311
			c-3.398-1.521-4.312-7.791-9.513-6.082c0.52,1.835,2.268,2.048,3.431,3.587c1.087,1.438,1.344,3.407,2.496,4.68
			c2.045,2.262,5.699,2.793,9.98,2.027c-0.521,2.321,0.957,6.541-0.625,7.483c-1.148,0.687-4.088-0.82-5.613-1.56
			c-5.068-2.453-8.873-5.815-12.008-9.979C2.365,47.208-0.856,39.314,0.204,29.7c0.909-8.244,4.968-15.139,9.824-19.648
			c5.17-4.805,11.636-8.619,20.741-9.201C41.195,0.183,48.473,3.914,53.85,8.492c5.406,4.604,9.813,10.51,11.383,19.182
			c2.681,14.79-4.912,26.102-13.1,31.969c-1.371,0.982-2.691,1.986-4.678,2.963c-1.518,0.746-4.667,2.218-5.771,1.56
			c-1.502-0.896-0.236-11.125-1.092-13.724C40.227,49.325,39.586,48.866,39.034,47.634z"/>
		<path fill="#91215C" d="M12.523,47.634c-0.413,0.166-0.887,0.117-0.935-0.469C11.945,46.827,12.561,47.107,12.523,47.634z"/>
		<path fill="#91215C" d="M13.147,48.104c0.475,0.098,0.798,0.346,0.78,0.936C13.125,49.277,12.773,48.555,13.147,48.104z"/>
		<path fill="#91215C" d="M14.395,49.816c0.738-0.026,1.005,0.588,0.779,1.091C14.372,51.109,14.002,50.323,14.395,49.816z"/>
		<path fill="#91215C" d="M15.798,51.688c0.933-0.153,1.362,0.494,1.092,1.092C16.038,52.904,15.673,52.54,15.798,51.688z"/>
		<path fill="#91215C" d="M19.385,53.872c-0.36,0.313-1.196,0.157-1.403-0.156c0-0.155,0-0.313,0-0.469
			C18.503,52.878,19.458,53.152,19.385,53.872z"/>
		<path fill="#91215C" d="M24.531,53.402c0.11,0.854-0.86,0.867-1.402,0.623C22.93,53.188,24.048,53.073,24.531,53.402z"/>
		<path fill="#91215C" d="M21.88,53.561c-0.025,0.182,0.034,0.276,0.155,0.313c-0.018,0.553-0.516,0.627-1.091,0.623
			c-0.067-0.297-0.446-0.281-0.312-0.779C20.86,53.475,21.43,53.579,21.88,53.561z"/>
	</g>
</g>
</svg>
