<?xml version="1.0" encoding="utf-8"?>
<!-- Generator: Adobe Illustrator 16.0.0, SVG Export Plug-In . SVG Version: 6.00 Build 0)  -->
<!DOCTYPE svg PUBLIC "-//W3C//DTD SVG 1.0//EN" "http://www.w3.org/TR/2001/REC-SVG-20010904/DTD/svg10.dtd">
<svg version="1.0" id="Calque_1" xmlns="http://www.w3.org/2000/svg" xmlns:xlink="http://www.w3.org/1999/xlink" x="0px" y="0px"
	 width="66px" height="66px" viewBox="0 0 66 66" enable-background="new 0 0 66 66" xml:space="preserve">
<g>
	<path fill="#5B133C" d="M4.713,0.164C6.775-0.068,9.544,0.1,11.853,0.1c14.056,0,28.176,0,42.458,0
		c2.324,0,4.912-0.262,7.013,0.064c2.104,0.325,3.768,1.803,4.017,4.016c0.285,2.547,0,5.548,0,8.159c0,13.18,0,26.994,0,40.481
		c0,2.75,0.233,5.683-0.064,8.031c-0.281,2.233-1.91,3.764-4.016,4.08c-2.396,0.361-5.248,0.063-7.969,0.063
		c-13.432,0-26.539,0-40.035,0c-2.58,0-5.563,0.086-8.031,0c-2.61-0.091-4.367-1.707-4.718-4.017
		c-0.313-2.065-0.064-4.619-0.064-7.076c0-14.014,0-28.573,0-42.647c0-2.404-0.387-5.645,0.192-7.713
		C1.179,1.592,2.608,0.4,4.713,0.164z M10.132,11.574c-0.211,0.33-0.714,1.185-0.829,2.423c-0.302,3.243,2.064,6.273,5.61,6.247
		c2.776-0.021,5.656-2.19,5.609-5.674c-0.045-3.407-2.832-5.908-6.375-5.482C12.315,9.308,10.87,10.42,10.132,11.574z
		 M55.521,33.949c-0.793-6.69-4.105-10.38-11.412-10.326c-3.846,0.028-6.756,1.771-8.414,4.016
		c-0.235,0.319-0.348,0.789-0.766,1.021c-0.041-1.403,0.084-2.974-0.063-4.271c-3.04,0.042-6.248-0.085-9.18,0.063
		c0,10.307,0,20.612,0,30.918c3.208,0,6.418,0,9.625,0c0-3.431,0-7.222,0-10.899c0-3.716-0.295-7.637,1.021-9.945
		c1.608-2.831,7.181-3.528,8.925-0.127c1.246,2.426,0.829,6.504,0.829,10.072c0,3.719,0,7.332,0,10.899c3.229,0,6.46,0,9.688,0
		C55.486,48.114,56.275,40.313,55.521,33.949z M10.069,24.578c0,10.264,0,20.529,0,30.792c3.209,0,6.417,0,9.625,0
		c-0.042-10.306,0.085-20.781-0.063-30.982c-3.166,0-6.332,0-9.498,0C10.058,24.398,10.063,24.488,10.069,24.578z"/>
</g>
</svg>
