<?xml version="1.0" encoding="utf-8"?>
<!-- Generator: Adobe Illustrator 16.0.0, SVG Export Plug-In . SVG Version: 6.00 Build 0)  -->
<!DOCTYPE svg PUBLIC "-//W3C//DTD SVG 1.0//EN" "http://www.w3.org/TR/2001/REC-SVG-20010904/DTD/svg10.dtd">
<svg version="1.0" id="Calque_1" xmlns="http://www.w3.org/2000/svg" xmlns:xlink="http://www.w3.org/1999/xlink" x="0px" y="0px"
	 width="50px" height="50px" viewBox="0 0 50 50" enable-background="new 0 0 50 50" xml:space="preserve">
<g>
	<g>
		<path fill="#5B133C" d="M46.896,26.109c-0.943-0.338-2.033-0.547-2.695-1.313c-0.016-0.889-0.096-1.764-0.23-2.619
			c1.158-0.208,1.691-1.162,2.346-2.078c0.504-0.703,1.535-1.46,3.063-1.793c-1.162-0.793-2.521-1.141-3.627-1.141
			c-0.121,0-0.237,0.004-0.354,0.012c-0.567,0.042-1.162,0.143-1.737,0.143c-0.435,0-0.856-0.058-1.25-0.24
			c-0.375-0.799-0.804-1.568-1.283-2.303c0.974-0.662,1.072-1.75,1.299-2.854c0.175-0.846,0.81-1.957,2.066-2.883
			c-0.394-0.067-0.78-0.1-1.159-0.1c-1.125,0-2.178,0.282-2.941,0.692c-0.871,0.465-1.742,1.126-2.733,1.126
			c-0.017,0-0.027-0.001-0.041-0.002c-0.662-0.574-1.365-1.102-2.104-1.581c0.62-1,0.269-2.035,0.024-3.135
			c-0.185-0.844-0.058-2.117,0.717-3.475c-1.519,0.371-2.791,1.289-3.504,2.205c-0.61,0.789-1.146,1.759-2.071,2.154
			c-0.834-0.252-1.691-0.45-2.568-0.588c0.158-1.164-0.584-1.967-1.254-2.873C26.344,2.771,25.941,1.555,26.098,0
			c-1.236,0.956-2.023,2.313-2.305,3.439c-0.238,0.971-0.332,2.076-1.02,2.813c-0.883,0.109-1.744,0.279-2.584,0.505
			c-0.328-1.129-1.334-1.559-2.313-2.115c-0.75-0.426-1.611-1.373-2.104-2.855c-0.74,1.376-0.91,2.937-0.705,4.078
			c0.176,0.984,0.541,2.03,0.213,2.984c-0.754,0.456-1.473,0.963-2.152,1.516c-0.76-0.899-1.854-0.884-2.977-0.994
			C9.295,9.287,8.123,8.772,7.07,7.617c-0.117,1.559,0.363,3.053,1.016,4.014c0.561,0.827,1.32,1.637,1.408,2.643
			c-0.502,0.717-0.955,1.469-1.354,2.253c-0.34-0.163-0.67-0.228-0.998-0.228c-0.702,0-1.395,0.292-2.122,0.533
			c-0.329,0.109-0.73,0.176-1.187,0.176c-0.683,0-1.486-0.148-2.344-0.523c0.527,1.471,1.574,2.641,2.56,3.254
			c0.849,0.526,1.87,0.957,2.36,1.838c-0.163,0.854-0.271,1.726-0.316,2.615c-0.025-0.002-0.053-0.005-0.078-0.005
			c-1.131,0-1.836,0.808-2.649,1.549C2.729,26.318,1.563,26.846,0,26.854c1.08,1.131,2.512,1.773,3.661,1.935
			c0.989,0.137,2.097,0.11,2.901,0.719c0.201,0.863,0.461,1.705,0.775,2.521c-1.088,0.443-1.41,1.488-1.861,2.521
			c-0.346,0.792-1.197,1.746-2.621,2.392c0.836,0.342,1.714,0.487,2.521,0.487c0.588,0,1.139-0.075,1.609-0.213
			c0.783-0.229,1.596-0.586,2.404-0.586c0.182,0,0.363,0.021,0.545,0.063c0.531,0.701,1.107,1.363,1.729,1.981
			c-0.816,0.851-0.686,1.937-0.678,3.063c0.006,0.863-0.383,2.082-1.422,3.25c1.563-0.047,2.998-0.682,3.885-1.43
			c0.764-0.646,1.486-1.481,2.477-1.678c0.766,0.423,1.563,0.796,2.391,1.112c-0.398,1.104,0.162,2.044,0.627,3.067
			c0.355,0.784,0.496,2.06,0.023,3.547c1.406-0.68,2.461-1.84,2.967-2.887c0.436-0.898,0.756-1.963,1.586-2.541
			c0.533,0.047,1.072,0.068,1.617,0.068c0.34,0,0.678-0.012,1.012-0.025c0.086,1.174,0.979,1.805,1.822,2.553
			c0.646,0.572,1.291,1.679,1.463,3.229c1.012-1.188,1.502-2.685,1.539-3.843c0.028-0.997-0.107-2.098,0.407-2.96
			c0.836-0.29,1.646-0.638,2.429-1.033c0.555,1.033,1.627,1.246,2.698,1.586c0.822,0.265,1.861,1.008,2.65,2.354
			c0.438-1.5,0.276-3.062-0.158-4.137c-0.379-0.928-0.953-1.877-0.828-2.881c0.642-0.598,1.236-1.24,1.789-1.923
			c0.494,0.386,1.029,0.496,1.588,0.496c0.492,0,1.009-0.085,1.529-0.144c0.108-0.015,0.229-0.021,0.353-0.021
			c0.832,0,1.924,0.3,3.028,1.094c-0.209-1.548-0.987-2.908-1.826-3.715c-0.721-0.689-1.629-1.32-1.926-2.285
			c0.342-0.805,0.625-1.638,0.854-2.492c0.188,0.045,0.364,0.067,0.539,0.067c0.893,0,1.635-0.538,2.446-1.017
			c0.521-0.305,1.287-0.528,2.226-0.528c0.401,0,0.84,0.042,1.303,0.138C49.254,27.432,47.986,26.506,46.896,26.109z"/>
		<path fill="#5B133C" d="M47.285,25.785c0.006-0.202,0.012-0.405,0.012-0.609c0-1.686-0.193-3.325-0.551-4.903
			c-0.023,0.029-0.047,0.058-0.068,0.088c-0.035,0.05-0.07,0.101-0.104,0.151c0.326,1.504,0.503,3.064,0.503,4.664
			c0,0.176-0.007,0.35-0.011,0.523C47.139,25.727,47.213,25.755,47.285,25.785z"/>
		<path fill="#5B133C" d="M10.541,41.732c0-0.067-0.002-0.135-0.002-0.201c-1.295-1.156-2.451-2.463-3.441-3.893
			c-0.074,0.021-0.152,0.036-0.23,0.057c1.049,1.525,2.285,2.914,3.672,4.132C10.541,41.796,10.543,41.764,10.541,41.732z"/>
		<path fill="#5B133C" d="M18.459,46.068c-1.674-0.537-3.26-1.271-4.732-2.17c-0.061,0.051-0.123,0.101-0.186,0.146
			c1.563,0.964,3.252,1.737,5.039,2.292c-0.014-0.031-0.027-0.064-0.043-0.104C18.512,46.182,18.484,46.125,18.459,46.068z"/>
		<path fill="#5B133C" d="M36.188,44.117c-1.485,0.871-3.088,1.572-4.771,2.076c-0.004,0.078-0.008,0.158-0.015,0.236
			c1.795-0.529,3.492-1.281,5.064-2.225c-0.029-0.014-0.063-0.021-0.096-0.034C36.311,44.154,36.25,44.136,36.188,44.117z"/>
		<path fill="#5B133C" d="M42.932,37.984c-1.02,1.41-2.199,2.695-3.516,3.826c0.029,0.069,0.057,0.146,0.084,0.221
			c1.404-1.197,2.656-2.568,3.727-4.078c-0.033,0.003-0.063,0.005-0.096,0.008C43.064,37.969,42.998,37.979,42.932,37.984z"/>
		<path fill="#5B133C" d="M44.955,34.57c0.057,0.055,0.111,0.111,0.166,0.168c0.791-1.648,1.385-3.41,1.75-5.254
			c-0.033,0.019-0.066,0.037-0.096,0.053c-0.055,0.033-0.107,0.064-0.162,0.098C46.256,31.363,45.695,33.018,44.955,34.57z"/>
		<path fill="#5B133C" d="M27.533,46.979c-0.787,0.086-1.586,0.133-2.396,0.133c-0.951,0-1.891-0.063-2.811-0.184
			c-0.035,0.07-0.07,0.141-0.109,0.211c0.957,0.127,1.932,0.195,2.92,0.195c0.886,0,1.759-0.055,2.617-0.156
			c-0.025-0.025-0.051-0.052-0.078-0.076C27.629,47.061,27.582,47.02,27.533,46.979z"/>
		<path fill="#5B133C" d="M27.328,3.353c1.764,0.176,3.467,0.56,5.084,1.13c0.049-0.062,0.1-0.123,0.15-0.183
			c-1.717-0.612-3.529-1.019-5.41-1.188c0.02,0.03,0.041,0.061,0.063,0.09C27.252,3.252,27.289,3.303,27.328,3.353z"/>
		<path fill="#5B133C" d="M42.857,12.015c-0.017,0.065-0.025,0.132-0.039,0.198c1.021,1.392,1.887,2.908,2.563,4.523
			c0.076-0.006,0.158-0.007,0.238-0.009c-0.713-1.722-1.637-3.334-2.74-4.806C42.871,11.953,42.863,11.984,42.857,12.015z"/>
		<path fill="#5B133C" d="M18.262,4.348c1.625-0.538,3.336-0.891,5.104-1.033c0.02-0.076,0.041-0.151,0.064-0.227
			c-1.885,0.144-3.701,0.524-5.426,1.111c0.031,0.02,0.061,0.039,0.092,0.057C18.15,4.287,18.205,4.317,18.262,4.348z"/>
		<path fill="#5B133C" d="M5.068,34.365c0.026-0.059,0.051-0.118,0.076-0.178c-0.709-1.566-1.24-3.229-1.565-4.965
			c-0.077-0.015-0.155-0.023-0.232-0.039c0.339,1.85,0.907,3.615,1.677,5.274C5.039,34.43,5.055,34.396,5.068,34.365z"/>
		<path fill="#5B133C" d="M35.973,5.945c0.014,0.064,0.029,0.128,0.043,0.191c1.514,0.868,2.912,1.91,4.172,3.1
			c0.068-0.037,0.146-0.07,0.213-0.104c-1.334-1.271-2.826-2.379-4.444-3.289C35.959,5.879,35.965,5.912,35.973,5.945z"/>
		<path fill="#5B133C" d="M10.4,8.947c1.281-1.164,2.699-2.18,4.229-3.018c-0.014-0.077-0.025-0.155-0.037-0.233
			c-1.631,0.886-3.137,1.97-4.488,3.22c0.031,0.004,0.063,0.01,0.094,0.014C10.266,8.936,10.332,8.941,10.4,8.947z"/>
		<path fill="#5B133C" d="M3.6,19.975c-0.404,1.669-0.621,3.41-0.621,5.201c0,0.102,0.004,0.202,0.005,0.303
			c0.027-0.023,0.056-0.047,0.083-0.07c0.046-0.043,0.092-0.085,0.137-0.127c0-0.035-0.002-0.07-0.002-0.105
			c0-1.746,0.209-3.443,0.596-5.072C3.73,20.063,3.664,20.02,3.6,19.975z"/>
		<path fill="#5B133C" d="M7.711,11.872c-0.045-0.065-0.086-0.132-0.127-0.199c-1.123,1.456-2.068,3.056-2.805,4.767
			c0.033-0.01,0.068-0.018,0.102-0.029C4.94,16.391,5,16.369,5.06,16.349C5.767,14.747,6.66,13.246,7.711,11.872z"/>
	</g>
	<g>
		<path fill="#61BEDF" d="M22.968,21.847c0,0.241-0.198,0.792-0.374,1.078c0,0.021,0.022,0.044,0.022,0.065
			c0,0.088-0.088,0.088-0.132,0.154c-0.088,0.065-0.154,0.154-0.22,0.242c-0.066,0.065-0.176,0.198-0.286,0.198
			c-0.044,0-0.088,0-0.11-0.022c-0.11,0.088-0.33,0.088-0.418,0.088c-0.396,0.022-0.88-0.021-1.232-0.154
			c-0.418-0.176-0.66-0.462-0.836-0.901c0.022-0.022-0.154-0.418-0.11-0.858c-0.022-0.044,0-0.066,0-0.11s0.022-0.088,0.022-0.109
			c0.022-0.066,0.066-0.154,0.132-0.242h-0.022c-0.022-0.066,0-0.11,0.022-0.154c0.044-0.044,0.132-0.088,0.198-0.154l0.198-0.22
			c0.044-0.022,0.088-0.066,0.154-0.066c0.022,0,0.066,0,0.088,0.022l0.198-0.088c0.066-0.022,0.132-0.066,0.22-0.088
			c0.088-0.044,0.154-0.088,0.198-0.044c0.264-0.066,0.528-0.066,0.792,0.044c0.088,0.044,0.506,0.33,0.704,0.439
			c0.066-0.065,0.088-0.153,0.088-0.242l-0.044-0.241c0-0.066,0-0.154-0.022-0.242v-0.154c-0.088-0.242-0.484-0.572-0.66-0.726
			c-0.44-0.375-1.056-0.683-1.628-0.771c-0.022,0.021-0.044,0.044-0.088,0.044c-0.044,0-0.088-0.022-0.132-0.066
			c-0.088,0-0.198,0-0.286,0.022c-0.33,0.021-0.924,0.044-1.497,0.352h-0.044c-0.044,0.066-0.11,0.133-0.176,0.177
			c-0.044,0.021-0.066,0.044-0.11,0.044c-0.44,0.286-0.792,0.638-1.1,0.946c-0.242,0.241-0.264,0.33-0.528,0.571l-0.374,0.353
			c-0.066,0.066-0.198,0.286-0.264,0.352l-0.198,0.133c0,0.044-0.022,0.065-0.044,0.088c0,0.044,0.044,0.088,0.022,0.153
			c-0.022,0.066-0.088,0.133-0.132,0.198l-0.242,0.286c-0.132,0.242-0.22,0.484-0.286,0.704l-0.044,0.088
			c0.022,0.066,0.022,0.132-0.022,0.176c-0.022,0.022-0.022,0.022-0.044,0.022l-0.286,0.814c0.044,0.065,0,0.132-0.066,0.197
			l-0.11,0.309l-0.242,0.704c0.088,0.066,0,0.176-0.066,0.264l-0.066,0.199c0.044,0.043,0,0.109-0.044,0.176v0.043
			c-0.066,0.396,0,0.793-0.066,1.078c-0.022,0.418,0,1.453,0.044,1.895l0.198,1.078l0.066,0.22c0.044,0.021,0.066,0.089,0.044,0.153
			l0.198,0.771c0.176-0.152,0.264-0.132,0.308-0.021c0.022,0.089,0.022,0.199-0.176,0.439l0.044,0.065
			c0.066,0.021,0.11,0.089,0.088,0.153c0.154,0.266,0.374,0.506,0.462,0.857c0.132,0.418,0.902,0.969,1.43,1.232
			c0.528,0.176,1.144,0.308,1.32,0.352c0.506,0.044,1.628,0.021,2.596-0.396c0.242-0.108,1.034-0.463,1.606-1.101
			c0.154-0.132,0.33-0.44,0.506-0.748c0.022-0.132,0.176-0.329,0.22-0.396l0.088-0.176l0.022-0.021c0-0.044,0.022-0.066,0.022-0.089
			c-0.022,0-0.022-0.021-0.044-0.044c-0.022-0.109,0-0.133,0.088-0.221c0.088-0.064,0.286-0.285,0.374-0.064V31
			c0.066,0.044,0.044,0.221,0.044,0.264l-0.088,0.264c0.022,0.022,0.022,0.046,0,0.09c-0.022,0.021-0.022,0.021-0.044,0.021
			c-0.176,0.418-0.462,0.901-0.66,1.166c-0.374,0.549-0.946,1.012-1.54,1.342c-1.21,0.705-2.97,1.035-3.015,1.035h-0.242
			c-0.044,0.021-0.066,0.021-0.088,0.021c-0.044,0-0.066,0-0.066-0.021c-0.176,0-0.396,0.021-0.616,0.021
			c-0.484,0-0.968-0.021-1.056-0.066l-0.484-0.107c-0.044,0-0.088,0-0.11-0.022h-0.022l-1.519-0.483
			c-0.44-0.241-0.902-0.551-1.298-0.881l-0.066-0.063c-0.22-0.198-0.44-0.396-0.616-0.597c-0.308-0.373-0.616-0.813-0.88-1.209
			c-0.022-0.021-0.044-0.064-0.044-0.088c-0.22-0.375-0.396-0.727-0.484-0.99c-0.22-0.747-0.352-1.211-0.418-1.605l-0.066-0.968
			c-0.022-0.021-0.044-0.044-0.066-0.11c-0.022-0.088,0.022-0.176,0.066-0.285c0-0.133,0-0.265,0.022-0.396l-0.022-0.021
			c0-0.021,0-0.045,0.022-0.064c0.022-0.684,0.088-1.344,0.176-1.738l0.132-0.528c-0.022-0.088,0.022-0.176,0.088-0.264
			c0.154-0.551,0.374-1.211,0.616-1.738c-0.066-0.066-0.044-0.177,0-0.265c0.132-0.176,0.286-0.352,0.44-0.506
			c0.308-0.506,0.682-0.99,1.012-1.408v-0.021c0.176-0.375,0.924-0.925,1.166-1.034c0.242-0.154,0.462-0.286,0.66-0.44
			c0.132-0.11,0.638-0.462,1.078-0.66c0.154-0.066,0.286-0.11,0.396-0.132c0.022-0.022,0.044-0.044,0.066-0.044
			c0.066-0.088,0.154-0.088,0.22-0.022l0.198-0.065c0.066-0.044,0.132-0.066,0.242-0.088l0.022-0.022
			c0.044-0.044,0.11-0.11,0.176-0.132c0.11-0.022,0.154,0,0.176,0.065c0.198-0.044,0.44-0.065,0.682-0.109
			c0.088-0.044,0.176-0.088,0.264-0.11c0.088-0.021,0.198,0,0.264,0.066c0.66-0.066,1.276-0.11,1.475-0.066l0.374,0.066h0.11
			c0.022,0,0.066,0,0.088,0.021c0.682,0.11,1.408,0.374,1.98,0.771c0.44,0.33,0.836,0.748,1.034,1.166
			c0.176,0.286,0.264,0.55,0.308,0.858C23.034,21.099,22.968,21.362,22.968,21.847z M13.375,24.289l0.088-0.242
			c-0.176,0.153-0.352,0.33-0.506,0.506c-0.572,0.594-1.166,1.21-1.76,1.782c-0.374,0.374-0.792,0.683-1.144,1.078v0.198l0.55-0.506
			c0.374-0.396,0.748-0.771,1.1-1.168C12.252,25.389,12.781,24.795,13.375,24.289z M13.089,25.125
			c-0.308,0.264-0.594,0.55-0.858,0.836c-0.748,0.748-1.518,1.496-2.156,2.332c0.836-0.727,1.628-1.496,2.442-2.244l0.418-0.374
			C12.979,25.477,13.022,25.301,13.089,25.125z M13.969,22.595l-2.442,2.222c-0.396,0.374-0.814,0.748-1.21,1.145l-0.176,0.198
			l-0.044,0.462c0.044-0.022,0.088-0.065,0.132-0.11l1.101-1.122l2.134-2.179c0.154-0.176,0.308-0.352,0.484-0.506
			C13.947,22.66,13.969,22.639,13.969,22.595z M10.162,29.239c0.022,0.021,0.022,0.044,0.022,0.065
			c0.286-0.197,0.528-0.439,0.771-0.684l1.21-1.254l0.682-0.704v-0.108l-1.1,1.057C11.218,28.117,10.625,28.646,10.162,29.239z
			 M10.25,25.564c0,0.021-0.022,0.043-0.022,0.064v0.021c0.176-0.175,0.375-0.353,0.55-0.549
			C10.603,25.257,10.426,25.433,10.25,25.564z M12.759,27.148c-0.726,0.748-1.408,1.519-2.201,2.201
			c-0.088,0.063-0.198,0.176-0.308,0.24l0.088,0.285l1.254-1.342C11.989,28.096,12.385,27.633,12.759,27.148z M10.536,30.581
			c0.088-0.132,0.198-0.241,0.264-0.33c0.616-0.813,1.298-1.562,1.958-2.332c-0.506,0.418-0.968,0.88-1.43,1.343l-0.704,0.728
			l-0.198,0.22c0.022,0.089,0.066,0.198,0.088,0.33C10.514,30.537,10.536,30.561,10.536,30.581z M10.536,24.553l-0.066,0.242
			c0.484-0.484,0.99-0.946,1.519-1.452c-0.286,0.242-0.55,0.462-0.814,0.66c-0.11,0.088-0.242,0.176-0.352,0.286L10.536,24.553z
			 M11.813,27.127l-0.132,0.109l-0.99,0.925L11.813,27.127z M12.847,28.229c-0.132,0.176-0.286,0.33-0.44,0.482
			c-0.55,0.66-1.167,1.32-1.65,2.047l1.056-0.945l0.616-0.595l0.33-0.329c0.044-0.021,0.066-0.065,0.11-0.111
			C12.869,28.602,12.847,28.425,12.847,28.229z M11.064,23.122c0,0.044-0.022,0.088-0.044,0.154c1.078-0.99,2.178-1.937,3.256-2.927
			c0.484-0.439,1.012-0.901,1.452-1.408l-0.11,0.022c-0.726,0.66-1.408,1.342-2.112,2.002
			C12.715,21.692,11.878,22.418,11.064,23.122z M11.152,31.727c0-0.021,0-0.045,0.022-0.045c-0.022,0-0.044,0.022-0.044,0.022
			L11.152,31.727z M11.395,32.078c0.066-0.089,0.154-0.154,0.198-0.221l0.55-0.594l-0.66,0.594l-0.154,0.132L11.395,32.078z
			 M11.395,30.779l1.188-1.1c0.132-0.09,0.242-0.223,0.352-0.33l-0.022-0.134l-0.198,0.222
			C12.274,29.877,11.813,30.316,11.395,30.779z M11.614,32.364l0.132,0.176c0.022-0.022,0.022-0.022,0.022-0.044
			c0.308-0.354,0.594-0.704,0.88-1.057L11.79,32.23L11.614,32.364z M13.771,19.998l-0.088,0.066c-0.33,0.22-0.638,0.439-1.056,0.836
			c-0.198,0.22-0.44,0.506-0.682,0.813c0.264-0.22,0.506-0.439,0.749-0.682L13.771,19.998z M12.099,32.893
			c0.198-0.199,0.374-0.396,0.55-0.617c-0.198,0.199-0.396,0.396-0.616,0.572C12.055,32.87,12.077,32.893,12.099,32.893z
			 M13.353,31.021c-0.308,0.373-0.638,0.748-0.924,1.121c0.33-0.309,0.638-0.639,0.968-0.969L13.353,31.021z M13.727,23.299
			c-0.396,0.439-0.814,0.857-1.232,1.275c0.418-0.374,0.792-0.792,1.188-1.166L13.727,23.299z M12.539,33.288l0.088,0.065
			l0.154-0.178l0.528-0.682L12.539,33.288z M12.737,31l0.418-0.396l0.066-0.064l-0.022-0.064C13.044,30.67,12.891,30.823,12.737,31z
			 M12.759,27.589l0.066-0.065V27.48L12.759,27.589z M12.913,33.574l0.132,0.088c0.066-0.066,0.11-0.11,0.132-0.154
			c0.176-0.242,0.352-0.484,0.506-0.726l-0.66,0.659L12.913,33.574z M13.419,33.926l0.132-0.176
			c-0.066,0.044-0.11,0.109-0.154,0.154C13.397,33.904,13.419,33.904,13.419,33.926z M14.079,32.672
			c0,0.021-0.022,0.044-0.044,0.066l-0.374,0.55l0.484-0.462l-0.022-0.021C14.123,32.76,14.101,32.716,14.079,32.672z
			 M14.233,34.212c0.066-0.286,0.132-0.571,0.22-0.858l-0.396,0.375l-0.308,0.31c0,0,0,0.021-0.022,0.021L14.233,34.212z
			 M13.859,32.275l-0.022-0.021l-0.088,0.11L13.859,32.275z M16.807,18.656l-0.176,0.176c-0.33,0.352-0.682,0.682-1.034,0.99
			l-1.364,1.408c0.902-0.858,1.826-1.694,2.685-2.597C16.873,18.634,16.851,18.634,16.807,18.656z M14.695,33.552
			c-0.066,0.198-0.132,0.374-0.176,0.572l0.396-0.374L14.695,33.552z M14.981,34.454l0.132-0.528l-0.44,0.418L14.981,34.454z
			 M15.267,34.521l0.33-0.33l-0.22-0.133c-0.044,0.196-0.11,0.373-0.132,0.463H15.267z M15.619,34.586
			c0.022,0,0.088,0.021,0.154,0.021v-0.222l-0.198,0.179C15.597,34.564,15.619,34.564,15.619,34.586z M16.059,34.366v0.308h0.088
			l0.242-0.22L16.059,34.366z M16.587,34.63c-0.044,0.022-0.066,0.044-0.088,0.088h0.066C16.565,34.674,16.565,34.652,16.587,34.63z
			 M16.983,34.564c-0.044,0-0.066,0-0.11-0.022c0,0.065-0.022,0.11-0.044,0.153h0.044C16.895,34.652,16.939,34.607,16.983,34.564z
			 M17.445,18.546c-0.022,0.021-0.066,0.021-0.088,0.021l-0.242,0.221v0.021l0.154-0.065L17.445,18.546z M17.533,34.63h-0.11
			c0,0,0,0.022-0.022,0.022h0.11L17.533,34.63z M19.888,22.33c0.176-0.286,0.396-0.572,0.594-0.857l-0.528,0.571
			c-0.044,0.044-0.088,0.066-0.11,0.11c0,0.066,0.022,0.11,0.022,0.154C19.888,22.309,19.888,22.33,19.888,22.33z M20.328,21.164
			c-0.132,0.154-0.242,0.309-0.352,0.462l0.462-0.506L20.328,21.164z M20.24,22.858l0.176-0.198l0.55-0.66
			c-0.242,0.221-0.462,0.462-0.726,0.683l-0.11,0.088L20.24,22.858z M21.142,21.01l-0.286,0.374l-0.682,0.99
			c0.352-0.308,0.682-0.638,1.012-0.968l0.33-0.33C21.406,21.054,21.274,21.01,21.142,21.01z M21.824,21.891l-1.144,1.1
			l-0.066,0.044l0.154,0.044L21.824,21.891z M21.78,22.946l0.066-0.11l0.484-0.857l-1.122,1.122h0.22
			C21.582,23.057,21.692,22.99,21.78,22.946z M22,21.34c-0.044-0.044-0.088-0.065-0.132-0.088l-0.132,0.198l-0.506,0.638L22,21.34z"
			/>
		<path fill="#61BEDF" d="M42.461,19.382c-0.109,0.088-0.396,0.066-0.66,0.088c-0.021,0-0.439,0-0.703,0.088
			c-0.133,0.044-0.309,0.11-0.463,0.198h-0.021c-0.045,0.066-0.109,0.154-0.221,0.154c-0.021,0-0.043,0-0.064-0.022
			c-0.109,0.066-0.221,0.11-0.266,0.154c-0.285,0.176-0.613,0.484-0.836,0.792c0.021,0.066-0.021,0.198-0.043,0.265
			c-0.109,0.197-0.266,0.374-0.396,0.571v0.022l-0.354,0.814c-0.197,0.418-0.373,0.88-0.461,1.386l-0.064,0.132
			c0,0.066-0.044,0.132-0.066,0.198l-0.219,0.682c-0.064,0.286-0.199,0.528-0.287,0.749l-0.438,1.584l-0.463,1.344h0.021
			l-0.045,0.088l-0.109,0.33c0.021,0.021,0.021,0.044,0.021,0.064c-0.021,0.109-0.09,0.242-0.154,0.375l-0.088,0.353
			c-0.133,0.418-0.242,0.813-0.33,1.167c0,0.064-0.021,0.152-0.043,0.241l-0.268,1.188l-0.131,0.66c0.021,0.044,0.021,0.132,0,0.177
			c-0.021,0.021-0.045,0.045-0.045,0.065l-0.064,0.33c0.021,0.044,0.021,0.108,0,0.176l-0.064,0.132v0.045
			c-0.045,0.153-0.088,0.241-0.152,0.354c0.021,0.064,0.043,0.088,0.021,0.152c-0.021,0.09-0.153,0.178-0.241,0.241
			c-0.043,0.044-0.109,0.066-0.177,0.044l-0.133,0.066c-0.108,0.064-0.308,0.109-1.056,0.24l-0.153,0.045
			c-0.065,0.021-0.11,0.066-0.154,0.066s-0.089-0.021-0.11-0.044c-0.354,0.046-0.57,0-0.771-0.065
			c-0.176-0.043-0.396-0.328-0.526-0.526c-0.088-0.021-0.108-0.088-0.088-0.176c-0.021-0.021-0.021-0.021-0.021-0.044
			c-0.221-0.528-0.266-0.729-0.529-1.32c-0.045-0.023-0.09-0.089-0.066-0.154l-0.064-0.154c-0.089-0.309-0.223-0.658-0.33-1.012
			c-0.045-0.045-0.045-0.088-0.045-0.109l-0.044-0.109c-0.088-0.021-0.088-0.088-0.063-0.177l-0.418-1.122H29.99
			c-0.152,0.133-0.219,0.088-0.264-0.021c-0.021-0.065-0.043-0.266,0.064-0.463l-0.021-0.088c-0.045-0.021-0.045-0.066-0.045-0.109
			c-0.108-0.264-0.22-0.527-0.285-0.748c-0.133-0.439-0.418-0.969-0.551-1.432c-0.043-0.109-0.132-0.242-0.132-0.418
			c-0.089-0.418-0.286-0.902-0.44-1.363h-0.021c-0.108-0.064-0.108-0.152-0.065-0.241l-0.526-1.275
			c-0.065-0.198-0.198-0.484-0.353-0.814c-0.088,0-0.111-0.066-0.088-0.132c-0.222-0.44-0.508-0.902-0.66-1.21l-0.11-0.154
			c-0.043,0-0.089-0.022-0.109-0.066c-0.044-0.044-0.044-0.088-0.044-0.153l-0.044-0.089c-0.44-0.55-1.541-0.836-1.584-0.836
			c-0.44-0.021-0.572-0.088-0.594-0.198c-0.066-0.021-0.11-0.088-0.088-0.153c0.022-0.132,0.22-0.221,0.33-0.177l0.132,0.045
			c0.198,0,0.462,0.021,0.771-0.022c0.704-0.066,1.122-0.242,1.672-0.374c0,0,0.088-0.022,0.219-0.066
			c0.066-0.065,0.154-0.132,0.222-0.153c0.088-0.022,0.132,0,0.153,0.044c0.507-0.154,1.121-0.33,1.188-0.374
			c0.09,0,0.266-0.066,0.465-0.177c0.088-0.088,0.176-0.22,0.264-0.241c0.088-0.022,0.132,0,0.176,0.044
			c0.221-0.11,0.439-0.221,0.551-0.309c0.176-0.109,0.418-0.153,0.461,0c0.088,0.088-0.109,0.374-0.176,0.44
			c-0.154,0.22-0.352,0.418-0.527,0.638c-0.021,0.044-0.021,0.088-0.021,0.132c-0.022,0.11-0.022,0.221-0.022,0.33
			c0.047,0.044,0.047,0.089,0.022,0.154c0.021,0.132,0.063,0.264,0.132,0.418l0.133,0.33c0.178-0.154,0.266-0.132,0.309-0.021
			c0.021,0.088,0.021,0.176-0.109,0.374l0.066,0.153l0.063,0.133l0.438,0.99c0.045,0.021,0.066,0.088,0.066,0.132l0.309,0.682
			l0.66,1.717c0.021,0.021,0.043,0.044,0.043,0.065c0.021,0.044,0.021,0.066,0.021,0.11c0.418,1.034,0.66,1.629,0.902,2.422
			c0.088,0.328,0.309,0.813,0.438,1.23c0,0.021,0,0.044,0.021,0.044l0.021,0.065c0.133,0.021,0.133,0.108,0.066,0.221l0.654,1.8
			l0.021,0.088c0.108,0.021,0.108,0.109,0.065,0.197l0.483,1.453l0.418-1.453c-0.022-0.021-0.022-0.063,0-0.088
			c0.021-0.089,0.043-0.177,0.109-0.265c0.021-0.109,0.045-0.199,0.088-0.287c-0.088-0.088,0.021-0.308,0.133-0.438
			c0.197-0.64,0.33-1.298,0.572-2.002c0.063-0.31,0.373-1.166,0.461-1.452l0.418-1.276c-0.021-0.109,0.045-0.242,0.088-0.33
			l0.065-0.176c0.177-0.594,0.242-0.946,0.463-1.431l0.063-0.176c-0.088-0.088-0.021-0.308,0.023-0.374
			c0.063-0.176,0.176-0.33,0.264-0.483l0.043-0.11l0.242-0.727c0-0.021,0-0.065,0.022-0.109c0-0.022,0.021-0.044,0.043-0.066
			l0.021-0.066c0.088-0.22,0.135-0.527,0.178-0.857c0.064-0.33-0.197-0.88-0.197-1.034c-0.066-0.616-0.924-1.232-0.969-1.254
			c-0.133-0.066-0.221-0.133-0.242-0.221c-0.064-0.021-0.109-0.088-0.043-0.176c0.064-0.066,0.133-0.066,0.195-0.044
			c0.154,0,0.375,0.132,0.617,0.198l0.771,0.308c0.045-0.021,0.107-0.044,0.152,0.022c0,0,0.021,0.021,0.021,0.044
			c0.31,0.109,0.572,0.197,0.66,0.197c0.065,0,0.463,0.066,0.793,0.133c0.043-0.022,0.065-0.022,0.108-0.022
			c0.089,0,0.134,0.022,0.134,0.066c0.131,0.044,0.241,0.065,0.284,0.065c0.089,0.022,0.375,0.066,0.683,0.088
			c0.065-0.044,0.134-0.065,0.222-0.044l0.065,0.066c0.153,0.021,0.285,0.021,0.373,0.021c0.045-0.021,0.088-0.021,0.11-0.021
			c0.043,0,0.063,0,0.088,0.044c0.132,0,0.242,0.11,0.265,0.22C42.549,19.315,42.506,19.36,42.461,19.382z M26.025,20.482
			l0.107,0.065l0.109-0.109C26.18,20.46,26.091,20.482,26.025,20.482z M26.355,20.702l0.219,0.198l0.375-0.66l-0.154,0.044
			L26.355,20.702z M28.049,19.888l-0.748,0.242c-0.176,0.33-0.374,0.66-0.527,0.99l0.043,0.066c0.508-0.418,0.99-0.881,1.477-1.364
			C28.203,19.866,28.115,19.888,28.049,19.888z M27.301,21.979l0.11-0.088c0.176-0.221,0.374-0.418,0.55-0.616l1.364-1.496v-0.022
			l-1.892,1.738l-0.267,0.242L27.301,21.979z M27.499,22.33l0.132,0.242c0.594-0.704,1.232-1.386,1.76-2.112v-0.021
			C28.73,21.032,28.182,21.736,27.499,22.33z M27.852,22.969l0.131-0.154l0.927-1.013l-1.122,1.079L27.852,22.969z M28.115,23.606
			c0.044,0.066,0.066,0.154,0.088,0.198l0.066,0.176c0.352-0.572,0.791-1.1,1.209-1.628l-1.057,0.968L28.115,23.606z M28.467,24.465
			l0.221-0.242c-0.064,0.044-0.152,0.154-0.242,0.22L28.467,24.465z M28.467,20.196l0.705-0.66l-0.089,0.044
			C28.885,19.778,28.665,19.976,28.467,20.196z M30.096,21.979L29.7,22.462c-0.353,0.484-0.704,0.946-1.034,1.431l1.432-1.342
			l0.176-0.154L30.096,21.979z M29.325,24.398l-0.286,0.242c-0.021,0.022-0.066,0.088-0.044,0.066
			c-0.088,0.088-0.198,0.197-0.265,0.286L29.325,24.398z M30.402,22.683l-0.064,0.088l-0.375,0.396
			c-0.396,0.44-0.813,0.902-1.188,1.364c0.285-0.241,0.525-0.55,0.791-0.813l0.9-0.902L30.402,22.683z M29.061,26.005
			c0.287-0.33,0.572-0.638,0.838-0.968c0.309-0.353,0.639-0.727,0.9-1.122c-0.418,0.374-0.813,0.748-1.188,1.122l-0.66,0.615
			C28.995,25.785,29.039,25.895,29.061,26.005z M29.502,20.769l-0.396,0.483c0.133-0.109,0.285-0.286,0.439-0.396l-0.021-0.066
			C29.502,20.79,29.502,20.769,29.502,20.769z M29.26,26.6c0.285-0.418,0.66-0.813,0.99-1.209c-0.33,0.309-0.66,0.637-1.014,0.922
			l-0.043,0.066L29.26,26.6z M29.523,27.479c0.107-0.064,0.197-0.152,0.285-0.242l0.615-0.594c0.396-0.353,0.791-0.727,1.121-1.145
			v-0.044c-0.461,0.353-0.879,0.792-1.273,1.188l-0.748,0.791V27.479L29.523,27.479z M31.217,24.641
			c-0.152,0.198-0.328,0.396-0.506,0.594c-0.373,0.44-0.748,0.881-1.1,1.343c0.527-0.506,1.033-1.034,1.584-1.519
			c0.045-0.044,0.088-0.088,0.133-0.11L31.217,24.641z M29.787,28.141l0.088-0.134l1.057-1.342
			c-0.373,0.353-0.748,0.704-1.145,1.034l-0.133,0.132h0.021L29.787,28.141z M30.646,23.54L29.7,24.574
			c0.329-0.308,0.659-0.638,1.012-0.924c0.022-0.021,0.065-0.044,0.088-0.088V23.54l-0.043-0.088L30.646,23.54z M30.073,28.953
			l0.132-0.154c0.418-0.594,0.857-1.188,1.299-1.781l0.33-0.438c-0.705,0.571-1.299,1.231-1.938,1.894l0.064,0.108L30.073,28.953z
			 M30.998,24.091l-0.133,0.176l-0.527,0.682l0.727-0.704L30.998,24.091z M30.447,29.768l0.066,0.198v0.021l0.307-0.396
			c0.221-0.309,0.508-0.683,0.813-1.034c-0.396,0.418-0.792,0.901-1.167,1.211H30.447L30.447,29.768z M30.799,30.691l0.266-0.354
			l1.078-1.363l-1.014,0.924l-0.461,0.439v0.021L30.799,30.691z M32.031,26.73l-0.881,1.211l-0.396,0.525
			c0.461-0.438,0.926-0.9,1.432-1.318C32.143,27.018,32.098,26.863,32.031,26.73z M32.714,28.689l-0.089,0.131
			c-0.197,0.221-0.396,0.463-0.57,0.705c-0.375,0.461-0.771,0.945-1.123,1.431c0.396-0.353,0.793-0.705,1.166-1.079l0.66-0.659
			c0.044-0.045,0.066-0.089,0.109-0.11v-0.021C32.824,28.953,32.779,28.82,32.714,28.689z M31.701,26.093l-0.594,0.771
			c0.221-0.198,0.463-0.484,0.727-0.66l-0.066-0.198L31.701,26.093z M31.35,32.275l0.311-0.354c0.482-0.594,0.988-1.166,1.449-1.761
			c-0.594,0.507-1.121,1.057-1.672,1.604l-0.176,0.221L31.35,32.275z M32.561,28.249l-0.109-0.308l-0.09,0.107L31.35,29.35
			l1.102-0.99C32.473,28.314,32.516,28.293,32.561,28.249z M31.658,33.023l0.219-0.31l-0.24,0.265
			C31.637,32.979,31.637,33.002,31.658,33.023z M33.639,31.241c-0.177,0.153-0.33,0.329-0.484,0.483
			c-0.438,0.483-0.9,0.945-1.299,1.476l1.035-0.946l0.615-0.595l0.198-0.197L33.639,31.241z M31.966,33.816
			c0.308-0.44,0.638-0.838,0.968-1.256l-0.99,0.901l-0.088,0.065l0.066,0.152L31.966,33.816z M32.34,34.542l0.792-1.101
			c0.11-0.153,0.22-0.31,0.353-0.463c-0.396,0.375-0.793,0.771-1.211,1.146l-0.131,0.132C32.186,34.344,32.273,34.477,32.34,34.542z
			 M33.924,32.166l-0.088-0.309l-0.264,0.33l-1.102,1.387l1.256-1.21C33.792,32.318,33.857,32.23,33.924,32.166z M33.309,30.34
			c-0.265,0.33-0.529,0.66-0.813,0.99c0.283-0.266,0.55-0.551,0.855-0.771h0.022L33.309,30.34z M32.736,34.607
			c0.109-0.021,0.242-0.021,0.418-0.065l0.043-0.065c0.199-0.33,0.439-0.66,0.683-0.99C33.484,33.838,33.109,34.212,32.736,34.607z
			 M34.078,32.584l-0.309,0.418l-0.463,0.639c0.266-0.242,0.527-0.507,0.813-0.705c0-0.021,0.021-0.021,0.044-0.043l-0.044-0.177
			L34.078,32.584z M34.629,33.354c-0.045,0.022-0.066,0.022-0.111,0.022c-0.088,0-0.131-0.022-0.176-0.088l-0.33,0.438
			c-0.176,0.266-0.352,0.508-0.506,0.771c0.352-0.33,0.727-0.683,1.1-0.99C34.605,33.441,34.605,33.396,34.629,33.354z
			 M34.012,34.366L33.99,34.41h0.021V34.366L34.012,34.366z M38.412,18.854l0.021,0.022v-0.044
			C38.434,18.832,38.412,18.832,38.412,18.854z M38.654,19.096l0.154-0.154l-0.109-0.044C38.699,18.964,38.676,19.03,38.654,19.096z
			 M38.742,19.426l0.045,0.132l0.154-0.374C38.918,19.228,38.83,19.338,38.742,19.426z M39.402,19.14
			c-0.043,0-0.088-0.021-0.131-0.021c-0.023,0-0.023,0.021-0.023,0.021c-0.109,0.265-0.219,0.528-0.352,0.792l0.77-0.726
			L39.402,19.14z M39.314,20.02l0.221-0.329l-0.639,0.615v0.133C39.006,20.328,39.139,20.174,39.314,20.02z M40.592,19.315
			c-0.133,0-0.287-0.021-0.42-0.044l-0.152,0.221C40.195,19.426,40.414,19.36,40.592,19.315z"/>
	</g>
</g>
</svg>
